<?xml version="1.0" encoding="UTF-8"?>
<svg id="Layer_1" data-name="Layer 1" xmlns="http://www.w3.org/2000/svg" xmlns:xlink="http://www.w3.org/1999/xlink" viewBox="0 0 705 705">
  <defs>
    <style>
      .cls-1 {
        fill: url(#New_Gradient_Swatch_2-2);
      }

      .cls-2 {
        fill: url(#linear-gradient-2);
      }

      .cls-3 {
        fill: #141039;
      }

      .cls-4 {
        fill: url(#linear-gradient-3);
        opacity: .5;
      }

      .cls-5 {
        fill: url(#New_Gradient_Swatch_2);
      }

      .cls-6 {
        fill: #e98973;
      }

      .cls-7 {
        fill: url(#New_Gradient_Swatch_3-2);
      }

      .cls-8 {
        fill: url(#New_Gradient_Swatch_3);
      }

      .cls-9 {
        fill: url(#New_Gradient_Swatch_2-3);
      }

      .cls-10 {
        fill: #f5a889;
      }

      .cls-11 {
        fill: url(#linear-gradient);
      }

      .cls-12 {
        fill: url(#linear-gradient-4);
      }
    </style>
    <linearGradient id="New_Gradient_Swatch_2" data-name="New Gradient Swatch 2" x1="245.26" y1="305.1" x2="245.26" y2="265.86" gradientUnits="userSpaceOnUse">
      <stop offset="0" stop-color="#441a45" stop-opacity=".5"/>
      <stop offset=".99" stop-color="#6e244c"/>
    </linearGradient>
    <linearGradient id="linear-gradient" x1="290.87" y1="350.55" x2="290.87" y2="218.57" gradientUnits="userSpaceOnUse">
      <stop offset="0" stop-color="#e98973" stop-opacity=".5"/>
      <stop offset="1" stop-color="#6e244c"/>
    </linearGradient>
    <linearGradient id="linear-gradient-2" x1="351.61" y1="387.38" x2="351.61" y2="228.18" gradientUnits="userSpaceOnUse">
      <stop offset="0" stop-color="#e98973" stop-opacity=".2"/>
      <stop offset=".99" stop-color="#6e244c"/>
    </linearGradient>
    <linearGradient id="New_Gradient_Swatch_2-2" data-name="New Gradient Swatch 2" x1="454.75" x2="454.75" y2="255.28" xlink:href="#New_Gradient_Swatch_2"/>
    <linearGradient id="New_Gradient_Swatch_2-3" data-name="New Gradient Swatch 2" x1="419.15" y1="295.49" x2="419.15" y2="183.62" xlink:href="#New_Gradient_Swatch_2"/>
    <linearGradient id="linear-gradient-3" x1="415.14" y1="392.14" x2="415.14" y2="290.24" gradientUnits="userSpaceOnUse">
      <stop offset="0" stop-color="#e98973" stop-opacity=".2"/>
      <stop offset=".99" stop-color="#6e244c"/>
    </linearGradient>
    <linearGradient id="linear-gradient-4" x1="352.8" y1="317.01" x2="352.8" y2="134.88" gradientUnits="userSpaceOnUse">
      <stop offset="0" stop-color="#441a45"/>
      <stop offset=".07" stop-color="#592145"/>
      <stop offset=".23" stop-color="#883048"/>
      <stop offset=".39" stop-color="#af3d49"/>
      <stop offset=".55" stop-color="#cd474b"/>
      <stop offset=".7" stop-color="#e24e4c"/>
      <stop offset=".85" stop-color="#ef524c"/>
      <stop offset=".99" stop-color="#f4544d"/>
    </linearGradient>
    <linearGradient id="New_Gradient_Swatch_3" data-name="New Gradient Swatch 3" x1="296.46" y1="390.01" x2="296.46" y2="340.68" gradientUnits="userSpaceOnUse">
      <stop offset="0" stop-color="#6e244c" stop-opacity=".5"/>
      <stop offset=".99" stop-color="#f56a5d"/>
    </linearGradient>
    <linearGradient id="New_Gradient_Swatch_3-2" data-name="New Gradient Swatch 3" x1="406.91" x2="406.91" y2="340.82" xlink:href="#New_Gradient_Swatch_3"/>
  </defs>
  <g>
    <path class="cls-6" d="m484.74,241.9c.17,13.85.46,27.76-1.04,41.54-2.21,20.36-9.36,39.08-21.35,55.7-4.44,6.17-9.56,11.83-15.06,17.08-10.86,10.37-23.18,19.07-35.74,27.24-10.17,6.61-20.51,12.93-31.02,18.96-8.1,4.65-17.31,12.6-26.85,13.51-3.33.32-6.5-1.35-9.43-2.96-23.97-13.22-47.93-26.3-69.78-42.92-8.57-6.51-16.55-13.58-23.6-21.34-11.99-13.22-21.3-28.45-26.22-46.41-6.09-22.18-3.78-45.57-3.55-68.3.26-24.56.49-49.15-.61-73.69-.12-2.82.48-6,2.81-7.6,2.71-1.86,6.93-2.98,9.96-4.48,3.85-1.9,7.75-3.71,11.68-5.46,7.62-3.44,15.32-6.69,22.94-10.1,25.43-11.38,50.8-22.83,76.08-34.55,1.37-.64,2.76-1.28,4.24-1.63,4.82-1.15,9.75.92,14.27,2.94,32.31,14.46,64.94,28.39,96.92,43.59,7.25,3.45,14.7,6.49,22.09,9.65.74.31,1.52.66,2.05,1.28.48.56.71,1.28.88,2,.92,3.7.34,7.27.31,11-.05,8.42-.1,16.83-.14,25.24-.06,16.57-.05,33.15.15,49.73Z"/>
    <polygon class="cls-5" points="228.81 305.1 228.81 265.86 261.71 265.86 261.71 295.88 228.81 305.1"/>
    <rect class="cls-11" x="269.89" y="218.57" width="41.96" height="131.99"/>
    <rect class="cls-2" x="330.2" y="228.18" width="42.83" height="159.2"/>
    <rect class="cls-1" x="438.58" y="255.28" width="32.34" height="49.82"/>
    <g>
      <polygon class="cls-9" points="431.98 183.62 431.98 206.39 399.4 225.8 399.4 228.18 399.4 279.81 438.9 295.49 438.9 228.18 438.9 183.62 431.98 183.62"/>
      <polygon class="cls-4" points="391.38 290.24 391.38 392.14 438.9 359.48 438.58 307.72 391.38 290.24"/>
    </g>
    <path class="cls-12" d="m477.33,304.05c-20.69-4.29-41.28-10.03-61.21-17.04-4.4-1.55-9.58-3.44-14.62-5.7-13.9-6.24-26.76-15.39-37.21-26.47-2.23-2.37-5.85-5.53-7.98-9.17h.11v-40.35c17.17-2.44,30.37-17.19,30.37-35.04,0-19.55-15.85-35.4-35.4-35.4s-35.4,15.85-35.4,35.4c0,18.3,13.88,33.35,31.69,35.21v40.08c-.15.16-.28.32-.36.49-7.51,14.5-25.51,25.55-35.57,30.84-10.68,5.62-22.37,9.44-33.67,13.14l-8.4,2.75c-13.02,4.26-26.48,8.66-40.15,11.33-1.29.25-2.17.83-2.64,1.73-.96,1.87.22,4.44,1.36,6.92.5,1.1.98,2.14,1.17,2.93.2.83.82,1.32,1.66,1.32.23,0,.48-.04.74-.11,3.92-1.1,7.84-2.15,11.76-3.21,11.4-3.07,23.18-6.25,34.57-10.31,9.3-3.32,18.57-7.07,27.57-11.15,5.26-2.39,11.44-5.32,17.35-9,5.96-3.71,11.8-8.29,17.37-13.62,2.49-2.38,4.74-4.98,6.91-7.49,1.46-1.68,2.96-3.42,4.52-5.07.35-.37.47-.41.5-.41.05.01.17.09.44.41l.65.75c3.59,4.15,7.29,8.44,11.36,12.33,2.25,2.16,4.55,4.17,6.82,5.99.29.23.94.65,2.07,1.38,1.45.93,4.39,2.82,5.02,3.5v.25l.4.26c11.56,7.43,24.29,12.72,34.08,16.5,4.88,1.89,48.01,18.42,58.95,18.42h.02c.66,0,2.57-.01,3.1-1.32,1.06-2.65,1.98-5.39,2.87-8.04l.9-2.67-1.72-.35Z"/>
    <g>
      <rect class="cls-10" x="407.99" y="241.73" width="7.87" height="6.99"/>
      <rect class="cls-10" x="421.98" y="241.73" width="7.87" height="6.99"/>
      <rect class="cls-10" x="409.74" y="265.77" width="5.24" height="7.87"/>
      <rect class="cls-10" x="450.82" y="271.89" width="6.12" height="8.74"/>
    </g>
    <g>
      <rect class="cls-10" x="359.92" y="287.62" width="4.37" height="6.12"/>
      <rect class="cls-10" x="359.04" y="305.1" width="6.12" height="5.24"/>
      <rect class="cls-10" x="344.18" y="310.35" width="4.37" height="5.24"/>
      <rect class="cls-10" x="345.06" y="335.69" width="3.5" height="5.24"/>
    </g>
    <g>
      <rect class="cls-10" x="296.11" y="256.15" width="5.24" height="6.12"/>
      <rect class="cls-10" x="278.63" y="275.38" width="5.24" height="4.37"/>
      <rect class="cls-10" x="295.24" y="235.18" width="6.99" height="6.99"/>
      <rect class="cls-10" x="276.88" y="235.18" width="6.12" height="7.87"/>
    </g>
    <rect class="cls-10" x="247.16" y="278.88" width="5.24" height="7.87"/>
    <g>
      <rect class="cls-8" x="292.27" y="340.68" width="8.39" height="49.33"/>
      <ellipse class="cls-10" cx="296.46" cy="332.14" rx="9.61" ry="10.43"/>
    </g>
    <circle class="cls-10" cx="351.4" cy="170.28" r="13.99"/>
    <g>
      <rect class="cls-7" x="402.72" y="340.82" width="8.39" height="49.19"/>
      <ellipse class="cls-10" cx="406.91" cy="332.11" rx="9.61" ry="10.41"/>
    </g>
    <path class="cls-3" d="m493.48,241.8c-.17-14.54-.22-30.3-.15-49.6.03-8.4.09-16.81.14-25.21,0-.84.05-1.72.1-2.66.14-3.09.31-6.58-.66-10.51-.36-1.46-1.04-3.63-2.74-5.6-1.86-2.17-4.06-3.11-5.24-3.62-1.76-.75-3.52-1.49-5.28-2.25-5.47-2.31-11.13-4.7-16.49-7.25-22.54-10.72-45.74-20.95-68.17-30.85-9.49-4.2-19.31-8.52-28.93-12.82-4.56-2.05-9.48-4.04-14.96-4.04-1.68,0-3.32.19-4.89.57-2.34.55-4.32,1.47-5.9,2.2-27.08,12.56-53.6,24.49-75.97,34.51-3.62,1.62-7.33,3.23-10.92,4.79-3.94,1.72-8.03,3.51-12.05,5.31-4.62,2.08-8.43,3.86-11.95,5.59-.82.41-1.97.85-3.17,1.32-2.52.97-5.37,2.07-7.88,3.79-4.48,3.08-6.89,8.61-6.6,15.19,1.12,24.94.85,50.58.6,73.22-.04,4.39-.17,8.92-.3,13.3-.53,18.84-1.08,38.32,4.15,57.4,4.94,18,14.42,34.81,28.19,49.97,7.08,7.81,15.18,15.15,24.77,22.44,21.73,16.51,45.64,29.7,68.76,42.45l2.09,1.15c2.95,1.63,7.42,4.09,12.81,4.09.56,0,1.13-.03,1.69-.08,9.19-.89,17.18-6.14,24.22-10.77,2.18-1.43,4.24-2.78,6.14-3.87,10.59-6.07,21.17-12.54,31.43-19.21,11.49-7.47,24.89-16.67,37.01-28.23,6.22-5.93,11.64-12.09,16.13-18.29,12.84-17.81,20.57-37.95,22.94-59.87,1.46-13.39,1.29-26.83,1.13-39.83l-.03-2.75Zm-8.74.1c.17,13.85.46,27.76-1.04,41.54-2.21,20.36-9.36,39.08-21.35,55.7-4.44,6.17-9.56,11.83-15.06,17.08-10.86,10.37-23.18,19.07-35.74,27.24-10.17,6.61-20.51,12.93-31.02,18.96-8.1,4.65-17.31,12.6-26.85,13.51-3.33.32-6.5-1.35-9.43-2.96-23.97-13.22-47.93-26.3-69.78-42.92-8.57-6.51-16.55-13.58-23.6-21.34-11.99-13.22-21.3-28.45-26.22-46.41-6.09-22.18-3.78-45.57-3.55-68.3.26-24.56.49-49.15-.61-73.69-.12-2.82.48-6,2.81-7.6,2.71-1.86,6.93-2.98,9.96-4.48,3.85-1.9,7.75-3.71,11.68-5.46,7.62-3.44,15.32-6.69,22.94-10.1,25.43-11.38,50.8-22.83,76.08-34.55,1.37-.64,2.76-1.28,4.24-1.63,4.82-1.15,9.75.92,14.27,2.94,32.31,14.46,64.94,28.39,96.92,43.59,7.25,3.45,14.7,6.49,22.09,9.65.74.31,1.52.66,2.05,1.28.48.56.71,1.28.88,2,.92,3.7.34,7.27.31,11-.05,8.42-.1,16.83-.14,25.24-.06,16.57-.05,33.15.15,49.73Z"/>
  </g>
  <g>
    <path class="cls-3" d="m188.19,523.84c-.59-5.57-1.94-10.86-4.94-15.63-4.29-6.84-10.54-11.52-17.48-15.3-4.94-2.68-10.05-5.06-15.07-7.6-4.8-2.41-9.6-4.82-14.38-7.28-3.43-1.77-6.73-3.76-9.71-6.26-4.59-3.85-7.68-8.6-8.69-14.54-.75-4.42-.59-8.86.93-13.14,1.27-3.57,3.42-6.49,6.69-8.51,3.35-2.06,6.96-3.23,10.88-3.59,4.78-.45,9.39.23,13.83,1.87,3.32,1.23,6.27,3.11,8.88,5.64,3.71,3.59,6.65,7.64,8.34,12.49,1.52,4.34,2.7,8.81,4.01,13.22.23.75.16,1.81.65,2.18.5.37,1.51.08,2.3.08.1,0,.22,0,.32,0,.65.03.87-.24.87-.91-.02-5.52.04-11.05.02-16.57-.03-5.06-.12-10.12-.17-15.17,0-1.16-.32-2.17-1.42-2.71-4.31-2.12-8.77-3.9-13.4-5.13-4.78-1.27-9.67-2-14.61-2.4-7.59-.62-15.02.16-22.25,2.45-5.29,1.66-10.31,4.05-14.64,7.55-2.51,2.04-4.91,4.31-6.88,6.85-3.61,4.65-5.42,10.14-6.22,15.95-1.17,8.5-.81,16.77,2.77,24.81,2.9,6.52,7.46,11.37,13.44,14.95,4.26,2.56,8.65,4.9,13.05,7.22,3.11,1.65,6.32,3.13,9.5,4.66,3.6,1.75,7.23,3.42,10.8,5.24,2.25,1.14,4.44,2.39,6.59,3.7,2.03,1.23,4.17,2.39,5.9,3.97,3.77,3.46,6.46,7.69,7.38,12.82.83,4.69.59,9.3-1.33,13.79-1.57,3.68-3.79,6.82-6.94,9.23-2.72,2.09-5.79,3.58-9.1,4.64-5.38,1.73-10.78,1.64-16.27.91-5.62-.75-10.48-3.18-14.75-6.73-3.3-2.73-6.37-5.75-9.34-8.84-2.32-2.43-4.08-5.34-5.34-8.47-1.9-4.72-3.54-9.52-4.47-14.54-.05-.28-.49-.66-.77-.68-1.39-.07-2.79-.03-4.21-.03-.05.32-.1.49-.1.67.07,12.49.14,25,.27,37.49,0,.44.54,1.04.99,1.3.87.5,1.84.82,2.77,1.2,3.38,1.32,6.71,2.84,10.18,3.88,4.3,1.29,8.7,2.38,13.11,3.17,3.75.67,7.59,1.02,11.4,1.12,3.92.1,7.86-.25,11.77-.5,4.99-.32,9.88-1.28,14.6-2.87,4.02-1.35,7.92-3.03,11.56-5.32,3.98-2.49,7.62-5.21,10.62-8.91,4.47-5.52,6.68-11.92,7.78-18.75.67-4.17.7-8.41.26-12.64Z"/>
    <path class="cls-3" d="m188.4,469.84c1.35,0,2.78,0,4.21,0,7.51.02,15.03.08,22.54.07,7.58,0,15.17-.06,22.75-.13.73,0,.99.2.95.9-.05.72-.08,1.44-.08,2.16,0,1.42,0,1.28-1.34,1.46-1.74.23-3.52.5-5.14,1.13-3.27,1.29-3.6,2.93-3.35,6,.18,2.23.91,4.34,1.87,6.4,1.16,2.47,2.02,5.07,3.08,7.59,1.2,2.86,2.47,5.68,3.69,8.53,1.63,3.8,3.23,7.61,4.88,11.41,1.2,2.78,2.48,5.52,3.67,8.3,1.1,2.58,2.11,5.21,3.2,7.8,1.04,2.49,2.14,4.95,3.19,7.44.16.38.15.84.26,1.25.07.25.23.48.34.72.22-.19.55-.33.65-.57,1.16-2.8,2.32-5.6,3.41-8.42,2.26-5.85,4.5-11.71,6.7-17.58,1.56-4.15,3.11-8.3,4.56-12.49,1.35-3.88,2.63-7.79,3.83-11.71.57-1.86.99-3.78,1.28-5.7.59-3.93-1.84-7.36-5.4-9-1.43-.66-3.11-.8-4.69-1.09-.64-.12-1.12-.21-1.1-1,.02-.86.03-1.72,0-2.57-.03-.67.15-.97.9-.97,14.59.06,29.18.11,43.77.13,11.16.01,22.32-.02,33.48-.03.5,0,1.01.07,1.51,0,1.11-.15,1.21-.07,1.11,1-.05.61-.07,1.22-.01,1.83.08.88-.09,1.26-1.15,1.27-3.29.03-6.71,2.09-7.4,4.98-.38,1.58-.27,3.39.07,5,1.22,5.94,3.93,11.35,6.27,16.89,1.55,3.68,3.07,7.37,4.61,11.06,1.39,3.32,2.8,6.63,4.17,9.95,1.83,4.46,3.65,8.92,5.44,13.4.7,1.74,1.29,3.51,1.97,5.26.1.26.47.63.64.59.27-.06.59-.37.7-.65,1.91-4.74,3.79-9.5,5.68-14.25,2.86-7.2,5.79-14.38,8.56-21.61,2.21-5.79,4.41-11.6,6.27-17.5,1.04-3.28.92-6.71-1.28-9.73-1.77-2.43-4.29-3.15-7.1-3.22-1.15-.03-1.23-.06-1.13-1.21.05-.67.05-1.37-.05-2.03-.12-.76.06-1.08.86-1.07,9.5.05,18.99.09,28.49.13.25,0,.51,0,.76-.03,1.63-.16,1.63-.17,1.54,1.44-.05.82.21,1.85-.19,2.41-.34.47-1.47.31-2.19.57-2.21.79-4.03,2.11-5.67,3.82-3.01,3.14-4.25,7.16-5.8,11.03-1.94,4.85-3.72,9.77-5.7,14.61-2.58,6.27-5.33,12.47-7.94,18.72-1.95,4.66-3.77,9.36-5.71,14.02-2.16,5.19-4.39,10.35-6.57,15.53-2.12,5.05-4.21,10.11-6.32,15.16-.3.73-.58,1.48-.96,2.17-.13.24-.54.46-.82.47-3.43.02-6.86.03-10.29-.04-.37,0-.9-.47-1.07-.84-1.64-3.84-3.24-7.7-4.81-11.57-1.6-3.94-3.15-7.9-4.73-11.84-2.5-6.22-5.01-12.44-7.52-18.65-3.05-7.56-6.11-15.11-9.14-22.67-2.76-6.89-5.49-13.8-8.23-20.7-1.44-3.64-3.83-6.45-7.58-7.69-4.78-1.58-7.98-1.3-11.87,2.36-1.42,1.34-2.42,3.25-3.28,5.05-1.44,2.98-2.65,6.08-3.89,9.15-1.99,4.91-3.93,9.85-5.88,14.78-1.92,4.86-3.82,9.72-5.75,14.58-1.83,4.59-3.7,9.15-5.52,13.74-2.44,6.13-4.87,12.26-7.27,18.4-1,2.55-1.89,5.14-2.89,7.69-1.5,3.78-3.09,7.53-4.59,11.32-1.63,4.08-3.12,8.23-4.84,12.27-1.83,4.31-3.7,8.6-5.83,12.76-1.52,2.97-3.29,5.86-5.33,8.5-4.03,5.2-9.12,8.94-15.68,10.5-3.48.83-6.97.83-10.43.35-2.9-.41-5.52-1.78-7.3-4.25-.59-.81-1-1.87-1.15-2.87-.84-5.59,2.02-9.4,6.69-11.62,2.22-1.05,4.59-1.45,7.03-1.49.35,0,.82.26,1.02.55.46.64.72,1.42,1.18,2.06,1.66,2.31,4.16,3,7.11,2.25,3.94-1,6.8-3.47,9.42-6.4,2.32-2.59,4.02-5.58,5.47-8.66,2-4.26,3.84-8.63,4.69-13.31.13-.73-.02-1.61-.33-2.3-1.55-3.49-3.22-6.93-4.79-10.41-1.96-4.34-3.86-8.7-5.78-13.05-2.47-5.61-4.93-11.22-7.4-16.83-1.93-4.39-3.89-8.76-5.82-13.15-4.21-9.57-8.36-19.17-12.62-28.72-1.26-2.82-2.55-5.68-4.27-8.22-2.46-3.64-6.02-5.97-10.39-6.89-.97-.2-1.36-.55-1.11-1.62.18-.78.03-1.62.03-2.53Z"/>
    <path class="cls-3" d="m425.39,499.24c-2.23.4-4.34.77-6.45,1.16-3.79.7-7.58,1.41-11.37,2.1-1.42.26-2.85.46-4.27.71-.73.13-.83-.26-.88-.85-.31-4.23.63-8.21,2.63-11.89,3.61-6.63,9.07-11.41,15.54-15.14,3.67-2.12,7.53-3.75,11.62-4.9,7.46-2.1,14.93-2.05,22.5-.71,4.56.8,8.74,2.43,12.69,4.72,4.86,2.83,8.66,6.75,11.02,11.87,2.06,4.47,2.62,9.26,2.61,14.15,0,17.05.02,34.1.04,51.15,0,.72.06,1.44.11,2.16.37,5.48,3.35,8.48,8.85,8.59,1.64.03,3.33-.47,4.94-.92,1.25-.35,1.45-.32,1.44,1.02,0,.72.04,1.44,0,2.16-.01.23-.19.55-.39.66-3.48,1.97-7,3.91-10.87,4.99-6.22,1.72-12.49,2.15-18.76.12-6.09-1.97-9.04-6.46-10.03-12.51-.16-.97-.12-1.96-.43-3.1-.28.34-.63.65-.84,1.03-1.13,2.02-2.21,4.08-4.09,5.52-4.11,3.15-8.49,5.8-13.41,7.56-5.95,2.13-12.07,2.85-18.31,2.34-3.64-.3-7.11-1.4-10.39-3.1-4.04-2.1-7.25-5.01-9.18-9.14-2.12-4.53-3.05-9.31-2.21-14.32,1.13-6.75,4.88-11.86,10.25-15.86,5.98-4.45,12.63-7.69,19.64-10.16,5.77-2.03,11.6-3.91,17.45-5.72,2.85-.88,5.81-1.45,8.71-2.17.52-.13,1.07-.25,1.53-.52.28-.16.57-.58.56-.89-.02-4.98-.09-9.96-.14-14.95-.03-2.72-.16-5.45-1.4-7.93-3.7-7.4-11.14-10.48-18.7-9.16-4.11.72-6.67,3.52-8.93,6.68-1.58,2.21-2.69,4.68-2.79,7.4-.09,2.34-.13,4.76,1.22,6.89.19.29.31.62.48.95Zm9.39,59.22c8.08-.33,14.37-3.67,19.21-9.78,1.09-1.37,1.79-2.82,1.75-4.8-.17-8.3-.07-16.6-.07-24.91,0-.72-.28-.99-1-.85-.56.11-1.14.14-1.71.24-2.98.51-6.01.83-8.91,1.61-2.62.71-5.13,1.88-7.64,2.97-5.55,2.41-10.24,5.73-12.93,11.5-2.66,5.69-2.53,11.29-.04,16.83,2.19,4.86,6.37,6.92,11.34,7.19Z"/>
    <path class="cls-3" d="m612.04,611.64c.2-1.8.18-1.83-1.6-1.84-.11,0-.22,0-.33,0-6.86-.13-12.08-4.84-12.56-11.68-.27-3.81-.07-7.65-.06-11.48.02-8.49.07-16.98.07-25.46,0-16.47,0-32.95-.03-49.42-.03-13.47-.11-26.94-.16-40.41,0-.7.06-1.41.1-2.29-.52.15-.94.21-1.3.4-1.96,1.06-3.87,2.22-5.87,3.21-3,1.48-6.09,2.79-9.09,4.27-.85.42-1.5.47-2.31,0-3.53-2.03-7.05-4.08-10.94-5.38-3.64-1.21-7.34-2.13-11.16-2.51-6.65-.65-13.23-.46-19.79,1.04-4.36,1-8.58,2.39-12.46,4.54-7.29,4.04-12.97,9.85-17.2,17.01-3.65,6.17-6.12,12.83-7.29,19.9-1.29,7.83-1.06,15.69.23,23.51,1.27,7.72,3.59,15.07,8.04,21.63,4.2,6.18,9.86,10.5,16.82,13.03,5.44,1.98,11.16,2.62,16.92,2.67,6.72.07,13.17-1.44,19.36-3.98,4.35-1.79,8.42-4.1,11.65-7.65.06-.06.19-.06.41-.11.05.3.13.56.13.83-.02,3.36-.04,6.71-.07,10.07-.03,4.69-.1,9.39-.09,14.08.01,5.2.16,10.4.1,15.6-.03,2.55-.97,4.83-3.08,6.41-2.58,1.93-5.41,3.3-8.71,3.47-.27.01-.71.47-.73.75-.06.89-.02,1.8.1,2.69.03.27.43.71.65.71,3.1-.08,6.19-.33,9.29-.35,10.15-.05,20.3-.02,30.45-.03,3.46,0,6.93,0,10.57,0-.05-.62-.12-1.12-.13-1.61-.01-.54-.01-1.08.05-1.61Zm-43.7-56.88c-3.07,2.92-6.88,4.06-10.86,4.66-4.81.72-9.56.35-14.11-1.62-3.33-1.44-6.07-3.65-8.74-6.08-3.46-3.16-6.07-6.85-7.84-11.15-1.51-3.67-2.51-7.5-3.15-11.43-.99-6.07-.89-12.18-.33-18.25.44-4.72,1.01-9.46,2.93-13.91,1.81-4.2,4.16-8.05,6.91-11.69,1.8-2.39,3.77-4.56,6.34-6.12,2.69-1.63,5.59-2.68,8.73-2.95,7.78-.66,14.56,1.84,20.57,6.65,1.86,1.49,3.22,3.4,4.24,5.54.23.49.29,1.11.29,1.67.02,9.14.01,18.28.01,27.41h.05c0,8.78-.03,17.55.01,26.33.02,4.47-1.93,7.93-5.08,10.93Z"/>
  </g>
</svg>