<?xml version="1.0" encoding="UTF-8"?>
<svg id="Layer_1" data-name="Layer 1" xmlns="http://www.w3.org/2000/svg" xmlns:xlink="http://www.w3.org/1999/xlink" viewBox="0 0 846 303.5">
  <defs>
    <style>
      .cls-1 {
        fill: url(#New_Gradient_Swatch_2-2);
      }

      .cls-2 {
        fill: url(#linear-gradient-2);
      }

      .cls-3, .cls-4 {
        fill: #141039;
      }

      .cls-4 {
        font-family: Poppins-SemiBold, Poppins;
        font-size: 30.94px;
        font-weight: 600;
      }

      .cls-5 {
        fill: url(#linear-gradient-3);
        opacity: .5;
      }

      .cls-6 {
        fill: url(#New_Gradient_Swatch_2);
      }

      .cls-7 {
        fill: #e98973;
      }

      .cls-8 {
        fill: url(#New_Gradient_Swatch_3-2);
      }

      .cls-9 {
        fill: url(#New_Gradient_Swatch_3);
      }

      .cls-10 {
        fill: url(#New_Gradient_Swatch_2-3);
      }

      .cls-11 {
        fill: #f5a889;
      }

      .cls-12 {
        fill: url(#linear-gradient);
      }

      .cls-13 {
        fill: url(#linear-gradient-4);
      }
    </style>
    <linearGradient id="New_Gradient_Swatch_2" data-name="New Gradient Swatch 2" x1="50.42" y1="187.71" x2="50.42" y2="157.58" gradientUnits="userSpaceOnUse">
      <stop offset="0" stop-color="#441a45" stop-opacity=".5"/>
      <stop offset=".99" stop-color="#6e244c"/>
    </linearGradient>
    <linearGradient id="linear-gradient" x1="85.44" y1="222.6" x2="85.44" y2="121.26" gradientUnits="userSpaceOnUse">
      <stop offset="0" stop-color="#e98973" stop-opacity=".5"/>
      <stop offset="1" stop-color="#6e244c"/>
    </linearGradient>
    <linearGradient id="linear-gradient-2" x1="132.08" y1="250.88" x2="132.08" y2="128.65" gradientUnits="userSpaceOnUse">
      <stop offset="0" stop-color="#e98973" stop-opacity=".2"/>
      <stop offset=".99" stop-color="#6e244c"/>
    </linearGradient>
    <linearGradient id="New_Gradient_Swatch_2-2" data-name="New Gradient Swatch 2" x1="211.28" x2="211.28" y2="149.45" xlink:href="#New_Gradient_Swatch_2"/>
    <linearGradient id="New_Gradient_Swatch_2-3" data-name="New Gradient Swatch 2" x1="183.94" y1="180.32" x2="183.94" y2="94.43" xlink:href="#New_Gradient_Swatch_2"/>
    <linearGradient id="linear-gradient-3" x1="180.86" y1="254.53" x2="180.86" y2="176.3" gradientUnits="userSpaceOnUse">
      <stop offset="0" stop-color="#e98973" stop-opacity=".2"/>
      <stop offset=".99" stop-color="#6e244c"/>
    </linearGradient>
    <linearGradient id="linear-gradient-4" x1="132.99" y1="196.85" x2="132.99" y2="57" gradientUnits="userSpaceOnUse">
      <stop offset="0" stop-color="#441a45"/>
      <stop offset=".07" stop-color="#592145"/>
      <stop offset=".23" stop-color="#883048"/>
      <stop offset=".39" stop-color="#af3d49"/>
      <stop offset=".55" stop-color="#cd474b"/>
      <stop offset=".7" stop-color="#e24e4c"/>
      <stop offset=".85" stop-color="#ef524c"/>
      <stop offset=".99" stop-color="#f4544d"/>
    </linearGradient>
    <linearGradient id="New_Gradient_Swatch_3" data-name="New Gradient Swatch 3" x1="89.74" y1="252.9" x2="89.74" y2="215.02" gradientUnits="userSpaceOnUse">
      <stop offset="0" stop-color="#6e244c" stop-opacity=".5"/>
      <stop offset=".99" stop-color="#f56a5d"/>
    </linearGradient>
    <linearGradient id="New_Gradient_Swatch_3-2" data-name="New Gradient Swatch 3" x1="174.55" x2="174.55" y2="215.13" xlink:href="#New_Gradient_Swatch_3"/>
  </defs>
  <g>
    <path class="cls-7" d="m234.3,139.18c.13,10.64.36,21.32-.8,31.89-1.7,15.63-7.19,30.01-16.4,42.77-3.41,4.74-7.34,9.09-11.56,13.11-8.34,7.96-17.8,14.64-27.44,20.91-7.81,5.07-15.74,9.93-23.82,14.56-6.22,3.57-13.29,9.67-20.62,10.38-2.56.25-4.99-1.03-7.24-2.28-18.4-10.15-36.81-20.19-53.58-32.95-6.58-5-12.7-10.43-18.12-16.39-9.21-10.15-16.36-21.85-20.13-35.64-4.68-17.03-2.91-34.99-2.72-52.44.2-18.86.38-37.74-.47-56.58-.09-2.17.37-4.61,2.16-5.84,2.08-1.43,5.32-2.29,7.65-3.44,2.96-1.46,5.95-2.85,8.97-4.19,5.85-2.64,11.77-5.13,17.62-7.76,19.52-8.74,39.01-17.53,58.42-26.53,1.05-.49,2.12-.98,3.26-1.25,3.7-.89,7.49.7,10.96,2.26,24.81,11.1,49.87,21.8,74.42,33.47,5.57,2.65,11.29,4.98,16.96,7.41.57.24,1.17.5,1.58.98.37.43.54.99.68,1.54.7,2.84.26,5.58.24,8.45-.04,6.46-.08,12.92-.11,19.38-.05,12.72-.04,25.46.11,38.19Z"/>
    <polygon class="cls-6" points="37.79 187.71 37.79 157.58 63.05 157.58 63.05 180.62 37.79 187.71"/>
    <rect class="cls-12" x="69.33" y="121.26" width="32.21" height="101.34"/>
    <rect class="cls-2" x="115.64" y="128.65" width="32.89" height="122.24"/>
    <rect class="cls-1" x="198.86" y="149.45" width="24.83" height="38.26"/>
    <g>
      <polygon class="cls-10" points="193.79 94.43 193.79 111.91 168.78 126.82 168.78 128.65 168.78 168.29 199.11 180.32 199.11 128.65 199.11 94.43 193.79 94.43"/>
      <polygon class="cls-5" points="162.62 176.3 162.62 254.53 199.11 229.46 198.86 189.72 162.62 176.3"/>
    </g>
    <path class="cls-13" d="m228.61,186.9c-15.88-3.3-31.7-7.7-47-13.08-3.38-1.19-7.36-2.64-11.23-4.38-10.67-4.79-20.55-11.82-28.57-20.33-1.71-1.82-4.49-4.24-6.12-7.04h.09v-30.98c13.18-1.87,23.32-13.2,23.32-26.9,0-15.01-12.17-27.18-27.18-27.18s-27.18,12.17-27.18,27.18c0,14.05,10.66,25.61,24.33,27.03v30.77c-.12.12-.21.25-.28.38-5.77,11.13-19.59,19.62-27.31,23.68-8.2,4.32-17.17,7.25-25.85,10.09l-6.45,2.11c-10,3.27-20.33,6.65-30.83,8.7-.99.19-1.67.64-2.02,1.33-.73,1.43.17,3.41,1.04,5.31.39.84.75,1.64.9,2.25.15.64.63,1.02,1.27,1.02.17,0,.37-.03.57-.08,3.01-.84,6.02-1.65,9.03-2.46,8.75-2.36,17.8-4.8,26.55-7.92,7.14-2.55,14.26-5.43,21.17-8.56,4.04-1.83,8.78-4.09,13.32-6.91,4.58-2.85,9.06-6.37,13.34-10.46,1.91-1.83,3.64-3.82,5.31-5.75,1.12-1.29,2.27-2.62,3.47-3.89.27-.28.36-.31.38-.31.04,0,.13.07.34.31l.5.57c2.75,3.19,5.6,6.48,8.72,9.47,1.73,1.66,3.49,3.2,5.24,4.6.22.18.72.5,1.59,1.06,1.11.72,3.37,2.17,3.86,2.69v.19l.31.2c8.88,5.7,18.65,9.77,26.17,12.67,3.75,1.45,36.87,14.14,45.26,14.14h.01c.5,0,1.98,0,2.38-1.02.81-2.03,1.52-4.14,2.2-6.17l.69-2.05-1.32-.27Z"/>
    <g>
      <rect class="cls-11" x="175.37" y="139.05" width="6.04" height="5.37"/>
      <rect class="cls-11" x="186.11" y="139.05" width="6.04" height="5.37"/>
      <rect class="cls-11" x="176.72" y="157.5" width="4.03" height="6.04"/>
      <rect class="cls-11" x="208.26" y="162.2" width="4.7" height="6.71"/>
    </g>
    <g>
      <rect class="cls-11" x="138.46" y="174.28" width="3.36" height="4.7"/>
      <rect class="cls-11" x="137.79" y="187.71" width="4.7" height="4.03"/>
      <rect class="cls-11" x="126.38" y="191.73" width="3.36" height="4.03"/>
      <rect class="cls-11" x="127.05" y="211.2" width="2.68" height="4.03"/>
    </g>
    <g>
      <rect class="cls-11" x="89.47" y="150.12" width="4.03" height="4.7"/>
      <rect class="cls-11" x="76.04" y="164.89" width="4.03" height="3.36"/>
      <rect class="cls-11" x="88.8" y="134.01" width="5.37" height="5.37"/>
      <rect class="cls-11" x="74.7" y="134.01" width="4.7" height="6.04"/>
    </g>
    <rect class="cls-11" x="51.88" y="167.57" width="4.03" height="6.04"/>
    <g>
      <rect class="cls-9" x="86.51" y="215.02" width="6.44" height="37.87"/>
      <ellipse class="cls-11" cx="89.74" cy="208.47" rx="7.38" ry="8.01"/>
    </g>
    <circle class="cls-11" cx="131.92" cy="84.18" r="10.74"/>
    <g>
      <rect class="cls-8" x="171.32" y="215.13" width="6.44" height="37.77"/>
      <ellipse class="cls-11" cx="174.55" cy="208.45" rx="7.38" ry="7.99"/>
    </g>
    <path class="cls-3" d="m241.02,139.1c-.13-11.17-.17-23.27-.11-38.09.03-6.45.07-12.91.11-19.36,0-.64.04-1.32.07-2.04.11-2.37.23-5.05-.51-8.07-.27-1.12-.8-2.79-2.11-4.3-1.43-1.66-3.11-2.39-4.03-2.78-1.35-.58-2.7-1.15-4.05-1.72-4.2-1.77-8.54-3.61-12.66-5.57-17.31-8.23-35.12-16.09-52.34-23.68-7.29-3.22-14.83-6.54-22.21-9.85-3.5-1.57-7.28-3.1-11.49-3.1-1.29,0-2.55.15-3.76.44-1.8.42-3.32,1.13-4.53,1.69-20.79,9.64-41.15,18.81-58.33,26.5-2.78,1.24-5.62,2.48-8.38,3.68-3.03,1.32-6.17,2.69-9.26,4.08-3.55,1.6-6.47,2.97-9.17,4.3-.63.32-1.51.65-2.44,1.01-1.93.75-4.12,1.59-6.05,2.91-3.44,2.36-5.29,6.61-5.07,11.66.86,19.15.65,38.84.46,56.22-.03,3.37-.13,6.85-.23,10.21-.41,14.47-.83,29.42,3.19,44.07,3.79,13.82,11.07,26.72,21.64,38.37,5.44,5.99,11.66,11.63,19.02,17.23,16.68,12.68,35.04,22.81,52.8,32.6l1.6.89c2.27,1.25,5.7,3.14,9.84,3.14.43,0,.87-.02,1.3-.06,7.05-.68,13.19-4.71,18.6-8.27,1.67-1.1,3.26-2.13,4.71-2.97,8.13-4.66,16.26-9.63,24.13-14.75,8.83-5.74,19.11-12.8,28.42-21.68,4.78-4.55,8.94-9.28,12.38-14.05,9.86-13.68,15.79-29.14,17.62-45.97,1.12-10.28.99-20.6.87-30.58l-.03-2.11Zm-6.71.08c.13,10.64.36,21.32-.8,31.89-1.7,15.63-7.19,30.01-16.4,42.77-3.41,4.74-7.34,9.09-11.56,13.11-8.34,7.96-17.8,14.64-27.44,20.91-7.81,5.07-15.74,9.93-23.82,14.56-6.22,3.57-13.29,9.67-20.62,10.38-2.56.25-4.99-1.03-7.24-2.28-18.4-10.15-36.81-20.19-53.58-32.95-6.58-5-12.7-10.43-18.12-16.39-9.21-10.15-16.36-21.85-20.13-35.64-4.68-17.03-2.91-34.99-2.72-52.44.2-18.86.38-37.74-.47-56.58-.09-2.17.37-4.61,2.16-5.84,2.08-1.43,5.32-2.29,7.65-3.44,2.96-1.46,5.95-2.85,8.97-4.19,5.85-2.64,11.77-5.13,17.62-7.76,19.52-8.74,39.01-17.53,58.42-26.53,1.05-.49,2.12-.98,3.26-1.25,3.7-.89,7.49.7,10.96,2.26,24.81,11.1,49.87,21.8,74.42,33.47,5.57,2.65,11.29,4.98,16.96,7.41.57.24,1.17.5,1.58.98.37.43.54.99.68,1.54.7,2.84.26,5.58.24,8.45-.04,6.46-.08,12.92-.11,19.38-.05,12.72-.04,25.46.11,38.19Z"/>
  </g>
  <g>
    <g>
      <g>
        <path class="cls-3" d="m380.36,147.7c-.51-4.83-1.69-9.43-4.29-13.57-3.73-5.94-9.15-10.01-15.18-13.28-4.29-2.33-8.73-4.4-13.08-6.59-4.16-2.09-8.33-4.19-12.48-6.32-2.98-1.54-5.84-3.27-8.43-5.44-3.98-3.34-6.67-7.47-7.54-12.63-.65-3.84-.51-7.69.81-11.41,1.1-3.1,2.97-5.63,5.81-7.39,2.91-1.79,6.05-2.8,9.45-3.12,4.15-.39,8.15.2,12.01,1.63,2.88,1.07,5.44,2.7,7.71,4.89,3.22,3.12,5.77,6.63,7.24,10.84,1.32,3.77,2.34,7.65,3.49,11.48.2.65.14,1.57.56,1.89.44.32,1.31.07,1.99.07.09,0,.19,0,.28,0,.56.03.75-.21.75-.79-.02-4.8.04-9.59.02-14.39-.02-4.39-.11-8.79-.15-13.17,0-1.01-.28-1.88-1.23-2.36-3.74-1.84-7.61-3.39-11.64-4.46-4.15-1.1-8.39-1.74-12.69-2.09-6.59-.53-13.04.14-19.32,2.12-4.59,1.45-8.95,3.52-12.71,6.56-2.18,1.77-4.26,3.74-5.98,5.95-3.13,4.04-4.71,8.8-5.4,13.85-1.02,7.38-.71,14.56,2.41,21.54,2.52,5.66,6.47,9.87,11.67,12.98,3.7,2.22,7.51,4.25,11.33,6.27,2.7,1.43,5.49,2.72,8.25,4.05,3.12,1.52,6.28,2.97,9.38,4.55,1.95.99,3.85,2.08,5.72,3.21,1.76,1.07,3.62,2.08,5.13,3.45,3.27,3,5.61,6.68,6.41,11.13.72,4.07.51,8.08-1.16,11.98-1.36,3.19-3.29,5.92-6.02,8.01-2.36,1.81-5.03,3.11-7.9,4.03-4.67,1.5-9.36,1.42-14.13.79-4.88-.65-9.1-2.76-12.81-5.84-2.86-2.37-5.53-4.99-8.11-7.68-2.02-2.11-3.54-4.64-4.64-7.36-1.65-4.1-3.07-8.27-3.88-12.63-.05-.24-.43-.57-.67-.59-1.2-.06-2.42-.03-3.65-.03-.05.28-.08.43-.08.58.06,10.85.12,21.7.23,32.55,0,.38.47.9.86,1.13.75.44,1.6.72,2.41,1.04,2.94,1.14,5.83,2.47,8.84,3.37,3.73,1.12,7.55,2.06,11.38,2.76,3.26.58,6.59.89,9.9.97,3.4.08,6.82-.22,10.22-.44,4.33-.28,8.58-1.11,12.68-2.49,3.49-1.17,6.87-2.63,10.04-4.62,3.46-2.16,6.62-4.52,9.22-7.74,3.88-4.8,5.8-10.35,6.75-16.28.58-3.62.61-7.3.23-10.98Z"/>
        <path class="cls-3" d="m380.54,100.81c1.17,0,2.42,0,3.66,0,6.52.02,13.05.07,19.57.06,6.59,0,13.17-.05,19.76-.12.63,0,.86.17.82.78-.04.62-.07,1.25-.07,1.88,0,1.23,0,1.11-1.16,1.27-1.51.2-3.06.43-4.46.98-2.84,1.12-3.13,2.55-2.91,5.21.16,1.93.79,3.77,1.62,5.56,1,2.15,1.76,4.41,2.67,6.59,1.04,2.48,2.15,4.93,3.21,7.4,1.42,3.3,2.81,6.61,4.24,9.91,1.04,2.41,2.15,4.79,3.19,7.21.96,2.24,1.83,4.52,2.78,6.77.91,2.16,1.86,4.3,2.77,6.46.14.33.13.73.22,1.08.06.22.2.42.3.62.19-.16.48-.29.56-.49,1.01-2.43,2.01-4.86,2.96-7.31,1.96-5.08,3.9-10.16,5.82-15.26,1.35-3.6,2.7-7.21,3.96-10.84,1.17-3.37,2.28-6.76,3.32-10.17.49-1.61.86-3.28,1.11-4.95.51-3.41-1.6-6.39-4.68-7.82-1.24-.57-2.7-.69-4.07-.94-.56-.1-.97-.18-.96-.87.02-.74.03-1.49,0-2.23-.02-.58.13-.85.79-.84,12.67.05,25.34.1,38.01.12,9.69.01,19.38-.02,29.07-.03.44,0,.88.06,1.31,0,.96-.13,1.05-.06.97.86-.05.53-.06,1.06-.01,1.59.07.77-.08,1.09-1,1.1-2.85.03-5.83,1.82-6.42,4.33-.33,1.37-.23,2.94.06,4.34,1.06,5.16,3.41,9.86,5.44,14.67,1.35,3.2,2.67,6.4,4,9.6,1.2,2.88,2.43,5.75,3.62,8.64,1.59,3.87,3.17,7.75,4.72,11.63.6,1.51,1.12,3.05,1.71,4.57.09.22.41.55.56.52.24-.05.51-.32.61-.56,1.66-4.12,3.29-8.25,4.93-12.38,2.48-6.25,5.03-12.48,7.43-18.77,1.92-5.03,3.83-10.07,5.45-15.2.9-2.85.8-5.82-1.11-8.45-1.53-2.11-3.73-2.74-6.16-2.8-1-.02-1.06-.05-.98-1.05.05-.58.05-1.19-.05-1.76-.11-.66.05-.93.75-.93,8.25.05,16.49.08,24.74.11.22,0,.44,0,.66-.03,1.42-.14,1.41-.14,1.33,1.25-.04.71.19,1.61-.16,2.09-.3.41-1.27.27-1.9.49-1.91.69-3.5,1.83-4.92,3.32-2.61,2.72-3.69,6.22-5.03,9.58-1.69,4.21-3.23,8.49-4.95,12.68-2.24,5.44-4.62,10.83-6.9,16.25-1.69,4.04-3.28,8.13-4.96,12.18-1.87,4.51-3.81,8.99-5.7,13.49-1.84,4.38-3.66,8.78-5.49,13.16-.26.63-.5,1.28-.83,1.88-.11.21-.47.4-.71.4-2.98.02-5.96.03-8.94-.04-.32,0-.79-.41-.93-.73-1.43-3.34-2.82-6.69-4.18-10.05-1.39-3.42-2.73-6.86-4.11-10.28-2.17-5.4-4.35-10.8-6.53-16.2-2.65-6.56-5.31-13.12-7.94-19.69-2.4-5.99-4.77-11.98-7.14-17.98-1.25-3.16-3.33-5.6-6.58-6.68-4.15-1.37-6.93-1.13-10.31,2.05-1.24,1.16-2.1,2.82-2.85,4.39-1.25,2.59-2.3,5.28-3.38,7.94-1.73,4.27-3.41,8.55-5.11,12.83-1.67,4.22-3.32,8.44-4.99,12.66-1.59,3.98-3.21,7.95-4.79,11.93-2.12,5.32-4.23,10.65-6.32,15.98-.87,2.21-1.64,4.47-2.51,6.68-1.3,3.29-2.68,6.54-3.99,9.83-1.41,3.55-2.71,7.14-4.2,10.66-1.59,3.74-3.21,7.47-5.07,11.08-1.32,2.58-2.86,5.09-4.63,7.38-3.5,4.52-7.91,7.76-13.61,9.12-3.02.72-6.06.72-9.06.3-2.52-.35-4.79-1.55-6.34-3.69-.51-.71-.87-1.62-1-2.49-.73-4.85,1.76-8.16,5.81-10.09,1.93-.92,3.99-1.26,6.1-1.3.3,0,.71.23.89.48.4.56.63,1.23,1.02,1.79,1.44,2.01,3.61,2.61,6.18,1.95,3.42-.87,5.9-3.02,8.18-5.55,2.01-2.24,3.49-4.84,4.75-7.52,1.74-3.7,3.34-7.49,4.07-11.56.11-.63-.02-1.4-.28-2-1.34-3.03-2.8-6.02-4.16-9.04-1.7-3.77-3.35-7.55-5.02-11.33-2.15-4.87-4.28-9.74-6.43-14.61-1.68-3.81-3.38-7.61-5.05-11.42-3.65-8.31-7.26-16.64-10.96-24.93-1.09-2.45-2.21-4.93-3.71-7.14-2.14-3.16-5.23-5.19-9.02-5.98-.84-.18-1.18-.48-.97-1.41.15-.67.03-1.41.03-2.2Z"/>
        <path class="cls-3" d="m586.31,126.33c-1.93.35-3.77.67-5.6,1.01-3.29.6-6.58,1.22-9.87,1.82-1.23.22-2.47.4-3.71.62-.64.11-.72-.22-.76-.74-.26-3.67.55-7.13,2.29-10.32,3.13-5.76,7.88-9.91,13.49-13.15,3.19-1.84,6.54-3.25,10.09-4.25,6.48-1.82,12.96-1.78,19.54-.62,3.96.7,7.59,2.11,11.02,4.1,4.22,2.46,7.52,5.86,9.57,10.31,1.79,3.88,2.27,8.04,2.27,12.29,0,14.8.01,29.61.03,44.41,0,.63.05,1.25.09,1.88.32,4.76,2.91,7.37,7.69,7.46,1.43.03,2.89-.41,4.29-.8,1.09-.3,1.26-.27,1.25.88,0,.62.04,1.25,0,1.87-.01.2-.16.48-.33.58-3.02,1.71-6.08,3.4-9.44,4.33-5.4,1.5-10.85,1.87-16.29.11-5.29-1.71-7.85-5.61-8.71-10.86-.14-.84-.1-1.7-.37-2.7-.25.3-.54.56-.73.89-.98,1.75-1.92,3.54-3.55,4.79-3.57,2.74-7.38,5.03-11.64,6.56-5.16,1.85-10.48,2.47-15.9,2.03-3.16-.26-6.17-1.21-9.02-2.69-3.51-1.82-6.29-4.35-7.97-7.94-1.84-3.94-2.65-8.08-1.92-12.43.98-5.86,4.24-10.3,8.9-13.77,5.19-3.87,10.97-6.68,17.05-8.82,5.01-1.76,10.07-3.4,15.15-4.97,2.48-.77,5.04-1.26,7.56-1.89.45-.11.93-.22,1.33-.45.24-.14.49-.51.49-.77-.02-4.33-.07-8.65-.12-12.98-.03-2.36-.14-4.73-1.21-6.88-3.22-6.43-9.67-9.1-16.24-7.95-3.57.62-5.79,3.06-7.76,5.8-1.38,1.92-2.34,4.06-2.43,6.42-.08,2.03-.12,4.14,1.06,5.98.16.25.27.54.42.83Zm8.15,51.42c7.01-.28,12.48-3.19,16.68-8.49.94-1.19,1.55-2.45,1.52-4.17-.15-7.21-.06-14.42-.06-21.63,0-.62-.25-.86-.87-.73-.49.1-.99.12-1.48.2-2.58.44-5.21.72-7.73,1.4-2.28.62-4.46,1.64-6.64,2.58-4.82,2.09-8.89,4.98-11.23,9.98-2.31,4.94-2.2,9.8-.03,14.61,1.9,4.22,5.53,6.01,9.84,6.24Z"/>
        <path class="cls-3" d="m748.38,223.94c.17-1.57.16-1.59-1.39-1.6-.09,0-.19,0-.28,0-5.95-.11-10.49-4.21-10.91-10.14-.24-3.31-.06-6.64-.05-9.96.02-7.37.06-14.74.06-22.11,0-14.3,0-28.61-.03-42.91-.02-11.7-.09-23.39-.14-35.09,0-.61.05-1.22.09-1.99-.45.13-.82.18-1.13.34-1.71.92-3.36,1.93-5.1,2.78-2.61,1.28-5.29,2.42-7.89,3.71-.74.37-1.3.4-2,0-3.06-1.77-6.12-3.55-9.5-4.67-3.16-1.05-6.37-1.85-9.69-2.18-5.77-.56-11.49-.4-17.18.91-3.79.87-7.45,2.08-10.82,3.94-6.33,3.51-11.26,8.56-14.94,14.77-3.17,5.35-5.31,11.14-6.33,17.28-1.12,6.8-.92,13.62.2,20.41,1.11,6.71,3.11,13.09,6.98,18.78,3.64,5.37,8.56,9.12,14.61,11.32,4.72,1.72,9.69,2.27,14.69,2.32,5.84.06,11.44-1.25,16.81-3.46,3.78-1.55,7.31-3.56,10.11-6.65.05-.06.17-.05.36-.1.04.26.11.49.11.72-.01,2.91-.04,5.83-.06,8.74-.03,4.08-.08,8.15-.08,12.23,0,4.52.14,9.03.09,13.55-.02,2.21-.84,4.19-2.67,5.57-2.24,1.68-4.69,2.86-7.56,3.02-.23.01-.61.41-.63.65-.05.78-.01,1.57.08,2.34.03.23.37.62.56.62,2.69-.07,5.38-.29,8.07-.3,8.81-.04,17.63-.02,26.44-.02,3.01,0,6.01,0,9.18,0-.04-.54-.1-.97-.11-1.4-.01-.47-.01-.94.04-1.4Zm-37.94-49.39c-2.66,2.53-5.97,3.52-9.43,4.04-4.18.63-8.3.31-12.25-1.4-2.89-1.25-5.27-3.17-7.58-5.28-3-2.74-5.27-5.95-6.8-9.68-1.31-3.19-2.18-6.51-2.74-9.93-.86-5.27-.77-10.57-.29-15.84.38-4.1.87-8.21,2.54-12.08,1.58-3.65,3.61-6.99,6-10.15,1.57-2.07,3.28-3.96,5.51-5.31,2.33-1.42,4.85-2.33,7.58-2.56,6.76-.57,12.64,1.6,17.86,5.77,1.61,1.29,2.8,2.95,3.68,4.81.2.43.25.97.26,1.45.02,7.93.01,15.87.01,23.8h.04c0,7.62-.03,15.24.01,22.86.02,3.88-1.67,6.89-4.41,9.49Z"/>
      </g>
      <text class="cls-4" transform="translate(297.11 264.61)"><tspan x="0" y="0">Confidence, carried with you</tspan></text>
    </g>
    <path class="cls-3" d="m780.17,80.22v5.32h-10.29v26.84h-6.39v-26.84h-10.29v-5.32h26.96Zm34.77,32.17l-1.18-18.92c-.12-2.48-.12-5.56-.24-8.99h-.36c-.83,2.84-1.77,6.62-2.72,9.58l-5.79,17.86h-6.62l-5.79-18.33c-.59-2.48-1.54-6.27-2.25-9.11h-.36c0,2.96-.12,6.03-.24,8.99l-1.18,18.92h-6.15l2.37-32.17h9.58l5.56,15.73c.71,2.48,1.3,4.85,2.13,8.16h.12c.83-2.96,1.54-5.68,2.25-8.04l5.56-15.85h9.22l2.48,32.17h-6.39Z"/>
  </g>
</svg>