<?xml version="1.0" encoding="UTF-8"?>
<svg id="Layer_1" data-name="Layer 1" xmlns="http://www.w3.org/2000/svg" xmlns:xlink="http://www.w3.org/1999/xlink" viewBox="0 0 846 303.5">
  <defs>
    <style>
      .cls-1 {
        fill: url(#New_Gradient_Swatch_2-2);
      }

      .cls-2 {
        fill: url(#linear-gradient-2);
      }

      .cls-3 {
        fill: #441a45;
        opacity: .5;
      }

      .cls-4 {
        fill: #141039;
      }

      .cls-5 {
        fill: url(#New_Gradient_Swatch_2);
      }

      .cls-6 {
        fill: #e98973;
      }

      .cls-7 {
        fill: url(#New_Gradient_Swatch_3-2);
      }

      .cls-8 {
        fill: url(#New_Gradient_Swatch_3);
      }

      .cls-9 {
        fill: url(#New_Gradient_Swatch_2-3);
      }

      .cls-10 {
        fill: #f5a889;
      }

      .cls-11 {
        fill: url(#linear-gradient-3);
      }

      .cls-12 {
        fill: url(#linear-gradient);
      }
    </style>
    <linearGradient id="New_Gradient_Swatch_2" data-name="New Gradient Swatch 2" x1="72.61" y1="188.14" x2="72.61" y2="159.03" gradientUnits="userSpaceOnUse">
      <stop offset="0" stop-color="#441a45" stop-opacity=".5"/>
      <stop offset=".99" stop-color="#6e244c"/>
    </linearGradient>
    <linearGradient id="linear-gradient" x1="106.44" y1="221.85" x2="106.44" y2="123.95" gradientUnits="userSpaceOnUse">
      <stop offset="0" stop-color="#441a45" stop-opacity=".5"/>
      <stop offset="1" stop-color="#6e244c"/>
    </linearGradient>
    <linearGradient id="linear-gradient-2" x1="151.5" y1="249.17" x2="151.5" y2="131.08" gradientUnits="userSpaceOnUse">
      <stop offset="0" stop-color="#441a45" stop-opacity=".2"/>
      <stop offset=".99" stop-color="#6e244c"/>
    </linearGradient>
    <linearGradient id="New_Gradient_Swatch_2-2" data-name="New Gradient Swatch 2" x1="228.01" x2="228.01" y2="151.18" xlink:href="#New_Gradient_Swatch_2"/>
    <linearGradient id="New_Gradient_Swatch_2-3" data-name="New Gradient Swatch 2" x1="201.6" y1="181" x2="201.6" y2="98.03" xlink:href="#New_Gradient_Swatch_2"/>
    <linearGradient id="linear-gradient-3" x1="152.38" y1="196.97" x2="152.38" y2="61.87" gradientUnits="userSpaceOnUse">
      <stop offset="0" stop-color="#441a45"/>
      <stop offset=".07" stop-color="#592145"/>
      <stop offset=".23" stop-color="#883048"/>
      <stop offset=".39" stop-color="#af3d49"/>
      <stop offset=".55" stop-color="#cd474b"/>
      <stop offset=".7" stop-color="#e24e4c"/>
      <stop offset=".85" stop-color="#ef524c"/>
      <stop offset=".99" stop-color="#f4544d"/>
    </linearGradient>
    <linearGradient id="New_Gradient_Swatch_3" data-name="New Gradient Swatch 3" x1="110.59" y1="251.12" x2="110.59" y2="214.53" gradientUnits="userSpaceOnUse">
      <stop offset="0" stop-color="#6e244c" stop-opacity=".5"/>
      <stop offset=".99" stop-color="#f56a5d"/>
    </linearGradient>
    <linearGradient id="New_Gradient_Swatch_3-2" data-name="New Gradient Swatch 3" x1="192.52" x2="192.52" y2="214.63" xlink:href="#New_Gradient_Swatch_3"/>
  </defs>
  <g>
    <path class="cls-4" d="m250.25,141.26c.12,10.28.34,20.59-.77,30.81-1.64,15.1-6.94,28.99-15.84,41.31-3.29,4.58-7.09,8.78-11.17,12.67-8.06,7.69-17.19,14.15-26.51,20.2-7.54,4.9-15.21,9.59-23.01,14.06-6.01,3.45-12.84,9.34-19.92,10.02-2.47.24-4.82-1-7-2.2-17.78-9.8-35.56-19.51-51.76-31.83-6.36-4.83-12.27-10.08-17.51-15.83-8.9-9.8-15.8-21.1-19.45-34.43-4.52-16.45-2.81-33.8-2.63-50.66.19-18.22.36-36.46-.45-54.66-.09-2.09.36-4.45,2.09-5.64,2.01-1.38,5.14-2.21,7.39-3.32,2.86-1.41,5.75-2.75,8.66-4.05,5.65-2.55,11.37-4.96,17.02-7.5,18.86-8.44,37.68-16.94,56.43-25.63,1.02-.47,2.05-.95,3.14-1.21,3.57-.86,7.24.68,10.59,2.18,23.97,10.72,48.17,21.06,71.89,32.33,5.38,2.56,10.91,4.81,16.38,7.16.55.23,1.13.49,1.52.95.36.42.53.95.65,1.48.68,2.74.25,5.39.23,8.16-.04,6.24-.08,12.48-.1,18.72-.05,12.29-.04,24.59.11,36.89Z"/>
    <g>
      <polygon class="cls-5" points="60.41 188.14 60.41 159.03 84.81 159.03 84.81 181.29 60.41 188.14"/>
      <rect class="cls-12" x="90.88" y="123.95" width="31.12" height="97.9"/>
      <rect class="cls-2" x="135.62" y="131.08" width="31.77" height="118.09"/>
      <rect class="cls-1" x="216.01" y="151.18" width="23.99" height="36.96"/>
      <g>
        <polygon class="cls-9" points="211.12 98.03 211.12 114.91 186.95 129.31 186.95 131.08 186.95 169.37 216.25 181 216.25 131.08 216.25 98.03 211.12 98.03"/>
        <polygon class="cls-3" points="181 177.11 181 252.7 216.25 228.47 216.01 190.08 181 177.11"/>
      </g>
      <path class="cls-11" d="m244.75,187.36c-15.34-3.18-30.62-7.44-45.41-12.64-3.27-1.15-7.11-2.55-10.84-4.23-10.31-4.63-19.85-11.42-27.6-19.64-1.65-1.76-4.34-4.1-5.92-6.81h.08v-29.93c12.74-1.81,22.53-12.75,22.53-25.99,0-14.5-11.76-26.26-26.26-26.26s-26.26,11.76-26.26,26.26c0,13.57,10.3,24.74,23.5,26.11v29.73c-.11.12-.2.24-.27.37-5.57,10.75-18.92,18.95-26.38,22.88-7.92,4.17-16.59,7.01-24.97,9.75l-6.23,2.04c-9.66,3.16-19.64,6.42-29.78,8.4-.96.19-1.61.62-1.95,1.28-.71,1.38.16,3.29,1.01,5.13.37.81.73,1.58.87,2.17.15.61.61.98,1.23.98.17,0,.35-.03.55-.08,2.91-.81,5.82-1.6,8.72-2.38,8.45-2.28,17.19-4.64,25.64-7.65,6.9-2.46,13.78-5.24,20.45-8.27,3.9-1.77,8.49-3.95,12.87-6.68,4.42-2.75,8.76-6.15,12.88-10.1,1.85-1.77,3.51-3.69,5.13-5.55,1.08-1.25,2.2-2.54,3.35-3.76.26-.27.35-.3.37-.3.04,0,.12.07.33.3l.48.56c2.66,3.08,5.41,6.26,8.42,9.14,1.67,1.6,3.37,3.09,5.06,4.44.21.17.7.48,1.53,1.02,1.08.69,3.26,2.09,3.73,2.6v.19l.3.19c8.58,5.51,18.01,9.43,25.28,12.24,3.62,1.4,35.62,13.66,43.72,13.66h.01c.49,0,1.91,0,2.3-.98.78-1.96,1.47-4,2.13-5.96l.67-1.98-1.28-.26Z"/>
      <g>
        <rect class="cls-10" x="193.32" y="141.13" width="5.84" height="5.19"/>
        <rect class="cls-10" x="203.7" y="141.13" width="5.84" height="5.19"/>
        <rect class="cls-10" x="194.62" y="158.96" width="3.89" height="5.84"/>
        <rect class="cls-10" x="225.09" y="163.5" width="4.54" height="6.48"/>
      </g>
      <g>
        <rect class="cls-10" x="157.66" y="175.17" width="3.24" height="4.54"/>
        <rect class="cls-10" x="157.01" y="188.14" width="4.54" height="3.89"/>
        <rect class="cls-10" x="145.99" y="192.03" width="3.24" height="3.89"/>
        <rect class="cls-10" x="146.64" y="210.83" width="2.59" height="3.89"/>
      </g>
      <g>
        <rect class="cls-10" x="110.33" y="151.83" width="3.89" height="4.54"/>
        <rect class="cls-10" x="97.36" y="166.09" width="3.89" height="3.24"/>
        <rect class="cls-10" x="109.68" y="136.27" width="5.19" height="5.19"/>
        <rect class="cls-10" x="96.07" y="136.27" width="4.54" height="5.84"/>
      </g>
      <rect class="cls-10" x="74.02" y="168.68" width="3.89" height="5.84"/>
      <g>
        <rect class="cls-8" x="107.48" y="214.53" width="6.22" height="36.59"/>
        <ellipse class="cls-10" cx="110.59" cy="208.19" rx="7.13" ry="7.74"/>
      </g>
      <circle class="cls-10" cx="151.34" cy="88.13" r="10.37"/>
      <g>
        <rect class="cls-7" x="189.41" y="214.63" width="6.22" height="36.49"/>
        <ellipse class="cls-10" cx="192.52" cy="208.17" rx="7.13" ry="7.72"/>
      </g>
    </g>
    <path class="cls-6" d="m256.74,141.18c-.13-10.79-.16-22.48-.11-36.79.03-6.23.06-12.47.1-18.7,0-.62.04-1.28.07-1.97.1-2.29.23-4.88-.49-7.79-.27-1.08-.77-2.69-2.04-4.16-1.38-1.61-3.01-2.31-3.89-2.68-1.3-.56-2.61-1.11-3.92-1.67-4.06-1.71-8.25-3.49-12.23-5.38-16.72-7.96-33.93-15.54-50.57-22.88-7.04-3.11-14.32-6.32-21.46-9.51-3.38-1.52-7.03-3-11.1-3-1.24,0-2.46.14-3.63.42-1.74.41-3.2,1.09-4.38,1.63-20.09,9.32-39.76,18.17-56.35,25.6-2.68,1.2-5.43,2.4-8.1,3.55-2.92,1.28-5.96,2.6-8.94,3.94-3.43,1.54-6.25,2.87-8.86,4.15-.61.3-1.46.63-2.35.98-1.87.72-3.98,1.54-5.84,2.81-3.33,2.28-5.11,6.39-4.9,11.27.83,18.5.63,37.52.45,54.31-.03,3.25-.13,6.62-.22,9.87-.4,13.98-.8,28.42,3.08,42.58,3.66,13.35,10.7,25.82,20.91,37.07,5.25,5.79,11.26,11.24,18.37,16.64,16.12,12.25,33.85,22.03,51.01,31.49l1.55.86c2.19,1.21,5.5,3.03,9.5,3.03.42,0,.84-.02,1.25-.06,6.81-.66,12.74-4.55,17.97-7.99,1.61-1.06,3.14-2.06,4.55-2.87,7.86-4.51,15.7-9.3,23.32-14.25,8.53-5.54,18.46-12.36,27.45-20.94,4.62-4.4,8.64-8.97,11.96-13.57,9.52-13.21,15.26-28.15,17.02-44.41,1.08-9.93.96-19.9.84-29.55l-.03-2.04Zm-6.48.08c.12,10.28.34,20.59-.77,30.81-1.64,15.1-6.94,28.99-15.84,41.31-3.29,4.58-7.09,8.78-11.17,12.67-8.06,7.69-17.19,14.15-26.51,20.2-7.54,4.9-15.21,9.59-23.01,14.06-6.01,3.45-12.84,9.34-19.92,10.02-2.47.24-4.82-1-7-2.2-17.78-9.8-35.56-19.51-51.76-31.83-6.36-4.83-12.27-10.08-17.51-15.83-8.9-9.8-15.8-21.1-19.45-34.43-4.52-16.45-2.81-33.8-2.63-50.66.19-18.22.36-36.46-.45-54.66-.09-2.09.36-4.45,2.09-5.64,2.01-1.38,5.14-2.21,7.39-3.32,2.86-1.41,5.75-2.75,8.66-4.05,5.65-2.55,11.37-4.96,17.02-7.5,18.86-8.44,37.68-16.94,56.43-25.63,1.02-.47,2.05-.95,3.14-1.21,3.57-.86,7.24.68,10.59,2.18,23.97,10.72,48.17,21.06,71.89,32.33,5.38,2.56,10.91,4.81,16.38,7.16.55.23,1.13.49,1.52.95.36.42.53.95.65,1.48.68,2.74.25,5.39.23,8.16-.04,6.24-.08,12.48-.1,18.72-.05,12.29-.04,24.59.11,36.89Z"/>
  </g>
  <g>
    <path class="cls-6" d="m377.72,164.29c-.49-4.66-1.62-9.08-4.13-13.07-3.59-5.72-8.81-9.64-14.62-12.79-4.13-2.24-8.4-4.23-12.6-6.35-4.01-2.02-8.03-4.03-12.02-6.09-2.87-1.48-5.63-3.15-8.12-5.24-3.84-3.22-6.42-7.19-7.27-12.16-.62-3.7-.49-7.41.78-10.99,1.06-2.99,2.86-5.42,5.6-7.11,2.8-1.73,5.82-2.7,9.1-3,4-.38,7.85.2,11.57,1.57,2.78,1.03,5.24,2.6,7.43,4.71,3.1,3,5.56,6.39,6.98,10.44,1.27,3.63,2.26,7.37,3.36,11.06.19.62.14,1.52.54,1.82.42.31,1.26.07,1.92.07.09,0,.18,0,.27,0,.54.03.73-.2.73-.76-.01-4.62.04-9.24.01-13.86-.02-4.23-.1-8.46-.15-12.69,0-.97-.27-1.81-1.19-2.27-3.6-1.77-7.33-3.26-11.21-4.29-4-1.06-8.09-1.68-12.22-2.01-6.35-.51-12.56.14-18.61,2.04-4.42,1.39-8.62,3.39-12.24,6.32-2.1,1.7-4.1,3.6-5.76,5.73-3.02,3.89-4.53,8.48-5.2,13.34-.98,7.11-.68,14.02,2.32,20.75,2.43,5.45,6.24,9.51,11.24,12.5,3.56,2.14,7.24,4.1,10.91,6.04,2.6,1.38,5.29,2.62,7.95,3.9,3.01,1.46,6.05,2.86,9.04,4.38,1.88.95,3.71,2,5.51,3.1,1.7,1.03,3.49,2,4.94,3.32,3.15,2.89,5.4,6.43,6.17,10.72.7,3.92.49,7.78-1.12,11.54-1.31,3.07-3.17,5.71-5.8,7.72-2.28,1.75-4.84,2.99-7.61,3.88-4.5,1.44-9.01,1.37-13.61.76-4.7-.62-8.77-2.66-12.33-5.63-2.76-2.28-5.33-4.81-7.81-7.4-1.94-2.03-3.41-4.47-4.47-7.08-1.59-3.94-2.96-7.96-3.74-12.16-.04-.23-.41-.55-.65-.57-1.16-.06-2.34-.03-3.52-.03-.04.27-.08.41-.08.56.06,10.45.12,20.91.23,31.36,0,.37.45.87.83,1.09.73.42,1.54.69,2.32,1,2.83,1.1,5.61,2.38,8.51,3.25,3.6,1.08,7.27,1.99,10.96,2.65,3.14.56,6.35.86,9.54.94,3.28.08,6.57-.21,9.85-.42,4.17-.27,8.26-1.07,12.21-2.4,3.36-1.13,6.62-2.54,9.67-4.45,3.33-2.08,6.37-4.36,8.88-7.45,3.74-4.62,5.58-9.97,6.5-15.68.56-3.49.59-7.03.22-10.57Z"/>
    <path class="cls-6" d="m377.89,119.13c1.13,0,2.33,0,3.52,0,6.28.02,12.57.07,18.85.06,6.34,0,12.69-.05,19.03-.11.61,0,.83.16.79.75-.04.6-.07,1.21-.06,1.81,0,1.18,0,1.07-1.12,1.22-1.45.2-2.95.41-4.29.95-2.74,1.08-3.01,2.45-2.81,5.02.15,1.86.76,3.63,1.56,5.35.97,2.07,1.69,4.24,2.57,6.35,1,2.39,2.07,4.75,3.09,7.13,1.37,3.18,2.71,6.37,4.08,9.54,1.01,2.32,2.08,4.62,3.07,6.94.92,2.16,1.77,4.35,2.67,6.52.87,2.08,1.79,4.14,2.67,6.22.14.32.12.7.22,1.04.06.21.19.4.29.6.18-.16.46-.28.54-.48.97-2.34,1.94-4.68,2.85-7.04,1.89-4.89,3.76-9.79,5.61-14.7,1.3-3.47,2.6-6.94,3.82-10.44,1.13-3.24,2.2-6.51,3.2-9.8.47-1.55.83-3.16,1.07-4.76.5-3.28-1.54-6.16-4.51-7.53-1.19-.55-2.6-.67-3.92-.91-.54-.1-.94-.18-.92-.84.02-.72.03-1.44,0-2.15-.02-.56.13-.81.76-.81,12.2.05,24.41.1,36.61.11,9.33.01,18.67-.02,28-.03.42,0,.85.06,1.26,0,.92-.13,1.01-.06.93.83-.04.51-.05,1.02,0,1.53.07.74-.07,1.05-.96,1.06-2.75.03-5.61,1.75-6.19,4.17-.32,1.32-.22,2.83.05,4.18,1.02,4.97,3.29,9.49,5.24,14.13,1.3,3.08,2.57,6.17,3.86,9.25,1.16,2.78,2.34,5.54,3.49,8.32,1.53,3.73,3.05,7.46,4.55,11.2.58,1.45,1.08,2.94,1.64,4.4.08.22.39.53.54.5.23-.05.49-.31.59-.54,1.6-3.97,3.17-7.94,4.75-11.92,2.39-6.02,4.84-12.02,7.16-18.08,1.85-4.84,3.68-9.7,5.25-14.64.87-2.75.77-5.61-1.07-8.14-1.48-2.03-3.59-2.64-5.93-2.69-.96-.02-1.02-.05-.95-1.01.05-.56.05-1.14-.05-1.7-.1-.63.05-.9.72-.9,7.94.04,15.88.08,23.83.11.21,0,.42,0,.63-.03,1.37-.14,1.36-.14,1.29,1.2-.04.69.18,1.55-.16,2.01-.28.39-1.23.26-1.83.48-1.84.66-3.37,1.77-4.74,3.2-2.52,2.62-3.55,5.99-4.85,9.22-1.62,4.06-3.11,8.17-4.77,12.22-2.16,5.24-4.45,10.43-6.64,15.66-1.63,3.89-3.16,7.83-4.77,11.73-1.8,4.34-3.67,8.66-5.49,12.99-1.77,4.22-3.52,8.45-5.29,12.68-.25.61-.48,1.24-.8,1.82-.11.2-.45.39-.68.39-2.87.02-5.74.02-8.61-.04-.31,0-.76-.39-.89-.71-1.37-3.21-2.71-6.44-4.03-9.68-1.34-3.29-2.63-6.6-3.96-9.9-2.09-5.2-4.19-10.4-6.29-15.6-2.55-6.32-5.11-12.64-7.64-18.96-2.31-5.77-4.59-11.54-6.88-17.31-1.21-3.04-3.2-5.4-6.34-6.43-4-1.32-6.67-1.09-9.93,1.97-1.19,1.12-2.02,2.72-2.75,4.22-1.2,2.49-2.21,5.08-3.25,7.65-1.66,4.11-3.29,8.24-4.92,12.36-1.61,4.06-3.2,8.13-4.81,12.19-1.53,3.83-3.09,7.65-4.62,11.49-2.04,5.13-4.07,10.25-6.08,15.39-.83,2.13-1.58,4.3-2.42,6.43-1.25,3.16-2.58,6.3-3.84,9.46-1.36,3.42-2.61,6.88-4.04,10.26-1.53,3.6-3.1,7.2-4.88,10.67-1.27,2.48-2.75,4.9-4.46,7.11-3.37,4.35-7.62,7.48-13.11,8.78-2.91.69-5.83.7-8.72.29-2.43-.34-4.62-1.49-6.11-3.55-.49-.68-.84-1.56-.96-2.4-.7-4.67,1.69-7.86,5.59-9.72,1.85-.88,3.84-1.22,5.88-1.25.29,0,.68.22.86.46.38.54.6,1.19.99,1.72,1.38,1.93,3.48,2.51,5.95,1.88,3.29-.84,5.68-2.91,7.87-5.35,1.94-2.16,3.36-4.66,4.57-7.24,1.68-3.56,3.21-7.22,3.92-11.13.11-.61-.02-1.35-.27-1.92-1.29-2.92-2.69-5.79-4.01-8.71-1.64-3.63-3.23-7.27-4.83-10.91-2.07-4.69-4.12-9.38-6.19-14.07-1.62-3.67-3.26-7.33-4.87-11-3.52-8.01-6.99-16.03-10.56-24.02-1.05-2.36-2.13-4.75-3.57-6.88-2.06-3.04-5.03-4.99-8.69-5.76-.81-.17-1.13-.46-.93-1.35.15-.65.03-1.36.03-2.12Z"/>
    <path class="cls-6" d="m576.09,143.71c-1.86.34-3.63.65-5.4.97-3.17.58-6.34,1.18-9.51,1.75-1.19.22-2.38.38-3.57.6-.61.11-.7-.22-.73-.71-.26-3.54.53-6.87,2.2-9.94,3.02-5.54,7.59-9.54,12.99-12.67,3.07-1.77,6.3-3.13,9.72-4.1,6.24-1.75,12.48-1.71,18.82-.6,3.81.67,7.31,2.03,10.61,3.95,4.07,2.37,7.24,5.64,9.22,9.93,1.72,3.74,2.19,7.75,2.19,11.83,0,14.26.01,28.52.03,42.77,0,.6.05,1.21.09,1.81.31,4.58,2.8,7.09,7.4,7.19,1.38.03,2.79-.39,4.14-.77,1.05-.29,1.22-.26,1.21.85,0,.6.03,1.2,0,1.8-.01.2-.16.46-.32.56-2.91,1.65-5.85,3.27-9.09,4.17-5.2,1.44-10.45,1.8-15.69.1-5.09-1.64-7.56-5.4-8.39-10.46-.13-.81-.1-1.64-.36-2.6-.24.29-.52.54-.7.86-.94,1.69-1.85,3.41-3.42,4.62-3.44,2.64-7.1,4.85-11.21,6.32-4.97,1.78-10.1,2.38-15.31,1.96-3.04-.25-5.94-1.17-8.69-2.59-3.38-1.75-6.06-4.19-7.68-7.65-1.77-3.79-2.55-7.79-1.85-11.97.94-5.65,4.08-9.92,8.57-13.26,5-3.72,10.56-6.43,16.42-8.5,4.83-1.7,9.7-3.27,14.59-4.79,2.39-.74,4.86-1.21,7.28-1.82.44-.11.9-.21,1.28-.43.23-.13.47-.49.47-.74-.02-4.17-.07-8.33-.12-12.5-.03-2.28-.13-4.56-1.17-6.63-3.1-6.19-9.32-8.76-15.64-7.66-3.44.6-5.57,2.94-7.47,5.59-1.32,1.85-2.25,3.92-2.34,6.19-.07,1.96-.11,3.98,1.02,5.76.15.24.26.52.4.8Zm7.85,49.53c6.76-.27,12.02-3.07,16.07-8.18.91-1.15,1.5-2.36,1.46-4.02-.14-6.94-.06-13.89-.05-20.83,0-.6-.24-.83-.84-.71-.47.09-.96.12-1.43.2-2.49.43-5.02.69-7.45,1.35-2.19.6-4.29,1.58-6.39,2.49-4.65,2.02-8.56,4.8-10.82,9.62-2.23,4.76-2.12,9.44-.03,14.07,1.83,4.07,5.33,5.79,9.48,6.01Z"/>
    <path class="cls-6" d="m732.19,237.72c.16-1.51.15-1.53-1.33-1.54-.09,0-.18,0-.27,0-5.73-.11-10.1-4.05-10.51-9.77-.23-3.18-.06-6.4-.05-9.6.02-7.1.06-14.2.06-21.3,0-13.78,0-27.55-.03-41.33-.02-11.27-.09-22.53-.13-33.8,0-.59.05-1.18.09-1.91-.43.13-.79.17-1.09.33-1.64.88-3.24,1.86-4.91,2.68-2.51,1.24-5.09,2.33-7.6,3.57-.71.35-1.25.39-1.93,0-2.95-1.7-5.89-3.42-9.15-4.5-3.04-1.01-6.14-1.79-9.33-2.1-5.56-.54-11.07-.39-16.55.87-3.65.84-7.18,2-10.42,3.8-6.1,3.38-10.85,8.24-14.39,14.22-3.05,5.16-5.12,10.73-6.09,16.65-1.08,6.55-.89,13.12.19,19.66,1.07,6.46,3,12.6,6.72,18.09,3.51,5.17,8.25,8.78,14.07,10.9,4.55,1.65,9.33,2.19,14.15,2.24,5.62.06,11.01-1.21,16.19-3.33,3.64-1.5,7.04-3.43,9.74-6.4.05-.05.16-.05.34-.1.04.25.11.47.11.69-.01,2.81-.04,5.61-.06,8.42-.03,3.93-.08,7.85-.07,11.78,0,4.35.13,8.7.09,13.05-.02,2.13-.81,4.04-2.57,5.36-2.16,1.61-4.52,2.76-7.28,2.91-.22.01-.59.39-.61.63-.05.75-.01,1.51.08,2.25.03.23.36.6.54.59,2.59-.07,5.18-.28,7.77-.29,8.49-.04,16.98-.02,25.47-.02,2.9,0,5.79,0,8.84,0-.04-.52-.1-.94-.11-1.35-.01-.45-.01-.9.04-1.35Zm-36.54-47.57c-2.57,2.44-5.75,3.39-9.08,3.89-4.02.6-8,.3-11.8-1.35-2.78-1.21-5.08-3.05-7.31-5.09-2.89-2.64-5.08-5.73-6.55-9.32-1.26-3.07-2.1-6.27-2.63-9.56-.83-5.08-.75-10.18-.27-15.26.37-3.94.84-7.91,2.45-11.63,1.52-3.51,3.48-6.73,5.78-9.78,1.51-2,3.16-3.81,5.31-5.11,2.25-1.36,4.68-2.24,7.3-2.47,6.51-.55,12.18,1.54,17.21,5.56,1.55,1.24,2.7,2.84,3.55,4.63.2.41.24.93.25,1.4.01,7.64.01,15.29.01,22.93h.04c0,7.34-.03,14.68.01,22.02.02,3.74-1.61,6.63-4.25,9.14Z"/>
  </g>
  <path class="cls-6" d="m759.25,101.35v5.04h-9.75v25.45h-6.05v-25.45h-9.75v-5.04h25.56Zm32.96,30.49l-1.12-17.94c-.11-2.35-.11-5.27-.22-8.52h-.34c-.78,2.69-1.68,6.28-2.58,9.08l-5.49,16.93h-6.28l-5.49-17.38c-.56-2.35-1.46-5.94-2.13-8.63h-.34c0,2.8-.11,5.72-.22,8.52l-1.12,17.94h-5.83l2.24-30.49h9.08l5.27,14.91c.67,2.35,1.23,4.6,2.02,7.73h.11c.78-2.8,1.46-5.38,2.13-7.62l5.27-15.02h8.74l2.35,30.49h-6.05Z"/>
</svg>