<?xml version="1.0" encoding="UTF-8"?>
<svg id="Layer_1" data-name="Layer 1" xmlns="http://www.w3.org/2000/svg" xmlns:xlink="http://www.w3.org/1999/xlink" viewBox="0 0 846 303.5">
  <defs>
    <style>
      .cls-1 {
        fill: url(#New_Gradient_Swatch_2-2);
      }

      .cls-2 {
        fill: url(#linear-gradient-2);
      }

      .cls-3 {
        fill: #141039;
      }

      .cls-4 {
        fill: url(#linear-gradient-3);
        opacity: .5;
      }

      .cls-5 {
        fill: url(#New_Gradient_Swatch_2);
      }

      .cls-6 {
        fill: #e98973;
      }

      .cls-7 {
        fill: url(#New_Gradient_Swatch_3-2);
      }

      .cls-8 {
        fill: url(#New_Gradient_Swatch_3);
      }

      .cls-9 {
        fill: url(#New_Gradient_Swatch_2-3);
      }

      .cls-10 {
        fill: #f5a889;
      }

      .cls-11 {
        fill: url(#linear-gradient);
      }

      .cls-12 {
        fill: url(#linear-gradient-4);
      }
    </style>
    <linearGradient id="New_Gradient_Swatch_2" data-name="New Gradient Swatch 2" x1="72.83" y1="188.25" x2="72.83" y2="159.05" gradientUnits="userSpaceOnUse">
      <stop offset="0" stop-color="#441a45" stop-opacity=".5"/>
      <stop offset=".99" stop-color="#6e244c"/>
    </linearGradient>
    <linearGradient id="linear-gradient" x1="106.77" y1="222.07" x2="106.77" y2="123.86" gradientUnits="userSpaceOnUse">
      <stop offset="0" stop-color="#e98973" stop-opacity=".5"/>
      <stop offset="1" stop-color="#6e244c"/>
    </linearGradient>
    <linearGradient id="linear-gradient-2" x1="151.98" y1="249.48" x2="151.98" y2="131.01" gradientUnits="userSpaceOnUse">
      <stop offset="0" stop-color="#e98973" stop-opacity=".2"/>
      <stop offset=".99" stop-color="#6e244c"/>
    </linearGradient>
    <linearGradient id="New_Gradient_Swatch_2-2" data-name="New Gradient Swatch 2" x1="228.72" x2="228.72" y2="151.18" xlink:href="#New_Gradient_Swatch_2"/>
    <linearGradient id="New_Gradient_Swatch_2-3" data-name="New Gradient Swatch 2" x1="202.23" y1="181.1" x2="202.23" y2="97.86" xlink:href="#New_Gradient_Swatch_2"/>
    <linearGradient id="linear-gradient-3" x1="199.25" y1="253.01" x2="199.25" y2="177.19" gradientUnits="userSpaceOnUse">
      <stop offset="0" stop-color="#e98973" stop-opacity=".2"/>
      <stop offset=".99" stop-color="#6e244c"/>
    </linearGradient>
    <linearGradient id="linear-gradient-4" x1="152.86" y1="197.12" x2="152.86" y2="61.58" gradientUnits="userSpaceOnUse">
      <stop offset="0" stop-color="#441a45"/>
      <stop offset=".07" stop-color="#592145"/>
      <stop offset=".23" stop-color="#883048"/>
      <stop offset=".39" stop-color="#af3d49"/>
      <stop offset=".55" stop-color="#cd474b"/>
      <stop offset=".7" stop-color="#e24e4c"/>
      <stop offset=".85" stop-color="#ef524c"/>
      <stop offset=".99" stop-color="#f4544d"/>
    </linearGradient>
    <linearGradient id="New_Gradient_Swatch_3" data-name="New Gradient Swatch 3" x1="110.93" y1="251.43" x2="110.93" y2="214.73" gradientUnits="userSpaceOnUse">
      <stop offset="0" stop-color="#6e244c" stop-opacity=".5"/>
      <stop offset=".99" stop-color="#f56a5d"/>
    </linearGradient>
    <linearGradient id="New_Gradient_Swatch_3-2" data-name="New Gradient Swatch 3" x1="193.13" x2="193.13" y2="214.83" xlink:href="#New_Gradient_Swatch_3"/>
  </defs>
  <g>
    <path class="cls-3" d="m377.57,164.43c-.49-4.66-1.62-9.08-4.13-13.07-3.59-5.72-8.81-9.64-14.62-12.79-4.13-2.24-8.4-4.23-12.6-6.35-4.01-2.02-8.03-4.03-12.02-6.09-2.87-1.48-5.63-3.15-8.12-5.24-3.84-3.22-6.42-7.19-7.27-12.16-.62-3.7-.49-7.41.78-10.99,1.06-2.99,2.86-5.42,5.6-7.11,2.8-1.73,5.82-2.7,9.1-3,4-.38,7.85.2,11.57,1.57,2.78,1.03,5.24,2.6,7.43,4.71,3.1,3,5.56,6.39,6.98,10.44,1.27,3.63,2.26,7.37,3.36,11.06.19.62.14,1.52.54,1.82.42.31,1.26.07,1.92.07.09,0,.18,0,.27,0,.54.03.73-.2.73-.76-.01-4.62.04-9.24.01-13.86-.02-4.23-.1-8.46-.15-12.69,0-.97-.27-1.81-1.19-2.27-3.6-1.77-7.33-3.26-11.21-4.29-4-1.06-8.09-1.68-12.22-2.01-6.35-.51-12.56.14-18.61,2.04-4.42,1.39-8.62,3.39-12.24,6.32-2.1,1.7-4.1,3.6-5.76,5.73-3.02,3.89-4.53,8.48-5.2,13.34-.98,7.11-.68,14.02,2.32,20.75,2.43,5.45,6.24,9.51,11.24,12.5,3.56,2.14,7.24,4.1,10.91,6.04,2.6,1.38,5.29,2.62,7.95,3.9,3.01,1.46,6.05,2.86,9.04,4.38,1.88.95,3.71,2,5.51,3.1,1.7,1.03,3.49,2,4.94,3.32,3.15,2.89,5.4,6.43,6.17,10.72.7,3.92.49,7.78-1.12,11.54-1.31,3.07-3.17,5.71-5.8,7.72-2.28,1.75-4.84,2.99-7.61,3.88-4.5,1.44-9.01,1.37-13.61.76-4.7-.62-8.77-2.66-12.33-5.63-2.76-2.28-5.33-4.81-7.81-7.4-1.94-2.03-3.41-4.47-4.47-7.08-1.59-3.94-2.96-7.96-3.74-12.16-.04-.23-.41-.55-.65-.57-1.16-.06-2.34-.03-3.52-.03-.04.27-.08.41-.08.56.06,10.45.12,20.91.23,31.36,0,.37.45.87.83,1.09.73.42,1.54.69,2.32,1,2.83,1.1,5.61,2.38,8.51,3.25,3.6,1.08,7.27,1.99,10.96,2.65,3.14.56,6.35.86,9.54.94,3.28.08,6.57-.21,9.85-.42,4.17-.27,8.26-1.07,12.21-2.4,3.36-1.13,6.62-2.54,9.67-4.45,3.33-2.08,6.37-4.36,8.88-7.45,3.74-4.62,5.58-9.97,6.5-15.68.56-3.49.59-7.03.22-10.57Z"/>
    <path class="cls-3" d="m377.74,119.26c1.13,0,2.33,0,3.52,0,6.28.02,12.57.07,18.85.06,6.34,0,12.69-.05,19.03-.11.61,0,.83.16.79.75-.04.6-.07,1.21-.06,1.81,0,1.18,0,1.07-1.12,1.22-1.45.2-2.95.41-4.29.95-2.74,1.08-3.01,2.45-2.81,5.02.15,1.86.76,3.63,1.56,5.35.97,2.07,1.69,4.24,2.57,6.35,1,2.39,2.07,4.75,3.09,7.13,1.37,3.18,2.71,6.37,4.08,9.54,1.01,2.32,2.08,4.62,3.07,6.94.92,2.16,1.77,4.35,2.67,6.52.87,2.08,1.79,4.14,2.67,6.22.14.32.12.7.22,1.04.06.21.19.4.29.6.18-.16.46-.28.54-.48.97-2.34,1.94-4.68,2.85-7.04,1.89-4.89,3.76-9.79,5.61-14.7,1.3-3.47,2.6-6.94,3.82-10.44,1.13-3.24,2.2-6.51,3.2-9.8.47-1.55.83-3.16,1.07-4.76.5-3.28-1.54-6.16-4.51-7.53-1.19-.55-2.6-.67-3.92-.91-.54-.1-.94-.18-.92-.84.02-.72.03-1.44,0-2.15-.02-.56.13-.81.76-.81,12.2.05,24.41.1,36.61.11,9.33.01,18.67-.02,28-.03.42,0,.85.06,1.26,0,.92-.13,1.01-.06.93.83-.04.51-.05,1.02,0,1.53.07.74-.07,1.05-.96,1.06-2.75.03-5.61,1.75-6.19,4.17-.32,1.32-.22,2.83.05,4.18,1.02,4.97,3.29,9.49,5.24,14.13,1.3,3.08,2.57,6.17,3.86,9.25,1.16,2.78,2.34,5.54,3.49,8.32,1.53,3.73,3.05,7.46,4.55,11.2.58,1.45,1.08,2.94,1.64,4.4.08.22.39.53.54.5.23-.05.49-.31.59-.54,1.6-3.97,3.17-7.94,4.75-11.92,2.39-6.02,4.84-12.02,7.16-18.08,1.85-4.84,3.68-9.7,5.25-14.64.87-2.75.77-5.61-1.07-8.14-1.48-2.03-3.59-2.64-5.93-2.69-.96-.02-1.02-.05-.95-1.01.05-.56.05-1.14-.05-1.7-.1-.63.05-.9.72-.9,7.94.04,15.88.08,23.83.11.21,0,.42,0,.63-.03,1.37-.14,1.36-.14,1.29,1.2-.04.69.18,1.55-.16,2.01-.28.39-1.23.26-1.83.48-1.84.66-3.37,1.77-4.74,3.2-2.52,2.62-3.55,5.99-4.85,9.22-1.62,4.06-3.11,8.17-4.77,12.22-2.16,5.24-4.45,10.43-6.64,15.66-1.63,3.89-3.16,7.83-4.77,11.73-1.8,4.34-3.67,8.66-5.49,12.99-1.77,4.22-3.52,8.45-5.29,12.68-.25.61-.48,1.24-.8,1.82-.11.2-.45.39-.68.39-2.87.02-5.74.02-8.61-.04-.31,0-.76-.39-.89-.71-1.37-3.21-2.71-6.44-4.03-9.68-1.34-3.29-2.63-6.6-3.96-9.9-2.09-5.2-4.19-10.4-6.29-15.6-2.55-6.32-5.11-12.64-7.64-18.96-2.31-5.77-4.59-11.54-6.88-17.31-1.21-3.04-3.2-5.4-6.34-6.43-4-1.32-6.67-1.09-9.93,1.97-1.19,1.12-2.02,2.72-2.75,4.22-1.2,2.49-2.21,5.08-3.25,7.65-1.66,4.11-3.29,8.24-4.92,12.36-1.61,4.06-3.2,8.13-4.81,12.19-1.53,3.83-3.09,7.65-4.62,11.49-2.04,5.13-4.07,10.25-6.08,15.39-.83,2.13-1.58,4.3-2.42,6.43-1.25,3.16-2.58,6.3-3.84,9.46-1.36,3.42-2.61,6.88-4.04,10.26-1.53,3.6-3.1,7.2-4.88,10.67-1.27,2.48-2.75,4.9-4.46,7.11-3.37,4.35-7.62,7.48-13.11,8.78-2.91.69-5.83.7-8.72.29-2.43-.34-4.62-1.49-6.11-3.55-.49-.68-.84-1.56-.96-2.4-.7-4.67,1.69-7.86,5.59-9.72,1.85-.88,3.84-1.22,5.88-1.25.29,0,.68.22.86.46.38.54.6,1.19.99,1.72,1.38,1.93,3.48,2.51,5.95,1.88,3.29-.84,5.68-2.91,7.87-5.35,1.94-2.16,3.36-4.66,4.57-7.24,1.68-3.56,3.21-7.22,3.92-11.13.11-.61-.02-1.35-.27-1.92-1.29-2.92-2.69-5.79-4.01-8.71-1.64-3.63-3.23-7.27-4.83-10.91-2.07-4.69-4.12-9.38-6.19-14.07-1.62-3.67-3.26-7.33-4.87-11-3.52-8.01-6.99-16.03-10.56-24.02-1.05-2.36-2.13-4.75-3.57-6.88-2.06-3.04-5.03-4.99-8.69-5.76-.81-.17-1.13-.46-.93-1.35.15-.65.03-1.36.03-2.12Z"/>
    <path class="cls-3" d="m575.94,143.85c-1.86.34-3.63.65-5.4.97-3.17.58-6.34,1.18-9.51,1.75-1.19.22-2.38.38-3.57.6-.61.11-.7-.22-.73-.71-.26-3.54.53-6.87,2.2-9.94,3.02-5.54,7.59-9.54,12.99-12.67,3.07-1.77,6.3-3.13,9.72-4.1,6.24-1.75,12.48-1.71,18.82-.6,3.81.67,7.31,2.03,10.61,3.95,4.07,2.37,7.24,5.64,9.22,9.93,1.72,3.74,2.19,7.75,2.19,11.83,0,14.26.01,28.52.03,42.77,0,.6.05,1.21.09,1.81.31,4.58,2.8,7.09,7.4,7.19,1.38.03,2.79-.39,4.14-.77,1.05-.29,1.22-.26,1.21.85,0,.6.03,1.2,0,1.8-.01.2-.16.46-.32.56-2.91,1.65-5.85,3.27-9.09,4.17-5.2,1.44-10.45,1.8-15.69.1-5.09-1.64-7.56-5.4-8.39-10.46-.13-.81-.1-1.64-.36-2.6-.24.29-.52.54-.7.86-.94,1.69-1.85,3.41-3.42,4.62-3.44,2.64-7.1,4.85-11.21,6.32-4.97,1.78-10.1,2.38-15.31,1.96-3.04-.25-5.94-1.17-8.69-2.59-3.38-1.75-6.06-4.19-7.68-7.65-1.77-3.79-2.55-7.79-1.85-11.97.94-5.65,4.08-9.92,8.57-13.26,5-3.72,10.56-6.43,16.42-8.5,4.83-1.7,9.7-3.27,14.59-4.79,2.39-.74,4.86-1.21,7.28-1.82.44-.11.9-.21,1.28-.43.23-.13.47-.49.47-.74-.02-4.17-.07-8.33-.12-12.5-.03-2.28-.13-4.56-1.17-6.63-3.1-6.19-9.32-8.76-15.64-7.66-3.44.6-5.57,2.94-7.47,5.59-1.32,1.85-2.25,3.92-2.34,6.19-.07,1.96-.11,3.98,1.02,5.76.15.24.26.52.4.8Zm7.85,49.53c6.76-.27,12.02-3.07,16.07-8.18.91-1.15,1.5-2.36,1.46-4.02-.14-6.94-.06-13.89-.05-20.83,0-.6-.24-.83-.84-.71-.47.09-.96.12-1.43.2-2.49.43-5.02.69-7.45,1.35-2.19.6-4.29,1.58-6.39,2.49-4.65,2.02-8.56,4.8-10.82,9.62-2.23,4.76-2.12,9.44-.03,14.07,1.83,4.07,5.33,5.79,9.48,6.01Z"/>
    <path class="cls-3" d="m732.04,237.86c.16-1.51.15-1.53-1.33-1.54-.09,0-.18,0-.27,0-5.73-.11-10.1-4.05-10.51-9.77-.23-3.18-.06-6.4-.05-9.6.02-7.1.06-14.2.06-21.3,0-13.78,0-27.55-.03-41.33-.02-11.27-.09-22.53-.13-33.8,0-.59.05-1.18.09-1.91-.43.13-.79.17-1.09.33-1.64.88-3.24,1.86-4.91,2.68-2.51,1.24-5.09,2.33-7.6,3.57-.71.35-1.25.39-1.93,0-2.95-1.7-5.89-3.42-9.15-4.5-3.04-1.01-6.14-1.79-9.33-2.1-5.56-.54-11.07-.39-16.55.87-3.65.84-7.18,2-10.42,3.8-6.1,3.38-10.85,8.24-14.39,14.22-3.05,5.16-5.12,10.73-6.09,16.65-1.08,6.55-.89,13.12.19,19.66,1.07,6.46,3,12.6,6.72,18.09,3.51,5.17,8.25,8.78,14.07,10.9,4.55,1.65,9.33,2.19,14.15,2.24,5.62.06,11.01-1.21,16.19-3.33,3.64-1.5,7.04-3.43,9.74-6.4.05-.05.16-.05.34-.1.04.25.11.47.11.69-.01,2.81-.04,5.61-.06,8.42-.03,3.93-.08,7.85-.07,11.78,0,4.35.13,8.7.09,13.05-.02,2.13-.81,4.04-2.57,5.36-2.16,1.61-4.52,2.76-7.28,2.91-.22.01-.59.39-.61.63-.05.75-.01,1.51.08,2.25.03.23.36.6.54.59,2.59-.07,5.18-.28,7.77-.29,8.49-.04,16.98-.02,25.47-.02,2.9,0,5.79,0,8.84,0-.04-.52-.1-.94-.11-1.35-.01-.45-.01-.9.04-1.35Zm-36.54-47.57c-2.57,2.44-5.75,3.39-9.08,3.89-4.02.6-8,.3-11.8-1.35-2.78-1.21-5.08-3.05-7.31-5.09-2.89-2.64-5.08-5.73-6.55-9.32-1.26-3.07-2.1-6.27-2.63-9.56-.83-5.08-.75-10.18-.27-15.26.37-3.94.84-7.91,2.45-11.63,1.52-3.51,3.48-6.73,5.78-9.78,1.51-2,3.16-3.81,5.31-5.11,2.25-1.36,4.68-2.24,7.3-2.47,6.51-.55,12.18,1.54,17.21,5.56,1.55,1.24,2.7,2.84,3.55,4.63.2.41.24.93.25,1.4.01,7.64.01,15.29.01,22.93h.04c0,7.34-.03,14.68.01,22.02.02,3.74-1.61,6.63-4.25,9.14Z"/>
  </g>
  <path class="cls-3" d="m759.1,101.49v5.04h-9.75v25.45h-6.05v-25.45h-9.75v-5.04h25.56Zm32.96,30.49l-1.12-17.94c-.11-2.35-.11-5.27-.22-8.52h-.34c-.78,2.69-1.68,6.28-2.58,9.08l-5.49,16.93h-6.28l-5.49-17.38c-.56-2.35-1.46-5.94-2.13-8.63h-.34c0,2.8-.11,5.72-.22,8.52l-1.12,17.94h-5.83l2.24-30.49h9.08l5.27,14.91c.67,2.35,1.23,4.6,2.02,7.73h.11c.78-2.8,1.46-5.38,2.13-7.62l5.27-15.02h8.74l2.35,30.49h-6.05Z"/>
  <g>
    <path class="cls-6" d="m251.04,141.22c.12,10.31.34,20.66-.77,30.91-1.65,15.15-6.97,29.08-15.89,41.44-3.3,4.59-7.12,8.81-11.21,12.71-8.08,7.71-17.25,14.19-26.6,20.27-7.56,4.92-15.26,9.62-23.08,14.11-6.03,3.46-12.88,9.37-19.98,10.06-2.48.24-4.84-1-7.02-2.2-17.83-9.83-35.67-19.57-51.92-31.94-6.38-4.85-12.31-10.11-17.56-15.88-8.92-9.83-15.85-21.17-19.51-34.54-4.53-16.5-2.82-33.91-2.64-50.82.19-18.28.36-36.57-.46-54.84-.09-2.1.36-4.47,2.09-5.66,2.02-1.39,5.16-2.22,7.41-3.33,2.87-1.41,5.77-2.76,8.69-4.07,5.67-2.56,11.4-4.98,17.07-7.52,18.92-8.47,37.8-16.99,56.61-25.71,1.02-.47,2.06-.95,3.15-1.21,3.58-.86,7.26.68,10.62,2.19,24.05,10.76,48.33,21.13,72.12,32.44,5.4,2.57,10.94,4.83,16.44,7.18.55.23,1.13.49,1.53.95.36.42.53.96.66,1.49.68,2.75.25,5.41.23,8.19-.04,6.26-.08,12.52-.1,18.78-.05,12.33-.04,24.67.11,37.01Z"/>
    <polygon class="cls-5" points="60.59 188.25 60.59 159.05 85.07 159.05 85.07 181.39 60.59 188.25"/>
    <rect class="cls-11" x="91.16" y="123.86" width="31.22" height="98.21"/>
    <rect class="cls-2" x="136.04" y="131.01" width="31.87" height="118.46"/>
    <rect class="cls-1" x="216.69" y="151.18" width="24.07" height="37.07"/>
    <g>
      <polygon class="cls-9" points="211.78 97.86 211.78 114.8 187.53 129.24 187.53 131.01 187.53 169.43 216.93 181.1 216.93 131.01 216.93 97.86 211.78 97.86"/>
      <polygon class="cls-4" points="181.57 177.19 181.57 253.01 216.93 228.71 216.69 190.2 181.57 177.19"/>
    </g>
    <path class="cls-12" d="m245.52,187.47c-15.39-3.19-30.72-7.46-45.55-12.68-3.28-1.15-7.13-2.56-10.88-4.24-10.34-4.64-19.92-11.45-27.69-19.7-1.66-1.76-4.36-4.11-5.93-6.83h.08v-30.03c12.78-1.82,22.6-12.79,22.6-26.07,0-14.55-11.79-26.34-26.34-26.34s-26.34,11.79-26.34,26.34c0,13.61,10.33,24.81,23.58,26.2v29.82c-.11.12-.21.24-.27.37-5.59,10.79-18.98,19.01-26.47,22.95-7.95,4.18-16.64,7.03-25.05,9.78l-6.25,2.04c-9.69,3.17-19.7,6.44-29.88,8.43-.96.19-1.62.62-1.96,1.29-.71,1.39.16,3.3,1.01,5.15.37.82.73,1.59.87,2.18.15.62.61.98,1.23.98.17,0,.35-.03.55-.08,2.92-.81,5.84-1.6,8.75-2.39,8.48-2.29,17.25-4.65,25.73-7.68,6.92-2.47,13.82-5.26,20.52-8.29,3.92-1.78,8.51-3.96,12.91-6.7,4.43-2.76,8.78-6.17,12.93-10.13,1.85-1.77,3.53-3.7,5.14-5.57,1.08-1.25,2.2-2.54,3.36-3.77.26-.27.35-.3.37-.3.04,0,.12.07.33.3l.48.56c2.67,3.09,5.43,6.28,8.45,9.17,1.68,1.61,3.38,3.1,5.07,4.45.21.17.7.48,1.54,1.03,1.08.69,3.27,2.1,3.74,2.6v.19l.3.19c8.6,5.53,18.07,9.46,25.36,12.28,3.63,1.4,35.73,13.7,43.86,13.71h.01c.49,0,1.92,0,2.31-.98.79-1.97,1.47-4.01,2.13-5.98l.67-1.99-1.28-.26Z"/>
    <g>
      <rect class="cls-10" x="193.93" y="141.1" width="5.85" height="5.2"/>
      <rect class="cls-10" x="204.33" y="141.1" width="5.85" height="5.2"/>
      <rect class="cls-10" x="195.23" y="158.98" width="3.9" height="5.85"/>
      <rect class="cls-10" x="225.8" y="163.53" width="4.55" height="6.5"/>
    </g>
    <g>
      <rect class="cls-10" x="158.16" y="175.24" width="3.25" height="4.55"/>
      <rect class="cls-10" x="157.5" y="188.25" width="4.55" height="3.9"/>
      <rect class="cls-10" x="146.45" y="192.15" width="3.25" height="3.9"/>
      <rect class="cls-10" x="147.1" y="211.01" width="2.6" height="3.9"/>
    </g>
    <g>
      <rect class="cls-10" x="110.68" y="151.83" width="3.9" height="4.55"/>
      <rect class="cls-10" x="97.67" y="166.14" width="3.9" height="3.25"/>
      <rect class="cls-10" x="110.02" y="136.22" width="5.2" height="5.2"/>
      <rect class="cls-10" x="96.37" y="136.22" width="4.55" height="5.85"/>
    </g>
    <rect class="cls-10" x="74.25" y="168.74" width="3.9" height="5.85"/>
    <g>
      <rect class="cls-8" x="107.81" y="214.73" width="6.24" height="36.7"/>
      <ellipse class="cls-10" cx="110.93" cy="208.37" rx="7.15" ry="7.76"/>
    </g>
    <circle class="cls-10" cx="151.81" cy="87.92" r="10.41"/>
    <g>
      <rect class="cls-7" x="190" y="214.83" width="6.24" height="36.6"/>
      <ellipse class="cls-10" cx="193.13" cy="208.35" rx="7.15" ry="7.74"/>
    </g>
    <path class="cls-3" d="m257.54,141.15c-.13-10.82-.16-22.55-.11-36.91.03-6.25.07-12.51.1-18.76,0-.62.04-1.28.07-1.98.1-2.3.23-4.9-.49-7.82-.27-1.09-.77-2.7-2.04-4.17-1.39-1.61-3.02-2.32-3.9-2.69-1.31-.56-2.62-1.11-3.93-1.67-4.07-1.72-8.28-3.5-12.27-5.4-16.77-7.98-34.04-15.59-50.73-22.95-7.06-3.12-14.37-6.34-21.53-9.54-3.4-1.52-7.05-3-11.14-3-1.25,0-2.47.14-3.64.42-1.74.41-3.21,1.09-4.39,1.64-20.15,9.35-39.88,18.22-56.53,25.68-2.69,1.2-5.45,2.41-8.12,3.56-2.93,1.28-5.98,2.61-8.97,3.95-3.44,1.55-6.27,2.87-8.89,4.16-.61.31-1.46.63-2.36.98-1.87.72-3.99,1.54-5.86,2.82-3.34,2.29-5.13,6.41-4.91,11.3.83,18.56.63,37.64.45,54.48-.03,3.27-.13,6.64-.22,9.9-.4,14.02-.81,28.51,3.09,42.71,3.67,13.39,10.73,25.9,20.98,37.18,5.27,5.81,11.3,11.27,18.43,16.7,16.17,12.29,33.96,22.1,51.17,31.59l1.55.86c2.2,1.21,5.52,3.04,9.53,3.04.42,0,.84-.02,1.26-.06,6.84-.66,12.78-4.57,18.02-8.01,1.62-1.07,3.15-2.07,4.57-2.88,7.88-4.52,15.75-9.33,23.39-14.3,8.55-5.56,18.52-12.4,27.54-21.01,4.63-4.41,8.66-9,12-13.61,9.55-13.26,15.3-28.24,17.07-44.55,1.09-9.96.96-19.97.84-29.64l-.03-2.05Zm-6.5.08c.12,10.31.34,20.66-.77,30.91-1.65,15.15-6.97,29.08-15.89,41.44-3.3,4.59-7.12,8.81-11.21,12.71-8.08,7.71-17.25,14.19-26.6,20.27-7.56,4.92-15.26,9.62-23.08,14.11-6.03,3.46-12.88,9.37-19.98,10.06-2.48.24-4.84-1-7.02-2.2-17.83-9.83-35.67-19.57-51.92-31.94-6.38-4.85-12.31-10.11-17.56-15.88-8.92-9.83-15.85-21.17-19.51-34.54-4.53-16.5-2.82-33.91-2.64-50.82.19-18.28.36-36.57-.46-54.84-.09-2.1.36-4.47,2.09-5.66,2.02-1.39,5.16-2.22,7.41-3.33,2.87-1.41,5.77-2.76,8.69-4.07,5.67-2.56,11.4-4.98,17.07-7.52,18.92-8.47,37.8-16.99,56.61-25.71,1.02-.47,2.06-.95,3.15-1.21,3.58-.86,7.26.68,10.62,2.19,24.05,10.76,48.33,21.13,72.12,32.44,5.4,2.57,10.94,4.83,16.44,7.18.55.23,1.13.49,1.53.95.36.42.53.96.66,1.49.68,2.75.25,5.41.23,8.19-.04,6.26-.08,12.52-.1,18.78-.05,12.33-.04,24.67.11,37.01Z"/>
  </g>
</svg>