<?xml version="1.0" encoding="UTF-8"?>
<svg id="Layer_1" data-name="Layer 1" xmlns="http://www.w3.org/2000/svg" xmlns:xlink="http://www.w3.org/1999/xlink" viewBox="0 0 837 301">
  <defs>
    <style>
      .cls-1 {
        fill: url(#New_Gradient_Swatch_2-2);
      }

      .cls-2 {
        fill: url(#linear-gradient-2);
      }

      .cls-3 {
        fill: #441a45;
        opacity: .5;
      }

      .cls-4 {
        fill: #141039;
      }

      .cls-5 {
        fill: url(#New_Gradient_Swatch_2);
      }

      .cls-6 {
        font-family: Poppins-SemiBold, Poppins;
        font-size: 30.94px;
        font-weight: 600;
      }

      .cls-6, .cls-7 {
        fill: #e98973;
      }

      .cls-8 {
        fill: url(#New_Gradient_Swatch_3-2);
      }

      .cls-9 {
        fill: url(#New_Gradient_Swatch_3);
      }

      .cls-10 {
        fill: url(#New_Gradient_Swatch_2-3);
      }

      .cls-11 {
        fill: #f5a889;
      }

      .cls-12 {
        fill: url(#linear-gradient-3);
      }

      .cls-13 {
        fill: url(#linear-gradient);
      }
    </style>
    <linearGradient id="New_Gradient_Swatch_2" data-name="New Gradient Swatch 2" x1="83.26" y1="187.84" x2="83.26" y2="157.62" gradientUnits="userSpaceOnUse">
      <stop offset="0" stop-color="#441a45" stop-opacity=".5"/>
      <stop offset=".99" stop-color="#6e244c"/>
    </linearGradient>
    <linearGradient id="linear-gradient" x1="118.38" y1="222.84" x2="118.38" y2="121.19" gradientUnits="userSpaceOnUse">
      <stop offset="0" stop-color="#441a45" stop-opacity=".5"/>
      <stop offset="1" stop-color="#6e244c"/>
    </linearGradient>
    <linearGradient id="linear-gradient-2" x1="165.17" y1="251.2" x2="165.17" y2="128.6" gradientUnits="userSpaceOnUse">
      <stop offset="0" stop-color="#441a45" stop-opacity=".2"/>
      <stop offset=".99" stop-color="#6e244c"/>
    </linearGradient>
    <linearGradient id="New_Gradient_Swatch_2-2" data-name="New Gradient Swatch 2" x1="244.6" x2="244.6" y2="149.47" xlink:href="#New_Gradient_Swatch_2"/>
    <linearGradient id="New_Gradient_Swatch_2-3" data-name="New Gradient Swatch 2" x1="217.18" y1="180.43" x2="217.18" y2="94.28" xlink:href="#New_Gradient_Swatch_2"/>
    <linearGradient id="linear-gradient-3" x1="166.08" y1="197.01" x2="166.08" y2="56.74" gradientUnits="userSpaceOnUse">
      <stop offset="0" stop-color="#441a45"/>
      <stop offset=".07" stop-color="#592145"/>
      <stop offset=".23" stop-color="#883048"/>
      <stop offset=".39" stop-color="#af3d49"/>
      <stop offset=".55" stop-color="#cd474b"/>
      <stop offset=".7" stop-color="#e24e4c"/>
      <stop offset=".85" stop-color="#ef524c"/>
      <stop offset=".99" stop-color="#f4544d"/>
    </linearGradient>
    <linearGradient id="New_Gradient_Swatch_3" data-name="New Gradient Swatch 3" x1="122.69" y1="253.22" x2="122.69" y2="215.24" gradientUnits="userSpaceOnUse">
      <stop offset="0" stop-color="#6e244c" stop-opacity=".5"/>
      <stop offset=".99" stop-color="#f56a5d"/>
    </linearGradient>
    <linearGradient id="New_Gradient_Swatch_3-2" data-name="New Gradient Swatch 3" x1="207.75" x2="207.75" y2="215.34" xlink:href="#New_Gradient_Swatch_3"/>
  </defs>
  <g>
    <path class="cls-4" d="m267.69,139.16c.13,10.67.36,21.38-.8,31.99-1.7,15.68-7.21,30.1-16.44,42.89-3.42,4.75-7.36,9.11-11.6,13.15-8.37,7.98-17.85,14.69-27.52,20.98-7.83,5.09-15.79,9.96-23.89,14.6-6.24,3.58-13.33,9.7-20.68,10.41-2.56.25-5.01-1.04-7.26-2.28-18.46-10.18-36.92-20.25-53.74-33.05-6.6-5.01-12.74-10.46-18.17-16.44-9.24-10.18-16.4-21.91-20.19-35.74-4.69-17.08-2.91-35.09-2.73-52.6.2-18.92.38-37.85-.47-56.75-.09-2.17.37-4.62,2.17-5.86,2.09-1.43,5.34-2.3,7.67-3.45,2.97-1.46,5.97-2.85,8.99-4.21,5.87-2.65,11.8-5.15,17.67-7.78,19.58-8.76,39.12-17.58,58.59-26.61,1.06-.49,2.13-.98,3.26-1.25,3.71-.89,7.51.71,10.99,2.26,24.89,11.13,50.01,21.86,74.64,33.57,5.59,2.66,11.32,4.99,17.01,7.43.57.24,1.17.5,1.58.98.37.43.55.99.68,1.54.71,2.85.26,5.6.24,8.47-.04,6.48-.08,12.96-.11,19.44-.05,12.76-.04,25.53.11,38.3Z"/>
    <g>
      <polygon class="cls-5" points="70.59 187.84 70.59 157.62 95.93 157.62 95.93 180.73 70.59 187.84"/>
      <rect class="cls-13" x="102.23" y="121.19" width="32.31" height="101.64"/>
      <rect class="cls-2" x="148.68" y="128.6" width="32.98" height="122.6"/>
      <rect class="cls-1" x="232.15" y="149.47" width="24.91" height="38.37"/>
      <g>
        <polygon class="cls-10" points="227.06 94.28 227.06 111.81 201.97 126.77 201.97 128.6 201.97 168.36 232.39 180.43 232.39 128.6 232.39 94.28 227.06 94.28"/>
        <polygon class="cls-3" points="195.8 176.39 195.8 254.86 232.39 229.71 232.15 189.86 195.8 176.39"/>
      </g>
      <path class="cls-12" d="m261.98,187.03c-15.93-3.31-31.79-7.72-47.14-13.12-3.39-1.19-7.38-2.65-11.26-4.39-10.7-4.8-20.61-11.85-28.66-20.39-1.72-1.82-4.51-4.26-6.14-7.07h.09v-31.07c13.22-1.88,23.39-13.24,23.39-26.98,0-15.06-12.21-27.26-27.26-27.26s-27.26,12.21-27.26,27.26c0,14.09,10.69,25.68,24.4,27.11v30.86c-.12.12-.21.25-.28.38-5.78,11.16-19.64,19.67-27.39,23.75-8.23,4.33-17.23,7.27-25.93,10.12l-6.47,2.11c-10.03,3.28-20.39,6.67-30.92,8.73-.99.19-1.67.64-2.03,1.33-.74,1.44.17,3.42,1.05,5.33.39.85.75,1.64.9,2.26.15.64.63,1.02,1.28,1.02.18,0,.37-.03.57-.08,3.02-.84,6.04-1.66,9.06-2.47,8.78-2.37,17.85-4.81,26.62-7.94,7.16-2.55,14.3-5.44,21.23-8.58,4.05-1.84,8.81-4.1,13.36-6.93,4.59-2.86,9.09-6.38,13.38-10.49,1.92-1.83,3.65-3.83,5.32-5.77,1.12-1.29,2.28-2.63,3.48-3.9.27-.28.36-.31.38-.31.04,0,.13.07.34.31l.5.58c2.76,3.2,5.62,6.5,8.74,9.49,1.74,1.66,3.5,3.21,5.25,4.61.22.18.72.5,1.59,1.06,1.12.72,3.38,2.17,3.87,2.7v.19l.31.2c8.91,5.72,18.7,9.8,26.24,12.71,3.76,1.45,36.98,14.18,45.4,14.18h.01c.51,0,1.98,0,2.39-1.02.81-2.04,1.52-4.15,2.21-6.19l.69-2.06-1.32-.27Z"/>
      <g>
        <rect class="cls-11" x="208.59" y="139.03" width="6.06" height="5.39"/>
        <rect class="cls-11" x="219.36" y="139.03" width="6.06" height="5.39"/>
        <rect class="cls-11" x="209.93" y="157.54" width="4.04" height="6.06"/>
        <rect class="cls-11" x="241.57" y="162.26" width="4.71" height="6.73"/>
      </g>
      <g>
        <rect class="cls-11" x="171.56" y="174.37" width="3.37" height="4.71"/>
        <rect class="cls-11" x="170.89" y="187.84" width="4.71" height="4.04"/>
        <rect class="cls-11" x="159.45" y="191.87" width="3.37" height="4.04"/>
        <rect class="cls-11" x="160.12" y="211.4" width="2.69" height="4.04"/>
      </g>
      <g>
        <rect class="cls-11" x="122.42" y="150.14" width="4.04" height="4.71"/>
        <rect class="cls-11" x="108.96" y="164.95" width="4.04" height="3.37"/>
        <rect class="cls-11" x="121.75" y="133.98" width="5.39" height="5.39"/>
        <rect class="cls-11" x="107.61" y="133.98" width="4.71" height="6.06"/>
      </g>
      <rect class="cls-11" x="84.73" y="167.64" width="4.04" height="6.06"/>
      <g>
        <rect class="cls-9" x="119.46" y="215.24" width="6.46" height="37.99"/>
        <ellipse class="cls-11" cx="122.69" cy="208.66" rx="7.4" ry="8.04"/>
      </g>
      <circle class="cls-11" cx="165" cy="84" r="10.77"/>
      <g>
        <rect class="cls-8" x="204.52" y="215.34" width="6.46" height="37.88"/>
        <ellipse class="cls-11" cx="207.75" cy="208.64" rx="7.4" ry="8.01"/>
      </g>
    </g>
    <path class="cls-7" d="m274.42,139.08c-.13-11.2-.17-23.34-.11-38.2.03-6.47.07-12.94.11-19.41,0-.65.04-1.33.07-2.05.11-2.38.24-5.07-.51-8.09-.28-1.12-.8-2.79-2.11-4.31-1.43-1.67-3.12-2.4-4.04-2.79-1.35-.58-2.71-1.15-4.07-1.73-4.21-1.78-8.57-3.62-12.7-5.59-17.36-8.26-35.23-16.14-52.5-23.76-7.31-3.23-14.87-6.56-22.28-9.88-3.51-1.58-7.3-3.11-11.52-3.11-1.29,0-2.56.15-3.77.44-1.8.42-3.33,1.13-4.54,1.7-20.85,9.67-41.28,18.86-58.5,26.58-2.79,1.25-5.64,2.49-8.41,3.69-3.04,1.33-6.19,2.7-9.28,4.09-3.56,1.6-6.49,2.98-9.2,4.31-.63.32-1.51.65-2.44,1.02-1.94.75-4.13,1.6-6.07,2.92-3.45,2.37-5.3,6.63-5.08,11.7.86,19.2.65,38.95.46,56.39-.03,3.38-.13,6.87-.23,10.25-.41,14.51-.83,29.51,3.2,44.21,3.8,13.86,11.11,26.8,21.71,38.48,5.45,6.01,11.69,11.67,19.08,17.28,16.73,12.72,35.14,22.87,52.96,32.69l1.61.89c2.28,1.25,5.71,3.15,9.87,3.15.43,0,.87-.02,1.3-.06,7.07-.69,13.23-4.73,18.65-8.29,1.68-1.1,3.26-2.14,4.73-2.98,8.16-4.68,16.3-9.66,24.21-14.8,8.85-5.76,19.16-12.84,28.5-21.74,4.79-4.56,8.97-9.31,12.42-14.09,9.89-13.72,15.84-29.23,17.67-46.1,1.12-10.31,1-20.67.87-30.68l-.03-2.12Zm-6.73.08c.13,10.67.36,21.38-.8,31.99-1.7,15.68-7.21,30.1-16.44,42.89-3.42,4.75-7.36,9.11-11.6,13.15-8.37,7.98-17.85,14.69-27.52,20.98-7.83,5.09-15.79,9.96-23.89,14.6-6.24,3.58-13.33,9.7-20.68,10.41-2.56.25-5.01-1.04-7.26-2.28-18.46-10.18-36.92-20.25-53.74-33.05-6.6-5.01-12.74-10.46-18.17-16.44-9.24-10.18-16.4-21.91-20.19-35.74-4.69-17.08-2.91-35.09-2.73-52.6.2-18.92.38-37.85-.47-56.75-.09-2.17.37-4.62,2.17-5.86,2.09-1.43,5.34-2.3,7.67-3.45,2.97-1.46,5.97-2.85,8.99-4.21,5.87-2.65,11.8-5.15,17.67-7.78,19.58-8.76,39.12-17.58,58.59-26.61,1.06-.49,2.13-.98,3.26-1.25,3.71-.89,7.51.71,10.99,2.26,24.89,11.13,50.01,21.86,74.64,33.57,5.59,2.66,11.32,4.99,17.01,7.43.57.24,1.17.5,1.58.98.37.43.55.99.68,1.54.71,2.85.26,5.6.24,8.47-.04,6.48-.08,12.96-.11,19.44-.05,12.76-.04,25.53.11,38.3Z"/>
  </g>
  <g>
    <g>
      <path class="cls-7" d="m411.47,145.57c-.51-4.83-1.69-9.43-4.29-13.57-3.73-5.94-9.15-10.01-15.18-13.28-4.29-2.33-8.73-4.4-13.08-6.59-4.16-2.09-8.33-4.19-12.48-6.32-2.98-1.54-5.84-3.27-8.43-5.44-3.98-3.34-6.67-7.47-7.54-12.63-.65-3.84-.51-7.69.81-11.41,1.1-3.1,2.97-5.63,5.81-7.39,2.91-1.79,6.05-2.8,9.45-3.12,4.15-.39,8.15.2,12.01,1.63,2.88,1.07,5.44,2.7,7.71,4.89,3.22,3.12,5.77,6.63,7.24,10.84,1.32,3.77,2.34,7.65,3.49,11.48.2.65.14,1.57.56,1.89.44.32,1.31.07,1.99.07.09,0,.19,0,.28,0,.56.03.75-.21.75-.79-.02-4.8.04-9.59.02-14.39-.02-4.39-.11-8.79-.15-13.17,0-1.01-.28-1.88-1.23-2.36-3.74-1.84-7.61-3.39-11.64-4.46-4.15-1.1-8.39-1.74-12.69-2.09-6.59-.53-13.04.14-19.32,2.12-4.59,1.45-8.95,3.52-12.71,6.56-2.18,1.77-4.26,3.74-5.98,5.95-3.13,4.04-4.71,8.8-5.4,13.85-1.02,7.38-.71,14.56,2.41,21.54,2.52,5.66,6.47,9.87,11.67,12.98,3.7,2.22,7.51,4.25,11.33,6.27,2.7,1.43,5.49,2.72,8.25,4.05,3.12,1.52,6.28,2.97,9.38,4.55,1.95.99,3.85,2.08,5.72,3.21,1.76,1.07,3.62,2.08,5.13,3.45,3.27,3,5.61,6.68,6.41,11.13.72,4.07.51,8.08-1.16,11.98-1.36,3.19-3.29,5.92-6.02,8.01-2.36,1.81-5.03,3.11-7.9,4.03-4.67,1.5-9.36,1.42-14.13.79-4.88-.65-9.1-2.76-12.81-5.84-2.86-2.37-5.53-4.99-8.11-7.68-2.02-2.11-3.54-4.64-4.64-7.36-1.65-4.1-3.07-8.27-3.88-12.63-.05-.24-.43-.57-.67-.59-1.2-.06-2.42-.03-3.65-.03-.05.28-.08.43-.08.58.06,10.85.12,21.7.23,32.55,0,.38.47.9.86,1.13.75.44,1.6.72,2.41,1.04,2.94,1.14,5.83,2.47,8.84,3.37,3.73,1.12,7.55,2.06,11.38,2.76,3.26.58,6.59.89,9.9.97,3.4.08,6.82-.22,10.22-.44,4.33-.28,8.58-1.11,12.68-2.49,3.49-1.17,6.87-2.63,10.04-4.62,3.46-2.16,6.62-4.52,9.22-7.74,3.88-4.8,5.8-10.35,6.75-16.28.58-3.62.61-7.3.23-10.98Z"/>
      <path class="cls-7" d="m411.65,98.67c1.17,0,2.42,0,3.66,0,6.52.02,13.05.07,19.57.06,6.59,0,13.17-.05,19.76-.12.63,0,.86.17.82.78-.04.62-.07,1.25-.07,1.88,0,1.23,0,1.11-1.16,1.27-1.51.2-3.06.43-4.46.98-2.84,1.12-3.13,2.55-2.91,5.21.16,1.93.79,3.77,1.62,5.56,1,2.15,1.76,4.41,2.67,6.59,1.04,2.48,2.15,4.93,3.21,7.4,1.42,3.3,2.81,6.61,4.24,9.91,1.04,2.41,2.15,4.79,3.19,7.21.96,2.24,1.83,4.52,2.78,6.77.91,2.16,1.86,4.3,2.77,6.46.14.33.13.73.22,1.08.06.22.2.42.3.62.19-.16.48-.29.56-.49,1.01-2.43,2.01-4.86,2.96-7.31,1.96-5.08,3.9-10.16,5.82-15.26,1.35-3.6,2.7-7.21,3.96-10.84,1.17-3.37,2.28-6.76,3.32-10.17.49-1.61.86-3.28,1.11-4.95.51-3.41-1.6-6.39-4.68-7.82-1.24-.57-2.7-.69-4.07-.94-.56-.1-.97-.18-.96-.87.02-.74.03-1.49,0-2.23-.02-.58.13-.85.79-.84,12.67.05,25.34.1,38.01.12,9.69.01,19.38-.02,29.07-.03.44,0,.88.06,1.31,0,.96-.13,1.05-.06.97.86-.05.53-.06,1.06-.01,1.59.07.77-.08,1.09-1,1.1-2.85.03-5.83,1.82-6.42,4.33-.33,1.37-.23,2.94.06,4.34,1.06,5.16,3.41,9.86,5.44,14.67,1.35,3.2,2.67,6.4,4,9.6,1.2,2.88,2.43,5.75,3.62,8.64,1.59,3.87,3.17,7.75,4.72,11.63.6,1.51,1.12,3.05,1.71,4.57.09.22.41.55.56.52.24-.05.51-.32.61-.56,1.66-4.12,3.29-8.25,4.93-12.38,2.48-6.25,5.03-12.48,7.43-18.77,1.92-5.03,3.83-10.07,5.45-15.2.9-2.85.8-5.82-1.11-8.45-1.53-2.11-3.73-2.74-6.16-2.8-1-.02-1.06-.05-.98-1.05.05-.58.05-1.19-.05-1.76-.11-.66.05-.93.75-.93,8.25.05,16.49.08,24.74.11.22,0,.44,0,.66-.03,1.42-.14,1.41-.14,1.33,1.25-.04.71.19,1.61-.16,2.09-.3.41-1.27.27-1.9.49-1.91.69-3.5,1.83-4.92,3.32-2.61,2.72-3.69,6.22-5.03,9.58-1.69,4.21-3.23,8.49-4.95,12.68-2.24,5.44-4.62,10.83-6.9,16.25-1.69,4.04-3.28,8.13-4.96,12.18-1.87,4.51-3.81,8.99-5.7,13.49-1.84,4.38-3.66,8.78-5.49,13.16-.26.63-.5,1.28-.83,1.88-.11.21-.47.4-.71.4-2.98.02-5.96.03-8.94-.04-.32,0-.79-.41-.93-.73-1.43-3.34-2.82-6.69-4.18-10.05-1.39-3.42-2.73-6.86-4.11-10.28-2.17-5.4-4.35-10.8-6.53-16.2-2.65-6.56-5.31-13.12-7.94-19.69-2.4-5.99-4.77-11.98-7.14-17.98-1.25-3.16-3.33-5.6-6.58-6.68-4.15-1.37-6.93-1.13-10.31,2.05-1.24,1.16-2.1,2.82-2.85,4.39-1.25,2.59-2.3,5.28-3.38,7.94-1.73,4.27-3.41,8.55-5.11,12.83-1.67,4.22-3.32,8.44-4.99,12.66-1.59,3.98-3.21,7.95-4.79,11.93-2.12,5.32-4.23,10.65-6.32,15.98-.87,2.21-1.64,4.47-2.51,6.68-1.3,3.29-2.68,6.54-3.99,9.83-1.41,3.55-2.71,7.14-4.2,10.66-1.59,3.74-3.21,7.47-5.07,11.08-1.32,2.58-2.86,5.09-4.63,7.38-3.5,4.52-7.91,7.76-13.61,9.12-3.02.72-6.06.72-9.06.3-2.52-.35-4.79-1.55-6.34-3.69-.51-.71-.87-1.62-1-2.49-.73-4.85,1.76-8.16,5.81-10.09,1.93-.92,3.99-1.26,6.1-1.3.3,0,.71.23.89.48.4.56.63,1.23,1.02,1.79,1.44,2.01,3.61,2.61,6.18,1.95,3.42-.87,5.9-3.02,8.18-5.55,2.01-2.24,3.49-4.84,4.75-7.52,1.74-3.7,3.34-7.49,4.07-11.56.11-.63-.02-1.4-.28-2-1.34-3.03-2.8-6.02-4.16-9.04-1.7-3.77-3.35-7.55-5.02-11.33-2.15-4.87-4.28-9.74-6.43-14.61-1.68-3.81-3.38-7.61-5.05-11.42-3.65-8.31-7.26-16.64-10.96-24.93-1.09-2.45-2.21-4.93-3.71-7.14-2.14-3.16-5.23-5.19-9.02-5.98-.84-.18-1.18-.48-.97-1.41.15-.67.03-1.41.03-2.2Z"/>
      <path class="cls-7" d="m617.42,124.2c-1.93.35-3.77.67-5.6,1.01-3.29.6-6.58,1.22-9.87,1.82-1.23.22-2.47.4-3.71.62-.64.11-.72-.22-.76-.74-.26-3.67.55-7.13,2.29-10.32,3.13-5.76,7.88-9.91,13.49-13.15,3.19-1.84,6.54-3.25,10.09-4.25,6.48-1.82,12.96-1.78,19.54-.62,3.96.7,7.59,2.11,11.02,4.1,4.22,2.46,7.52,5.86,9.57,10.31,1.79,3.88,2.27,8.04,2.27,12.29,0,14.8.01,29.61.03,44.41,0,.63.05,1.25.09,1.88.32,4.76,2.91,7.37,7.69,7.46,1.43.03,2.89-.41,4.29-.8,1.09-.3,1.26-.27,1.25.88,0,.62.04,1.25,0,1.87-.01.2-.16.48-.33.58-3.02,1.71-6.08,3.4-9.44,4.33-5.4,1.5-10.85,1.87-16.29.11-5.29-1.71-7.85-5.61-8.71-10.86-.14-.84-.1-1.7-.37-2.7-.25.3-.54.56-.73.89-.98,1.75-1.92,3.54-3.55,4.79-3.57,2.74-7.38,5.03-11.64,6.56-5.16,1.85-10.48,2.47-15.9,2.03-3.16-.26-6.17-1.21-9.02-2.69-3.51-1.82-6.29-4.35-7.97-7.94-1.84-3.94-2.65-8.08-1.92-12.43.98-5.86,4.24-10.3,8.9-13.77,5.19-3.87,10.97-6.68,17.05-8.82,5.01-1.76,10.07-3.4,15.15-4.97,2.48-.77,5.04-1.26,7.56-1.89.45-.11.93-.22,1.33-.45.24-.14.49-.51.49-.77-.02-4.33-.07-8.65-.12-12.98-.03-2.36-.14-4.73-1.21-6.88-3.22-6.43-9.67-9.1-16.24-7.95-3.57.62-5.79,3.06-7.76,5.8-1.38,1.92-2.34,4.06-2.43,6.42-.08,2.03-.12,4.14,1.06,5.98.16.25.27.54.42.83Zm8.15,51.42c7.01-.28,12.48-3.19,16.68-8.49.94-1.19,1.55-2.45,1.52-4.17-.15-7.21-.06-14.42-.06-21.63,0-.62-.25-.86-.87-.73-.49.1-.99.12-1.48.2-2.58.44-5.21.72-7.73,1.4-2.28.62-4.46,1.64-6.64,2.58-4.82,2.09-8.89,4.98-11.23,9.98-2.31,4.94-2.2,9.8-.03,14.61,1.9,4.22,5.53,6.01,9.84,6.24Z"/>
      <path class="cls-7" d="m779.49,221.8c.17-1.57.16-1.59-1.39-1.6-.09,0-.19,0-.28,0-5.95-.11-10.49-4.21-10.91-10.14-.24-3.31-.06-6.64-.05-9.96.02-7.37.06-14.74.06-22.11,0-14.3,0-28.61-.03-42.91-.02-11.7-.09-23.39-.14-35.09,0-.61.05-1.22.09-1.99-.45.13-.82.18-1.13.34-1.71.92-3.36,1.93-5.1,2.78-2.61,1.28-5.29,2.42-7.89,3.71-.74.37-1.3.4-2,0-3.06-1.77-6.12-3.55-9.5-4.67-3.16-1.05-6.37-1.85-9.69-2.18-5.77-.56-11.49-.4-17.18.91-3.79.87-7.45,2.08-10.82,3.94-6.33,3.51-11.26,8.56-14.94,14.77-3.17,5.35-5.31,11.14-6.33,17.28-1.12,6.8-.92,13.62.2,20.41,1.11,6.71,3.11,13.09,6.98,18.78,3.64,5.37,8.56,9.12,14.61,11.32,4.72,1.72,9.69,2.27,14.69,2.32,5.84.06,11.44-1.25,16.81-3.46,3.78-1.55,7.31-3.56,10.11-6.65.05-.06.17-.05.36-.1.04.26.11.49.11.72-.01,2.91-.04,5.83-.06,8.74-.03,4.08-.08,8.15-.08,12.23,0,4.52.14,9.03.09,13.55-.02,2.21-.84,4.19-2.67,5.57-2.24,1.68-4.69,2.86-7.56,3.02-.23.01-.61.41-.63.65-.05.78-.01,1.57.08,2.34.03.23.37.62.56.62,2.69-.07,5.38-.29,8.07-.3,8.81-.04,17.63-.02,26.44-.02,3.01,0,6.01,0,9.18,0-.04-.54-.1-.97-.11-1.4-.01-.47-.01-.94.04-1.4Zm-37.94-49.39c-2.66,2.53-5.97,3.52-9.43,4.04-4.18.63-8.3.31-12.25-1.4-2.89-1.25-5.27-3.17-7.58-5.28-3-2.74-5.27-5.95-6.8-9.68-1.31-3.19-2.18-6.51-2.74-9.93-.86-5.27-.77-10.57-.29-15.84.38-4.1.87-8.21,2.54-12.08,1.58-3.65,3.61-6.99,6-10.15,1.57-2.07,3.28-3.96,5.51-5.31,2.33-1.42,4.85-2.33,7.58-2.56,6.76-.57,12.64,1.6,17.86,5.77,1.61,1.29,2.8,2.95,3.68,4.81.2.43.25.97.26,1.45.02,7.93.01,15.87.01,23.8h.04c0,7.62-.03,15.24.01,22.86.02,3.88-1.67,6.89-4.41,9.49Z"/>
    </g>
    <text class="cls-6" transform="translate(328.23 262.48)"><tspan x="0" y="0">Confidence, carried with you</tspan></text>
  </g>
</svg>