<?xml version="1.0" encoding="UTF-8"?>
<svg id="Layer_1" data-name="Layer 1" xmlns="http://www.w3.org/2000/svg" viewBox="0 0 564 232">
  <defs>
    <style>
      .cls-1 {
        fill: #141039;
      }
    </style>
  </defs>
  <path class="cls-1" d="m117.57,120.56c-.59-5.57-1.94-10.86-4.94-15.63-4.29-6.84-10.54-11.52-17.48-15.3-4.94-2.68-10.05-5.06-15.07-7.6-4.8-2.41-9.6-4.82-14.38-7.28-3.43-1.77-6.73-3.76-9.71-6.26-4.59-3.85-7.68-8.6-8.69-14.54-.75-4.42-.59-8.86.93-13.14,1.27-3.57,3.42-6.49,6.69-8.51,3.35-2.06,6.96-3.23,10.88-3.59,4.78-.45,9.39.23,13.83,1.87,3.32,1.23,6.27,3.11,8.88,5.64,3.71,3.59,6.65,7.64,8.34,12.49,1.52,4.34,2.7,8.81,4.01,13.22.23.75.16,1.81.65,2.18.5.37,1.51.08,2.3.08.1,0,.22,0,.32,0,.65.03.87-.24.87-.91-.02-5.52.04-11.05.02-16.57-.03-5.06-.12-10.12-.17-15.17,0-1.16-.32-2.17-1.42-2.71-4.31-2.12-8.77-3.9-13.4-5.13-4.78-1.27-9.67-2-14.61-2.4-7.59-.62-15.02.16-22.25,2.45-5.29,1.66-10.31,4.05-14.64,7.55-2.51,2.04-4.91,4.31-6.88,6.85-3.61,4.65-5.42,10.14-6.22,15.95-1.17,8.5-.81,16.77,2.77,24.81,2.9,6.52,7.46,11.37,13.44,14.95,4.26,2.56,8.65,4.9,13.05,7.22,3.11,1.65,6.32,3.13,9.5,4.66,3.6,1.75,7.23,3.42,10.8,5.24,2.25,1.14,4.44,2.39,6.59,3.7,2.03,1.23,4.17,2.39,5.9,3.97,3.77,3.46,6.46,7.69,7.38,12.82.83,4.69.59,9.3-1.33,13.79-1.57,3.68-3.79,6.82-6.94,9.23-2.72,2.09-5.79,3.58-9.1,4.64-5.38,1.73-10.78,1.64-16.27.91-5.62-.75-10.48-3.18-14.75-6.73-3.3-2.73-6.37-5.75-9.34-8.84-2.32-2.43-4.08-5.34-5.34-8.47-1.9-4.72-3.54-9.52-4.47-14.54-.05-.28-.49-.66-.77-.68-1.39-.07-2.79-.03-4.21-.03-.05.32-.1.49-.1.67.07,12.49.14,25,.27,37.49,0,.44.54,1.04.99,1.3.87.5,1.84.82,2.77,1.2,3.38,1.32,6.71,2.84,10.18,3.88,4.3,1.29,8.7,2.38,13.11,3.17,3.75.67,7.59,1.02,11.4,1.12,3.92.1,7.86-.25,11.77-.5,4.99-.32,9.88-1.28,14.6-2.87,4.02-1.35,7.92-3.03,11.56-5.32,3.98-2.49,7.62-5.21,10.62-8.91,4.47-5.52,6.68-11.92,7.78-18.75.67-4.17.7-8.41.26-12.64Z"/>
  <path class="cls-1" d="m117.78,66.56c1.35,0,2.78,0,4.21,0,7.51.02,15.03.08,22.54.07,7.58,0,15.17-.06,22.75-.13.73,0,.99.2.95.9-.05.72-.08,1.44-.08,2.16,0,1.42,0,1.28-1.34,1.46-1.74.23-3.52.5-5.14,1.13-3.27,1.29-3.6,2.93-3.35,6,.18,2.23.91,4.34,1.87,6.4,1.16,2.47,2.02,5.07,3.08,7.59,1.2,2.86,2.47,5.68,3.69,8.53,1.63,3.8,3.23,7.61,4.88,11.41,1.2,2.78,2.48,5.52,3.67,8.3,1.1,2.58,2.11,5.21,3.2,7.8,1.04,2.49,2.14,4.95,3.19,7.44.16.38.15.84.26,1.25.07.25.23.48.34.72.22-.19.55-.33.65-.57,1.16-2.8,2.32-5.6,3.41-8.42,2.26-5.85,4.5-11.71,6.7-17.58,1.56-4.15,3.11-8.3,4.56-12.49,1.35-3.88,2.63-7.79,3.83-11.71.57-1.86.99-3.78,1.28-5.7.59-3.93-1.84-7.36-5.4-9-1.43-.66-3.11-.8-4.69-1.09-.64-.12-1.12-.21-1.1-1,.02-.86.03-1.72,0-2.57-.03-.67.15-.97.9-.97,14.59.06,29.18.11,43.77.13,11.16.01,22.32-.02,33.48-.03.5,0,1.01.07,1.51,0,1.11-.15,1.21-.07,1.11,1-.05.61-.07,1.22-.01,1.83.08.88-.09,1.26-1.15,1.27-3.29.03-6.71,2.09-7.4,4.98-.38,1.58-.27,3.39.07,5,1.22,5.94,3.93,11.35,6.27,16.89,1.55,3.68,3.07,7.37,4.61,11.06,1.39,3.32,2.8,6.63,4.17,9.95,1.83,4.46,3.65,8.92,5.44,13.4.7,1.74,1.29,3.51,1.97,5.26.1.26.47.63.64.59.27-.06.59-.37.7-.65,1.91-4.74,3.79-9.5,5.68-14.25,2.86-7.2,5.79-14.38,8.56-21.61,2.21-5.79,4.41-11.6,6.27-17.5,1.04-3.28.92-6.71-1.28-9.73-1.77-2.43-4.29-3.15-7.1-3.22-1.15-.03-1.23-.06-1.13-1.21.05-.67.05-1.37-.05-2.03-.12-.76.06-1.08.86-1.07,9.5.05,18.99.09,28.49.13.25,0,.51,0,.76-.03,1.63-.16,1.63-.17,1.54,1.44-.05.82.21,1.85-.19,2.41-.34.47-1.47.31-2.19.57-2.21.79-4.03,2.11-5.67,3.82-3.01,3.14-4.25,7.16-5.8,11.03-1.94,4.85-3.72,9.77-5.7,14.61-2.58,6.27-5.33,12.47-7.94,18.72-1.95,4.66-3.77,9.36-5.71,14.02-2.16,5.19-4.39,10.35-6.57,15.53-2.12,5.05-4.21,10.11-6.32,15.16-.3.73-.58,1.48-.96,2.17-.13.24-.54.46-.82.47-3.43.02-6.86.03-10.29-.04-.37,0-.9-.47-1.07-.84-1.64-3.84-3.24-7.7-4.81-11.57-1.6-3.94-3.15-7.9-4.73-11.84-2.5-6.22-5.01-12.44-7.52-18.65-3.05-7.56-6.11-15.11-9.14-22.67-2.76-6.89-5.49-13.8-8.23-20.7-1.44-3.64-3.83-6.45-7.58-7.69-4.78-1.58-7.98-1.3-11.87,2.36-1.42,1.34-2.42,3.25-3.28,5.05-1.44,2.98-2.65,6.08-3.89,9.15-1.99,4.91-3.93,9.85-5.88,14.78-1.92,4.86-3.82,9.72-5.75,14.58-1.83,4.59-3.7,9.15-5.52,13.74-2.44,6.13-4.87,12.26-7.27,18.4-1,2.55-1.89,5.14-2.89,7.69-1.5,3.78-3.09,7.53-4.59,11.32-1.63,4.08-3.12,8.23-4.84,12.27-1.83,4.31-3.7,8.6-5.83,12.76-1.52,2.97-3.29,5.86-5.33,8.5-4.03,5.2-9.12,8.94-15.68,10.5-3.48.83-6.97.83-10.43.35-2.9-.41-5.52-1.78-7.3-4.25-.59-.81-1-1.87-1.15-2.87-.84-5.59,2.02-9.4,6.69-11.62,2.22-1.05,4.59-1.45,7.03-1.49.35,0,.82.26,1.02.55.46.64.72,1.42,1.18,2.06,1.66,2.31,4.16,3,7.11,2.25,3.94-1,6.8-3.47,9.42-6.4,2.32-2.59,4.02-5.58,5.47-8.66,2-4.26,3.84-8.63,4.69-13.31.13-.73-.02-1.61-.33-2.3-1.55-3.49-3.22-6.93-4.79-10.41-1.96-4.34-3.86-8.7-5.78-13.05-2.47-5.61-4.93-11.22-7.4-16.83-1.93-4.39-3.89-8.76-5.82-13.15-4.21-9.57-8.36-19.17-12.62-28.72-1.26-2.82-2.55-5.68-4.27-8.22-2.46-3.64-6.02-5.97-10.39-6.89-.97-.2-1.36-.55-1.11-1.62.18-.78.03-1.62.03-2.53Z"/>
  <path class="cls-1" d="m354.77,95.95c-2.23.4-4.34.77-6.45,1.16-3.79.7-7.58,1.41-11.37,2.1-1.42.26-2.85.46-4.27.71-.73.13-.83-.26-.88-.85-.31-4.23.63-8.21,2.63-11.89,3.61-6.63,9.07-11.41,15.54-15.14,3.67-2.12,7.53-3.75,11.62-4.9,7.46-2.1,14.93-2.05,22.5-.71,4.56.8,8.74,2.43,12.69,4.72,4.86,2.83,8.66,6.75,11.02,11.87,2.06,4.47,2.62,9.26,2.61,14.15,0,17.05.02,34.1.04,51.15,0,.72.06,1.44.11,2.16.37,5.48,3.35,8.48,8.85,8.59,1.64.03,3.33-.47,4.94-.92,1.25-.35,1.45-.32,1.44,1.02,0,.72.04,1.44,0,2.16-.01.23-.19.55-.39.66-3.48,1.97-7,3.91-10.87,4.99-6.22,1.72-12.49,2.15-18.76.12-6.09-1.97-9.04-6.46-10.03-12.51-.16-.97-.12-1.96-.43-3.1-.28.34-.63.65-.84,1.03-1.13,2.02-2.21,4.08-4.09,5.52-4.11,3.15-8.49,5.8-13.41,7.56-5.95,2.13-12.07,2.85-18.31,2.34-3.64-.3-7.11-1.4-10.39-3.1-4.04-2.1-7.25-5.01-9.18-9.14-2.12-4.53-3.05-9.31-2.21-14.32,1.13-6.75,4.88-11.86,10.25-15.86,5.98-4.45,12.63-7.69,19.64-10.16,5.77-2.03,11.6-3.91,17.45-5.72,2.85-.88,5.81-1.45,8.71-2.17.52-.13,1.07-.25,1.53-.52.28-.16.57-.58.56-.89-.02-4.98-.09-9.96-.14-14.95-.03-2.72-.16-5.45-1.4-7.93-3.7-7.4-11.14-10.48-18.7-9.16-4.11.72-6.67,3.52-8.93,6.68-1.58,2.21-2.69,4.68-2.79,7.4-.09,2.34-.13,4.76,1.22,6.89.19.29.31.62.48.95Zm9.39,59.22c8.08-.33,14.37-3.67,19.21-9.78,1.09-1.37,1.79-2.82,1.75-4.8-.17-8.3-.07-16.6-.07-24.91,0-.72-.28-.99-1-.85-.56.11-1.14.14-1.71.24-2.98.51-6.01.83-8.91,1.61-2.62.71-5.13,1.88-7.64,2.97-5.55,2.41-10.24,5.73-12.93,11.5-2.66,5.69-2.53,11.29-.04,16.83,2.19,4.86,6.37,6.92,11.34,7.19Z"/>
  <path class="cls-1" d="m541.42,208.36c.2-1.8.18-1.83-1.6-1.84-.11,0-.22,0-.33,0-6.86-.13-12.08-4.84-12.56-11.68-.27-3.81-.07-7.65-.06-11.48.02-8.49.07-16.98.07-25.46,0-16.47,0-32.95-.03-49.42-.03-13.47-.11-26.94-.16-40.41,0-.7.06-1.41.1-2.29-.52.15-.94.21-1.3.4-1.96,1.06-3.87,2.22-5.87,3.21-3,1.48-6.09,2.79-9.09,4.27-.85.42-1.5.47-2.31,0-3.53-2.03-7.05-4.08-10.94-5.38-3.64-1.21-7.34-2.13-11.16-2.51-6.65-.65-13.23-.46-19.79,1.04-4.36,1-8.58,2.39-12.46,4.54-7.29,4.04-12.97,9.85-17.2,17.01-3.65,6.17-6.12,12.83-7.29,19.9-1.29,7.83-1.06,15.69.23,23.51,1.27,7.72,3.59,15.07,8.04,21.63,4.2,6.18,9.86,10.5,16.82,13.03,5.44,1.98,11.16,2.62,16.92,2.67,6.72.07,13.17-1.44,19.36-3.98,4.35-1.79,8.42-4.1,11.65-7.65.06-.06.19-.06.41-.11.05.3.13.56.13.83-.02,3.36-.04,6.71-.07,10.07-.03,4.69-.1,9.39-.09,14.08.01,5.2.16,10.4.1,15.6-.03,2.55-.97,4.83-3.08,6.41-2.58,1.93-5.41,3.3-8.71,3.47-.27.01-.71.47-.73.75-.06.89-.02,1.8.1,2.69.03.27.43.71.65.71,3.1-.08,6.19-.33,9.29-.35,10.15-.05,20.3-.02,30.45-.03,3.46,0,6.93,0,10.57,0-.05-.62-.12-1.12-.13-1.61-.01-.54-.01-1.08.05-1.61Zm-43.7-56.88c-3.07,2.92-6.88,4.06-10.86,4.66-4.81.72-9.56.35-14.11-1.62-3.33-1.44-6.07-3.65-8.74-6.08-3.46-3.16-6.07-6.85-7.84-11.15-1.51-3.67-2.51-7.5-3.15-11.43-.99-6.07-.89-12.18-.33-18.25.44-4.72,1.01-9.46,2.93-13.91,1.81-4.2,4.16-8.05,6.91-11.69,1.8-2.39,3.77-4.56,6.34-6.12,2.69-1.63,5.59-2.68,8.73-2.95,7.78-.66,14.56,1.84,20.57,6.65,1.86,1.49,3.22,3.4,4.24,5.54.23.49.29,1.11.29,1.67.02,9.14.01,18.28.01,27.41h.05c0,8.78-.03,17.55.01,26.33.02,4.47-1.93,7.93-5.08,10.93Z"/>
</svg>