<?xml version="1.0" encoding="UTF-8"?>
<svg id="Layer_1" data-name="Layer 1" xmlns="http://www.w3.org/2000/svg" xmlns:xlink="http://www.w3.org/1999/xlink" viewBox="0 0 564 578">
  <defs>
    <style>
      .cls-1 {
        fill: url(#New_Gradient_Swatch_2-2);
      }

      .cls-2 {
        fill: url(#linear-gradient-2);
      }

      .cls-3 {
        fill: #441a45;
        opacity: .5;
      }

      .cls-4 {
        fill: #141039;
      }

      .cls-5 {
        fill: url(#New_Gradient_Swatch_2);
      }

      .cls-6 {
        fill: #e98973;
      }

      .cls-7 {
        fill: url(#New_Gradient_Swatch_3-2);
      }

      .cls-8 {
        fill: url(#New_Gradient_Swatch_3);
      }

      .cls-9 {
        fill: url(#New_Gradient_Swatch_2-3);
      }

      .cls-10 {
        fill: #f5a889;
      }

      .cls-11 {
        fill: url(#linear-gradient-3);
      }

      .cls-12 {
        fill: url(#linear-gradient);
      }
    </style>
    <linearGradient id="New_Gradient_Swatch_2" data-name="New Gradient Swatch 2" x1="121.79" y1="362.14" x2="121.79" y2="303.63" gradientUnits="userSpaceOnUse">
      <stop offset="0" stop-color="#441a45" stop-opacity=".5"/>
      <stop offset=".99" stop-color="#6e244c"/>
    </linearGradient>
    <linearGradient id="linear-gradient" x1="189.8" y1="429.91" x2="189.8" y2="233.11" gradientUnits="userSpaceOnUse">
      <stop offset="0" stop-color="#441a45" stop-opacity=".5"/>
      <stop offset="1" stop-color="#6e244c"/>
    </linearGradient>
    <linearGradient id="linear-gradient-2" x1="280.38" y1="484.83" x2="280.38" y2="247.45" gradientUnits="userSpaceOnUse">
      <stop offset="0" stop-color="#441a45" stop-opacity=".2"/>
      <stop offset=".99" stop-color="#6e244c"/>
    </linearGradient>
    <linearGradient id="New_Gradient_Swatch_2-2" data-name="New Gradient Swatch 2" x1="434.17" x2="434.17" y2="287.85" xlink:href="#New_Gradient_Swatch_2"/>
    <linearGradient id="New_Gradient_Swatch_2-3" data-name="New Gradient Swatch 2" x1="381.08" y1="347.8" x2="381.08" y2="181.01" xlink:href="#New_Gradient_Swatch_2"/>
    <linearGradient id="linear-gradient-3" x1="282.14" y1="379.9" x2="282.14" y2="108.32" gradientUnits="userSpaceOnUse">
      <stop offset="0" stop-color="#441a45"/>
      <stop offset=".07" stop-color="#592145"/>
      <stop offset=".23" stop-color="#883048"/>
      <stop offset=".39" stop-color="#af3d49"/>
      <stop offset=".55" stop-color="#cd474b"/>
      <stop offset=".7" stop-color="#e24e4c"/>
      <stop offset=".85" stop-color="#ef524c"/>
      <stop offset=".99" stop-color="#f4544d"/>
    </linearGradient>
    <linearGradient id="New_Gradient_Swatch_3" data-name="New Gradient Swatch 3" x1="198.14" y1="488.74" x2="198.14" y2="415.19" gradientUnits="userSpaceOnUse">
      <stop offset="0" stop-color="#6e244c" stop-opacity=".5"/>
      <stop offset=".99" stop-color="#f56a5d"/>
    </linearGradient>
    <linearGradient id="New_Gradient_Swatch_3-2" data-name="New Gradient Swatch 3" x1="362.83" x2="362.83" y2="415.39" xlink:href="#New_Gradient_Swatch_3"/>
  </defs>
  <path class="cls-4" d="m478.88,267.91c.25,20.66.69,41.39-1.55,61.93-3.3,30.35-13.96,58.27-31.84,83.05-6.62,9.2-14.26,17.65-22.46,25.47-16.2,15.46-34.56,28.44-53.29,40.61-15.16,9.85-30.58,19.28-46.25,28.27-12.08,6.93-25.81,18.78-40.04,20.15-4.96.48-9.7-2.01-14.06-4.42-35.74-19.71-71.47-39.22-104.04-63.99-12.79-9.71-24.67-20.25-35.19-31.83-17.88-19.71-31.76-42.42-39.1-69.21-9.08-33.06-5.64-67.94-5.29-101.84.39-36.62.73-73.28-.91-109.88-.18-4.21.72-8.95,4.2-11.34,4.04-2.78,10.34-4.44,14.86-6.67,5.75-2.83,11.56-5.53,17.41-8.15,11.37-5.12,22.85-9.97,34.21-15.07,37.91-16.97,75.75-34.04,113.44-51.52,2.05-.95,4.12-1.9,6.32-2.42,7.18-1.72,14.54,1.37,21.28,4.38,48.18,21.56,96.83,42.33,144.51,65,10.82,5.15,21.92,9.67,32.93,14.39,1.11.47,2.27.98,3.06,1.9.72.83,1.06,1.92,1.32,2.98,1.37,5.51.51,10.84.47,16.41-.08,12.55-.16,25.09-.21,37.64-.09,24.71-.08,49.43.22,74.16Z"/>
  <g>
    <polygon class="cls-5" points="97.26 362.14 97.26 303.63 146.32 303.63 146.32 348.39 97.26 362.14"/>
    <rect class="cls-12" x="158.52" y="233.11" width="62.56" height="196.8"/>
    <rect class="cls-2" x="248.45" y="247.45" width="63.86" height="237.38"/>
    <rect class="cls-1" x="410.06" y="287.85" width="48.22" height="74.29"/>
    <g>
      <polygon class="cls-9" points="400.21 181.01 400.21 214.95 351.63 243.9 351.63 247.45 351.63 324.43 410.53 347.8 410.53 247.45 410.53 181.01 400.21 181.01"/>
      <polygon class="cls-3" points="339.68 339.98 339.68 491.92 410.53 443.22 410.06 366.05 339.68 339.98"/>
    </g>
    <path class="cls-11" d="m467.83,360.57c-30.84-6.4-61.55-14.95-91.27-25.41-6.57-2.31-14.29-5.13-21.8-8.5-20.72-9.3-39.91-22.95-55.48-39.47-3.33-3.53-8.73-8.24-11.89-13.68h.17v-60.16c25.6-3.64,45.29-25.64,45.29-52.24,0-29.15-23.63-52.78-52.78-52.78s-52.78,23.63-52.78,52.78c0,27.28,20.7,49.72,47.24,52.49v59.75c-.23.23-.41.48-.54.74-11.2,21.62-38.03,38.09-53.04,45.99-15.93,8.38-33.35,14.08-50.2,19.59l-12.52,4.09c-19.41,6.35-39.48,12.91-59.87,16.89-1.92.38-3.24,1.24-3.93,2.58-1.43,2.78.33,6.61,2.03,10.32.75,1.64,1.46,3.18,1.75,4.37.3,1.23,1.22,1.97,2.47,1.97.34,0,.71-.05,1.1-.16,5.84-1.63,11.69-3.21,17.54-4.79,16.99-4.58,34.56-9.32,51.55-15.38,13.86-4.94,27.69-10.54,41.11-16.62,7.85-3.56,17.06-7.94,25.86-13.42,8.89-5.53,17.6-12.36,25.9-20.3,3.71-3.55,7.07-7.42,10.31-11.16,2.17-2.51,4.42-5.1,6.74-7.56.52-.55.71-.6.74-.61.07.02.25.13.66.61l.96,1.12c5.35,6.19,10.88,12.59,16.93,18.38,3.36,3.22,6.78,6.22,10.17,8.92.43.34,1.4.97,3.08,2.05,2.16,1.39,6.55,4.21,7.49,5.22v.38l.6.39c17.24,11.07,36.21,18.97,50.81,24.6,7.28,2.81,71.59,27.46,87.89,27.46h.03c.98,0,3.84-.02,4.62-1.97,1.58-3.94,2.95-8.03,4.28-11.98l1.35-3.98-2.56-.53Z"/>
    <g>
      <rect class="cls-10" x="364.44" y="267.65" width="11.73" height="10.43"/>
      <rect class="cls-10" x="385.29" y="267.65" width="11.73" height="10.43"/>
      <rect class="cls-10" x="367.05" y="303.49" width="7.82" height="11.73"/>
      <rect class="cls-10" x="428.3" y="312.61" width="9.12" height="13.03"/>
    </g>
    <g>
      <rect class="cls-10" x="292.76" y="336.07" width="6.52" height="9.12"/>
      <rect class="cls-10" x="291.46" y="362.14" width="9.12" height="7.82"/>
      <rect class="cls-10" x="269.3" y="369.96" width="6.52" height="7.82"/>
      <rect class="cls-10" x="270.6" y="407.76" width="5.21" height="7.82"/>
    </g>
    <g>
      <rect class="cls-10" x="197.62" y="289.16" width="7.82" height="9.12"/>
      <rect class="cls-10" x="171.55" y="317.83" width="7.82" height="6.52"/>
      <rect class="cls-10" x="196.32" y="257.88" width="10.43" height="10.43"/>
      <rect class="cls-10" x="168.95" y="257.88" width="9.12" height="11.73"/>
    </g>
    <rect class="cls-10" x="124.63" y="323.04" width="7.82" height="11.73"/>
    <g>
      <rect class="cls-8" x="191.89" y="415.19" width="12.51" height="73.55"/>
      <ellipse class="cls-10" cx="198.14" cy="402.46" rx="14.34" ry="15.56"/>
    </g>
    <circle class="cls-10" cx="280.05" cy="161.11" r="20.85"/>
    <g>
      <rect class="cls-7" x="356.58" y="415.39" width="12.51" height="73.34"/>
      <ellipse class="cls-10" cx="362.83" cy="402.42" rx="14.34" ry="15.51"/>
    </g>
  </g>
  <path class="cls-6" d="m491.91,267.75c-.26-21.69-.33-45.19-.22-73.96.05-12.52.13-25.06.21-37.59.01-1.25.08-2.57.14-3.96.21-4.6.46-9.81-.99-15.67-.53-2.18-1.55-5.41-4.09-8.35-2.78-3.23-6.05-4.64-7.82-5.4-2.62-1.12-5.25-2.23-7.87-3.35-8.16-3.44-16.59-7.01-24.59-10.82-33.61-15.99-68.2-31.24-101.64-45.99-14.15-6.26-28.79-12.71-43.14-19.12-6.8-3.05-14.13-6.02-22.31-6.02-2.5,0-4.95.29-7.3.85-3.49.82-6.44,2.19-8.8,3.28-40.38,18.73-79.92,36.52-113.27,51.45-5.4,2.41-10.92,4.82-16.28,7.14-5.88,2.57-11.98,5.23-17.97,7.92-6.89,3.1-12.56,5.76-17.82,8.34-1.23.61-2.93,1.26-4.73,1.97-3.75,1.45-8,3.09-11.74,5.66-6.69,4.59-10.27,12.84-9.84,22.65,1.67,37.18,1.26,75.42.9,109.18-.06,6.54-.26,13.31-.44,19.84-.8,28.1-1.62,57.14,6.19,85.59,7.36,26.83,21.5,51.9,42.03,74.51,10.56,11.64,22.64,22.59,36.94,33.46,32.4,24.62,68.05,44.29,102.53,63.3l3.12,1.72c4.4,2.42,11.06,6.1,19.11,6.1.83,0,1.68-.04,2.52-.12,13.7-1.33,25.61-9.15,36.11-16.06,3.25-2.14,6.32-4.14,9.15-5.77,15.8-9.06,31.57-18.7,46.87-28.65,17.14-11.14,37.11-24.85,55.18-42.1,9.28-8.84,17.36-18.02,24.05-27.28,19.15-26.56,30.67-56.59,34.21-89.26,2.18-19.97,1.93-40.01,1.68-59.39l-.05-4.11Zm-13.03.16c.25,20.66.69,41.39-1.55,61.93-3.3,30.35-13.96,58.27-31.84,83.05-6.62,9.2-14.26,17.65-22.46,25.47-16.2,15.46-34.56,28.44-53.29,40.61-15.16,9.85-30.58,19.28-46.25,28.27-12.08,6.93-25.81,18.78-40.04,20.15-4.96.48-9.7-2.01-14.06-4.42-35.74-19.71-71.47-39.22-104.04-63.99-12.79-9.71-24.67-20.25-35.19-31.83-17.88-19.71-31.76-42.42-39.1-69.21-9.08-33.06-5.64-67.94-5.29-101.84.39-36.62.73-73.28-.91-109.88-.18-4.21.72-8.95,4.2-11.34,4.04-2.78,10.34-4.44,14.86-6.67,5.75-2.83,11.56-5.53,17.41-8.15,11.37-5.12,22.85-9.97,34.21-15.07,37.91-16.97,75.75-34.04,113.44-51.52,2.05-.95,4.12-1.9,6.32-2.42,7.18-1.72,14.54,1.37,21.28,4.38,48.18,21.56,96.83,42.33,144.51,65,10.82,5.15,21.92,9.67,32.93,14.39,1.11.47,2.27.98,3.06,1.9.72.83,1.06,1.92,1.32,2.98,1.37,5.51.51,10.84.47,16.41-.08,12.55-.16,25.09-.21,37.64-.09,24.71-.08,49.43.22,74.16Z"/>
</svg>