<?xml version="1.0" encoding="UTF-8"?>
<svg id="Layer_1" data-name="Layer 1" xmlns="http://www.w3.org/2000/svg" xmlns:xlink="http://www.w3.org/1999/xlink" viewBox="0 0 564 578">
  <defs>
    <style>
      .cls-1 {
        fill: url(#New_Gradient_Swatch_2-2);
      }

      .cls-2 {
        fill: url(#linear-gradient-2);
      }

      .cls-3 {
        fill: #141039;
      }

      .cls-4 {
        fill: url(#linear-gradient-3);
        opacity: .5;
      }

      .cls-5 {
        fill: url(#New_Gradient_Swatch_2);
      }

      .cls-6 {
        fill: #e98973;
      }

      .cls-7 {
        fill: url(#New_Gradient_Swatch_3-2);
      }

      .cls-8 {
        fill: url(#New_Gradient_Swatch_3);
      }

      .cls-9 {
        fill: url(#New_Gradient_Swatch_2-3);
      }

      .cls-10 {
        fill: #f5a889;
      }

      .cls-11 {
        fill: url(#linear-gradient);
      }

      .cls-12 {
        fill: url(#linear-gradient-4);
      }
    </style>
    <linearGradient id="New_Gradient_Swatch_2" data-name="New Gradient Swatch 2" x1="121.81" y1="362.13" x2="121.81" y2="303.63" gradientUnits="userSpaceOnUse">
      <stop offset="0" stop-color="#441a45" stop-opacity=".5"/>
      <stop offset=".99" stop-color="#6e244c"/>
    </linearGradient>
    <linearGradient id="linear-gradient" x1="189.81" y1="429.89" x2="189.81" y2="233.12" gradientUnits="userSpaceOnUse">
      <stop offset="0" stop-color="#e98973" stop-opacity=".5"/>
      <stop offset="1" stop-color="#6e244c"/>
    </linearGradient>
    <linearGradient id="linear-gradient-2" x1="280.38" y1="484.8" x2="280.38" y2="247.46" gradientUnits="userSpaceOnUse">
      <stop offset="0" stop-color="#e98973" stop-opacity=".2"/>
      <stop offset=".99" stop-color="#6e244c"/>
    </linearGradient>
    <linearGradient id="New_Gradient_Swatch_2-2" data-name="New Gradient Swatch 2" x1="434.15" x2="434.15" y2="287.85" xlink:href="#New_Gradient_Swatch_2"/>
    <linearGradient id="New_Gradient_Swatch_2-3" data-name="New Gradient Swatch 2" x1="381.07" y1="347.8" x2="381.07" y2="181.02" xlink:href="#New_Gradient_Swatch_2"/>
    <linearGradient id="linear-gradient-3" x1="375.09" y1="491.89" x2="375.09" y2="339.98" gradientUnits="userSpaceOnUse">
      <stop offset="0" stop-color="#e98973" stop-opacity=".2"/>
      <stop offset=".99" stop-color="#6e244c"/>
    </linearGradient>
    <linearGradient id="linear-gradient-4" x1="282.14" y1="379.89" x2="282.14" y2="108.35" gradientUnits="userSpaceOnUse">
      <stop offset="0" stop-color="#441a45"/>
      <stop offset=".07" stop-color="#592145"/>
      <stop offset=".23" stop-color="#883048"/>
      <stop offset=".39" stop-color="#af3d49"/>
      <stop offset=".55" stop-color="#cd474b"/>
      <stop offset=".7" stop-color="#e24e4c"/>
      <stop offset=".85" stop-color="#ef524c"/>
      <stop offset=".99" stop-color="#f4544d"/>
    </linearGradient>
    <linearGradient id="New_Gradient_Swatch_3" data-name="New Gradient Swatch 3" x1="198.15" y1="488.71" x2="198.15" y2="415.17" gradientUnits="userSpaceOnUse">
      <stop offset="0" stop-color="#6e244c" stop-opacity=".5"/>
      <stop offset=".99" stop-color="#f56a5d"/>
    </linearGradient>
    <linearGradient id="New_Gradient_Swatch_3-2" data-name="New Gradient Swatch 3" x1="362.82" x2="362.82" y2="415.38" xlink:href="#New_Gradient_Swatch_3"/>
  </defs>
  <path class="cls-6" d="m478.85,267.91c.25,20.65.69,41.39-1.55,61.92-3.3,30.35-13.96,58.26-31.84,83.04-6.62,9.2-14.26,17.64-22.45,25.46-16.2,15.46-34.56,28.43-53.28,40.61-15.16,9.85-30.57,19.27-46.25,28.26-12.08,6.93-25.8,18.78-40.03,20.15-4.96.48-9.7-2.01-14.06-4.42-35.73-19.7-71.46-39.21-104.03-63.98-12.78-9.71-24.67-20.25-35.18-31.82-17.88-19.7-31.76-42.42-39.09-69.2-9.08-33.06-5.64-67.93-5.29-101.83.39-36.62.73-73.27-.91-109.87-.18-4.21.72-8.95,4.2-11.34,4.04-2.78,10.33-4.44,14.86-6.67,5.75-2.83,11.56-5.53,17.41-8.14,11.36-5.12,22.84-9.97,34.21-15.06,37.91-16.97,75.74-34.04,113.42-51.51,2.05-.95,4.12-1.9,6.32-2.42,7.18-1.72,14.54,1.37,21.28,4.38,48.18,21.55,96.82,42.33,144.49,64.99,10.82,5.15,21.92,9.67,32.93,14.39,1.11.47,2.27.98,3.06,1.9.72.83,1.06,1.92,1.32,2.98,1.37,5.51.51,10.84.47,16.41-.08,12.55-.16,25.09-.21,37.63-.09,24.71-.08,49.43.22,74.15Z"/>
  <polygon class="cls-5" points="97.29 362.13 97.29 303.63 146.34 303.63 146.34 348.38 97.29 362.13"/>
  <rect class="cls-11" x="158.54" y="233.12" width="62.55" height="196.77"/>
  <rect class="cls-2" x="248.45" y="247.46" width="63.85" height="237.35"/>
  <rect class="cls-1" x="410.04" y="287.85" width="48.22" height="74.28"/>
  <g>
    <polygon class="cls-9" points="400.2 181.02 400.2 214.96 351.62 243.91 351.62 247.46 351.62 324.42 410.51 347.8 410.51 247.46 410.51 181.02 400.2 181.02"/>
    <polygon class="cls-4" points="339.67 339.98 339.67 491.89 410.51 443.2 410.04 366.04 339.67 339.98"/>
  </g>
  <path class="cls-12" d="m467.8,360.56c-30.84-6.4-61.54-14.95-91.26-25.4-6.57-2.31-14.29-5.13-21.8-8.5-20.72-9.3-39.9-22.95-55.48-39.47-3.33-3.53-8.73-8.24-11.89-13.68h.17v-60.16c25.6-3.64,45.28-25.63,45.28-52.24,0-29.15-23.63-52.78-52.78-52.78s-52.78,23.63-52.78,52.78c0,27.28,20.69,49.72,47.24,52.49v59.75c-.23.23-.41.48-.54.74-11.19,21.61-38.03,38.09-53.03,45.98-15.93,8.38-33.35,14.08-50.19,19.59l-12.52,4.09c-19.41,6.35-39.48,12.91-59.86,16.89-1.92.38-3.24,1.24-3.93,2.58-1.43,2.78.33,6.61,2.03,10.32.75,1.64,1.46,3.18,1.75,4.37.3,1.23,1.22,1.97,2.47,1.97.34,0,.71-.05,1.1-.16,5.84-1.63,11.69-3.21,17.53-4.78,16.99-4.58,34.56-9.32,51.54-15.38,13.86-4.94,27.69-10.54,41.11-16.62,7.85-3.56,17.06-7.93,25.86-13.42,8.89-5.53,17.6-12.36,25.9-20.3,3.71-3.55,7.06-7.42,10.31-11.16,2.17-2.51,4.42-5.1,6.74-7.56.52-.55.71-.6.74-.61.07.02.25.13.66.61l.96,1.12c5.35,6.19,10.87,12.59,16.93,18.38,3.36,3.22,6.78,6.22,10.17,8.92.43.34,1.4.97,3.08,2.05,2.16,1.39,6.54,4.21,7.49,5.22v.38l.6.39c17.24,11.07,36.21,18.96,50.81,24.6,7.28,2.81,71.58,27.46,87.88,27.46h.03c.98,0,3.84-.02,4.62-1.97,1.58-3.94,2.95-8.03,4.28-11.98l1.35-3.98-2.56-.53Z"/>
  <g>
    <rect class="cls-10" x="364.43" y="267.65" width="11.73" height="10.42"/>
    <rect class="cls-10" x="385.28" y="267.65" width="11.73" height="10.42"/>
    <rect class="cls-10" x="367.04" y="303.49" width="7.82" height="11.73"/>
    <rect class="cls-10" x="428.28" y="312.61" width="9.12" height="13.03"/>
  </g>
  <g>
    <rect class="cls-10" x="292.76" y="336.07" width="6.52" height="9.12"/>
    <rect class="cls-10" x="291.45" y="362.13" width="9.12" height="7.82"/>
    <rect class="cls-10" x="269.3" y="369.95" width="6.52" height="7.82"/>
    <rect class="cls-10" x="270.6" y="407.74" width="5.21" height="7.82"/>
  </g>
  <g>
    <rect class="cls-10" x="197.63" y="289.16" width="7.82" height="9.12"/>
    <rect class="cls-10" x="171.57" y="317.82" width="7.82" height="6.52"/>
    <rect class="cls-10" x="196.33" y="257.88" width="10.42" height="10.42"/>
    <rect class="cls-10" x="168.96" y="257.88" width="9.12" height="11.73"/>
  </g>
  <rect class="cls-10" x="124.65" y="323.04" width="7.82" height="11.73"/>
  <g>
    <rect class="cls-8" x="191.9" y="415.17" width="12.51" height="73.54"/>
    <ellipse class="cls-10" cx="198.15" cy="402.45" rx="14.33" ry="15.56"/>
  </g>
  <circle class="cls-10" cx="280.05" cy="161.12" r="20.85"/>
  <g>
    <rect class="cls-7" x="356.57" y="415.38" width="12.51" height="73.33"/>
    <ellipse class="cls-10" cx="362.82" cy="402.4" rx="14.33" ry="15.51"/>
  </g>
  <path class="cls-3" d="m491.88,267.75c-.26-21.68-.33-45.18-.22-73.95.05-12.52.13-25.06.21-37.58.01-1.25.08-2.57.14-3.96.21-4.6.46-9.81-.99-15.66-.53-2.18-1.55-5.41-4.09-8.35-2.78-3.23-6.05-4.64-7.82-5.39-2.62-1.12-5.25-2.23-7.87-3.35-8.16-3.44-16.59-7.01-24.59-10.82-33.61-15.99-68.19-31.24-101.63-45.99-14.15-6.25-28.79-12.71-43.13-19.12-6.8-3.05-14.13-6.02-22.31-6.02-2.5,0-4.95.29-7.3.85-3.49.82-6.44,2.19-8.8,3.28-40.37,18.73-79.91,36.51-113.25,51.45-5.4,2.41-10.92,4.82-16.28,7.14-5.88,2.57-11.98,5.23-17.97,7.92-6.89,3.1-12.56,5.76-17.81,8.34-1.22.61-2.93,1.26-4.73,1.97-3.75,1.45-8,3.09-11.74,5.66-6.68,4.59-10.27,12.84-9.84,22.65,1.67,37.18,1.26,75.41.9,109.16-.06,6.54-.26,13.3-.44,19.83-.8,28.1-1.62,57.13,6.19,85.58,7.36,26.83,21.5,51.89,42.03,74.5,10.55,11.64,22.63,22.58,36.93,33.45,32.4,24.62,68.04,44.28,102.52,63.29l3.11,1.72c4.4,2.42,11.06,6.1,19.1,6.1.83,0,1.68-.04,2.52-.12,13.7-1.33,25.61-9.15,36.11-16.05,3.25-2.14,6.32-4.14,9.15-5.77,15.79-9.06,31.56-18.7,46.86-28.64,17.14-11.14,37.1-24.85,55.17-42.09,9.28-8.84,17.36-18.02,24.04-27.27,19.14-26.56,30.66-56.58,34.21-89.25,2.18-19.96,1.93-40.01,1.68-59.38l-.05-4.1Zm-13.03.16c.25,20.65.69,41.39-1.55,61.92-3.3,30.35-13.96,58.26-31.84,83.04-6.62,9.2-14.26,17.64-22.45,25.46-16.2,15.46-34.56,28.43-53.28,40.61-15.16,9.85-30.57,19.27-46.25,28.26-12.08,6.93-25.8,18.78-40.03,20.15-4.96.48-9.7-2.01-14.06-4.42-35.73-19.7-71.46-39.21-104.03-63.98-12.78-9.71-24.67-20.25-35.18-31.82-17.88-19.7-31.76-42.42-39.09-69.2-9.08-33.06-5.64-67.93-5.29-101.83.39-36.62.73-73.27-.91-109.87-.18-4.21.72-8.95,4.2-11.34,4.04-2.78,10.33-4.44,14.86-6.67,5.75-2.83,11.56-5.53,17.41-8.14,11.36-5.12,22.84-9.97,34.21-15.06,37.91-16.97,75.74-34.04,113.42-51.51,2.05-.95,4.12-1.9,6.32-2.42,7.18-1.72,14.54,1.37,21.28,4.38,48.18,21.55,96.82,42.33,144.49,64.99,10.82,5.15,21.92,9.67,32.93,14.39,1.11.47,2.27.98,3.06,1.9.72.83,1.06,1.92,1.32,2.98,1.37,5.51.51,10.84.47,16.41-.08,12.55-.16,25.09-.21,37.63-.09,24.71-.08,49.43.22,74.15Z"/>
</svg>