<?xml version="1.0" encoding="UTF-8"?>
<svg id="Layer_1" data-name="Layer 1" xmlns="http://www.w3.org/2000/svg" xmlns:xlink="http://www.w3.org/1999/xlink" viewBox="0 0 705 705">
  <defs>
    <style>
      .cls-1 {
        fill: url(#New_Gradient_Swatch_2-2);
      }

      .cls-2 {
        fill: url(#linear-gradient-2);
      }

      .cls-3 {
        fill: #441a45;
        opacity: .5;
      }

      .cls-4 {
        fill: #141039;
      }

      .cls-5 {
        fill: url(#New_Gradient_Swatch_2);
      }

      .cls-6, .cls-7 {
        fill: #e98973;
      }

      .cls-8 {
        fill: url(#New_Gradient_Swatch_3-2);
      }

      .cls-9 {
        fill: url(#New_Gradient_Swatch_3);
      }

      .cls-10 {
        fill: url(#New_Gradient_Swatch_2-3);
      }

      .cls-11 {
        fill: #f5a889;
      }

      .cls-7 {
        font-family: Poppins-SemiBold, Poppins;
        font-size: 35.38px;
        font-weight: 600;
      }

      .cls-12 {
        fill: url(#linear-gradient-3);
      }

      .cls-13 {
        fill: url(#linear-gradient);
      }
    </style>
    <linearGradient id="New_Gradient_Swatch_2" data-name="New Gradient Swatch 2" x1="207.76" y1="268.48" x2="207.76" y2="229.55" gradientUnits="userSpaceOnUse">
      <stop offset="0" stop-color="#441a45" stop-opacity=".5"/>
      <stop offset=".99" stop-color="#6e244c"/>
    </linearGradient>
    <linearGradient id="linear-gradient" x1="253" y1="313.57" x2="253" y2="182.64" gradientUnits="userSpaceOnUse">
      <stop offset="0" stop-color="#441a45" stop-opacity=".5"/>
      <stop offset="1" stop-color="#6e244c"/>
    </linearGradient>
    <linearGradient id="linear-gradient-2" x1="313.26" y1="350.1" x2="313.26" y2="192.18" gradientUnits="userSpaceOnUse">
      <stop offset="0" stop-color="#441a45" stop-opacity=".2"/>
      <stop offset=".99" stop-color="#6e244c"/>
    </linearGradient>
    <linearGradient id="New_Gradient_Swatch_2-2" data-name="New Gradient Swatch 2" x1="415.58" x2="415.58" y2="219.06" xlink:href="#New_Gradient_Swatch_2"/>
    <linearGradient id="New_Gradient_Swatch_2-3" data-name="New Gradient Swatch 2" x1="380.26" y1="258.94" x2="380.26" y2="147.98" xlink:href="#New_Gradient_Swatch_2"/>
    <linearGradient id="linear-gradient-3" x1="314.44" y1="280.3" x2="314.44" y2="99.62" gradientUnits="userSpaceOnUse">
      <stop offset="0" stop-color="#441a45"/>
      <stop offset=".07" stop-color="#592145"/>
      <stop offset=".23" stop-color="#883048"/>
      <stop offset=".39" stop-color="#af3d49"/>
      <stop offset=".55" stop-color="#cd474b"/>
      <stop offset=".7" stop-color="#e24e4c"/>
      <stop offset=".85" stop-color="#ef524c"/>
      <stop offset=".99" stop-color="#f4544d"/>
    </linearGradient>
    <linearGradient id="New_Gradient_Swatch_3" data-name="New Gradient Swatch 3" x1="258.55" y1="352.7" x2="258.55" y2="303.77" gradientUnits="userSpaceOnUse">
      <stop offset="0" stop-color="#6e244c" stop-opacity=".5"/>
      <stop offset=".99" stop-color="#f56a5d"/>
    </linearGradient>
    <linearGradient id="New_Gradient_Swatch_3-2" data-name="New Gradient Swatch 3" x1="368.12" x2="368.12" y2="303.91" xlink:href="#New_Gradient_Swatch_3"/>
  </defs>
  <g>
    <path class="cls-6" d="m603.9,415.28v5.98h-11.55v30.14h-7.17v-30.14h-11.55v-5.98h30.27Zm39.04,36.12l-1.33-21.25c-.13-2.79-.13-6.24-.27-10.09h-.4c-.93,3.19-1.99,7.44-3.05,10.76l-6.51,20.05h-7.44l-6.51-20.58c-.66-2.79-1.73-7.04-2.52-10.22h-.4c0,3.32-.13,6.77-.27,10.09l-1.33,21.25h-6.91l2.66-36.12h10.76l6.24,17.66c.8,2.79,1.46,5.44,2.39,9.16h.13c.93-3.32,1.73-6.37,2.52-9.03l6.24-17.79h10.36l2.79,36.12h-7.17Z"/>
    <text class="cls-7" transform="translate(55.94 631.5)"><tspan x="0" y="0">Confidence, carried with you</tspan></text>
    <g>
      <path class="cls-6" d="m150.2,489.53c-.59-5.57-1.94-10.86-4.94-15.63-4.29-6.84-10.54-11.52-17.48-15.3-4.94-2.68-10.05-5.06-15.07-7.6-4.8-2.41-9.6-4.82-14.38-7.28-3.43-1.77-6.73-3.76-9.71-6.26-4.59-3.85-7.68-8.6-8.69-14.54-.75-4.42-.59-8.86.93-13.14,1.27-3.57,3.42-6.49,6.69-8.51,3.35-2.06,6.96-3.23,10.88-3.59,4.78-.45,9.39.23,13.83,1.87,3.32,1.23,6.27,3.11,8.88,5.64,3.71,3.59,6.65,7.64,8.34,12.49,1.52,4.34,2.7,8.81,4.01,13.22.23.75.16,1.81.65,2.18.5.37,1.51.08,2.3.08.1,0,.22,0,.32,0,.65.03.87-.24.87-.91-.02-5.52.04-11.05.02-16.57-.03-5.06-.12-10.12-.17-15.17,0-1.16-.32-2.17-1.42-2.71-4.31-2.12-8.77-3.9-13.4-5.13-4.78-1.27-9.67-2-14.61-2.4-7.59-.62-15.02.16-22.25,2.45-5.29,1.66-10.31,4.05-14.64,7.55-2.51,2.04-4.91,4.31-6.88,6.85-3.61,4.65-5.42,10.14-6.22,15.95-1.17,8.5-.81,16.77,2.77,24.81,2.9,6.52,7.46,11.37,13.44,14.95,4.26,2.56,8.65,4.9,13.05,7.22,3.11,1.65,6.32,3.13,9.5,4.66,3.6,1.75,7.23,3.42,10.8,5.24,2.25,1.14,4.44,2.39,6.59,3.7,2.03,1.23,4.17,2.39,5.9,3.97,3.77,3.46,6.46,7.69,7.38,12.82.83,4.69.59,9.3-1.33,13.79-1.57,3.68-3.79,6.82-6.94,9.23-2.72,2.09-5.79,3.58-9.1,4.64-5.38,1.73-10.78,1.64-16.27.91-5.62-.75-10.48-3.18-14.75-6.73-3.3-2.73-6.37-5.75-9.34-8.84-2.32-2.43-4.08-5.34-5.34-8.47-1.9-4.72-3.54-9.52-4.47-14.54-.05-.28-.49-.66-.77-.68-1.39-.07-2.79-.03-4.21-.03-.05.32-.1.49-.1.67.07,12.49.14,25,.27,37.49,0,.44.54,1.04.99,1.3.87.5,1.84.82,2.77,1.2,3.38,1.32,6.71,2.84,10.18,3.88,4.3,1.29,8.7,2.38,13.11,3.17,3.75.67,7.59,1.02,11.4,1.12,3.92.1,7.86-.25,11.77-.5,4.99-.32,9.88-1.28,14.6-2.87,4.02-1.35,7.92-3.03,11.56-5.32,3.98-2.49,7.62-5.21,10.62-8.91,4.47-5.52,6.68-11.92,7.78-18.75.67-4.17.7-8.41.26-12.64Z"/>
      <path class="cls-6" d="m150.41,435.52c1.35,0,2.78,0,4.21,0,7.51.02,15.03.08,22.54.07,7.58,0,15.17-.06,22.75-.13.73,0,.99.2.95.9-.05.72-.08,1.44-.08,2.16,0,1.42,0,1.28-1.34,1.46-1.74.23-3.52.5-5.14,1.13-3.27,1.29-3.6,2.93-3.35,6,.18,2.23.91,4.34,1.87,6.4,1.16,2.47,2.02,5.07,3.08,7.59,1.2,2.86,2.47,5.68,3.69,8.53,1.63,3.8,3.23,7.61,4.88,11.41,1.2,2.78,2.48,5.52,3.67,8.3,1.1,2.58,2.11,5.21,3.2,7.8,1.04,2.49,2.14,4.95,3.19,7.44.16.38.15.84.26,1.25.07.25.23.48.34.72.22-.19.55-.33.65-.57,1.16-2.8,2.32-5.6,3.41-8.42,2.26-5.85,4.5-11.71,6.7-17.58,1.56-4.15,3.11-8.3,4.56-12.49,1.35-3.88,2.63-7.79,3.83-11.71.57-1.86.99-3.78,1.28-5.7.59-3.93-1.84-7.36-5.4-9-1.43-.66-3.11-.8-4.69-1.09-.64-.12-1.12-.21-1.1-1,.02-.86.03-1.72,0-2.57-.03-.67.15-.97.9-.97,14.59.06,29.18.11,43.77.13,11.16.01,22.32-.02,33.48-.03.5,0,1.01.07,1.51,0,1.11-.15,1.21-.07,1.11,1-.05.61-.07,1.22-.01,1.83.08.88-.09,1.26-1.15,1.27-3.29.03-6.71,2.09-7.4,4.98-.38,1.58-.27,3.39.07,5,1.22,5.94,3.93,11.35,6.27,16.89,1.55,3.68,3.07,7.37,4.61,11.06,1.39,3.32,2.8,6.63,4.17,9.95,1.83,4.46,3.65,8.92,5.44,13.4.7,1.74,1.29,3.51,1.97,5.26.1.26.47.63.64.59.27-.06.59-.37.7-.65,1.91-4.74,3.79-9.5,5.68-14.25,2.86-7.2,5.79-14.38,8.56-21.61,2.21-5.79,4.41-11.6,6.27-17.5,1.04-3.28.92-6.71-1.28-9.73-1.77-2.43-4.29-3.15-7.1-3.22-1.15-.03-1.23-.06-1.13-1.21.05-.67.05-1.37-.05-2.03-.12-.76.06-1.08.86-1.07,9.5.05,18.99.09,28.49.13.25,0,.51,0,.76-.03,1.63-.16,1.63-.17,1.54,1.44-.05.82.21,1.85-.19,2.41-.34.47-1.47.31-2.19.57-2.21.79-4.03,2.11-5.67,3.82-3.01,3.14-4.25,7.16-5.8,11.03-1.94,4.85-3.72,9.77-5.7,14.61-2.58,6.27-5.33,12.47-7.94,18.72-1.95,4.66-3.77,9.36-5.71,14.02-2.16,5.19-4.39,10.35-6.57,15.53-2.12,5.05-4.21,10.11-6.32,15.16-.3.73-.58,1.48-.96,2.17-.13.24-.54.46-.82.47-3.43.02-6.86.03-10.29-.04-.37,0-.9-.47-1.07-.84-1.64-3.84-3.24-7.7-4.81-11.57-1.6-3.94-3.15-7.9-4.73-11.84-2.5-6.22-5.01-12.44-7.52-18.65-3.05-7.56-6.11-15.11-9.14-22.67-2.76-6.89-5.49-13.8-8.23-20.7-1.44-3.64-3.83-6.45-7.58-7.69-4.78-1.58-7.98-1.3-11.87,2.36-1.42,1.34-2.42,3.25-3.28,5.05-1.44,2.98-2.65,6.08-3.89,9.15-1.99,4.91-3.93,9.85-5.88,14.78-1.92,4.86-3.82,9.72-5.75,14.58-1.83,4.59-3.7,9.15-5.52,13.74-2.44,6.13-4.87,12.26-7.27,18.4-1,2.55-1.89,5.14-2.89,7.69-1.5,3.78-3.09,7.53-4.59,11.32-1.63,4.08-3.12,8.23-4.84,12.27-1.83,4.31-3.7,8.6-5.83,12.76-1.52,2.97-3.29,5.86-5.33,8.5-4.03,5.2-9.12,8.94-15.68,10.5-3.48.83-6.97.83-10.43.35-2.9-.41-5.52-1.78-7.3-4.25-.59-.81-1-1.87-1.15-2.87-.84-5.59,2.02-9.4,6.69-11.62,2.22-1.05,4.59-1.45,7.03-1.49.35,0,.82.26,1.02.55.46.64.72,1.42,1.18,2.06,1.66,2.31,4.16,3,7.11,2.25,3.94-1,6.8-3.47,9.42-6.4,2.32-2.59,4.02-5.58,5.47-8.66,2-4.26,3.84-8.63,4.69-13.31.13-.73-.02-1.61-.33-2.3-1.55-3.49-3.22-6.93-4.79-10.41-1.96-4.34-3.86-8.7-5.78-13.05-2.47-5.61-4.93-11.22-7.4-16.83-1.93-4.39-3.89-8.76-5.82-13.15-4.21-9.57-8.36-19.17-12.62-28.72-1.26-2.82-2.55-5.68-4.27-8.22-2.46-3.64-6.02-5.97-10.39-6.89-.97-.2-1.36-.55-1.11-1.62.18-.78.03-1.62.03-2.53Z"/>
      <path class="cls-6" d="m387.4,464.92c-2.23.4-4.34.77-6.45,1.16-3.79.7-7.58,1.41-11.37,2.1-1.42.26-2.85.46-4.27.71-.73.13-.83-.26-.88-.85-.31-4.23.63-8.21,2.63-11.89,3.61-6.63,9.07-11.41,15.54-15.14,3.67-2.12,7.53-3.75,11.62-4.9,7.46-2.1,14.93-2.05,22.5-.71,4.56.8,8.74,2.43,12.69,4.72,4.86,2.83,8.66,6.75,11.02,11.87,2.06,4.47,2.62,9.26,2.61,14.15,0,17.05.02,34.1.04,51.15,0,.72.06,1.44.11,2.16.37,5.48,3.35,8.48,8.85,8.59,1.64.03,3.33-.47,4.94-.92,1.25-.35,1.45-.32,1.44,1.02,0,.72.04,1.44,0,2.16-.01.23-.19.55-.39.66-3.48,1.97-7,3.91-10.87,4.99-6.22,1.72-12.49,2.15-18.76.12-6.09-1.97-9.04-6.46-10.03-12.51-.16-.97-.12-1.96-.43-3.1-.28.34-.63.65-.84,1.03-1.13,2.02-2.21,4.08-4.09,5.52-4.11,3.15-8.49,5.8-13.41,7.56-5.95,2.13-12.07,2.85-18.31,2.34-3.64-.3-7.11-1.4-10.39-3.1-4.04-2.1-7.25-5.01-9.18-9.14-2.12-4.53-3.05-9.31-2.21-14.32,1.13-6.75,4.88-11.86,10.25-15.86,5.98-4.45,12.63-7.69,19.64-10.16,5.77-2.03,11.6-3.91,17.45-5.72,2.85-.88,5.81-1.45,8.71-2.17.52-.13,1.07-.25,1.53-.52.28-.16.57-.58.56-.89-.02-4.98-.09-9.96-.14-14.95-.03-2.72-.16-5.45-1.4-7.93-3.7-7.4-11.14-10.48-18.7-9.16-4.11.72-6.67,3.52-8.93,6.68-1.58,2.21-2.69,4.68-2.79,7.4-.09,2.34-.13,4.76,1.22,6.89.19.29.31.62.48.95Zm9.39,59.22c8.08-.33,14.37-3.67,19.21-9.78,1.09-1.37,1.79-2.82,1.75-4.8-.17-8.3-.07-16.6-.07-24.91,0-.72-.28-.99-1-.85-.56.11-1.14.14-1.71.24-2.98.51-6.01.83-8.91,1.61-2.62.71-5.13,1.88-7.64,2.97-5.55,2.41-10.24,5.73-12.93,11.5-2.66,5.69-2.53,11.29-.04,16.83,2.19,4.86,6.37,6.92,11.34,7.19Z"/>
      <path class="cls-6" d="m574.05,577.33c.2-1.8.18-1.83-1.6-1.84-.11,0-.22,0-.33,0-6.86-.13-12.08-4.84-12.56-11.68-.27-3.81-.07-7.65-.06-11.48.02-8.49.07-16.98.07-25.46,0-16.47,0-32.95-.03-49.42-.03-13.47-.11-26.94-.16-40.41,0-.7.06-1.41.1-2.29-.52.15-.94.21-1.3.4-1.96,1.06-3.87,2.22-5.87,3.21-3,1.48-6.09,2.79-9.09,4.27-.85.42-1.5.47-2.31,0-3.53-2.03-7.05-4.08-10.94-5.38-3.64-1.21-7.34-2.13-11.16-2.51-6.65-.65-13.23-.46-19.79,1.04-4.36,1-8.58,2.39-12.46,4.54-7.29,4.04-12.97,9.85-17.2,17.01-3.65,6.17-6.12,12.83-7.29,19.9-1.29,7.83-1.06,15.69.23,23.51,1.27,7.72,3.59,15.07,8.04,21.63,4.2,6.18,9.86,10.5,16.82,13.03,5.44,1.98,11.16,2.62,16.92,2.67,6.72.07,13.17-1.44,19.36-3.98,4.35-1.79,8.42-4.1,11.65-7.65.06-.06.19-.06.41-.11.05.3.13.56.13.83-.02,3.36-.04,6.71-.07,10.07-.03,4.69-.1,9.39-.09,14.08.01,5.2.16,10.4.1,15.6-.03,2.55-.97,4.83-3.08,6.41-2.58,1.93-5.41,3.3-8.71,3.47-.27.01-.71.47-.73.75-.06.89-.02,1.8.1,2.69.03.27.43.71.65.71,3.1-.08,6.19-.33,9.29-.35,10.15-.05,20.3-.02,30.45-.03,3.46,0,6.93,0,10.57,0-.05-.62-.12-1.12-.13-1.61-.01-.54-.01-1.08.05-1.61Zm-43.7-56.88c-3.07,2.92-6.88,4.06-10.86,4.66-4.81.72-9.56.35-14.11-1.62-3.33-1.44-6.07-3.65-8.74-6.08-3.46-3.16-6.07-6.85-7.84-11.15-1.51-3.67-2.51-7.5-3.15-11.43-.99-6.07-.89-12.18-.33-18.25.44-4.72,1.01-9.46,2.93-13.91,1.81-4.2,4.16-8.05,6.91-11.69,1.8-2.39,3.77-4.56,6.34-6.12,2.69-1.63,5.59-2.68,8.73-2.95,7.78-.66,14.56,1.84,20.57,6.65,1.86,1.49,3.22,3.4,4.24,5.54.23.49.29,1.11.29,1.67.02,9.14.01,18.28.01,27.41h.05c0,8.78-.03,17.55.01,26.33.02,4.47-1.93,7.93-5.08,10.93Z"/>
    </g>
  </g>
  <g>
    <path class="cls-4" d="m445.32,205.79c.16,13.74.46,27.54-1.03,41.2-2.19,20.19-9.29,38.77-21.18,55.25-4.4,6.12-9.49,11.74-14.94,16.94-10.78,10.28-22.99,18.92-35.45,27.02-10.08,6.56-20.34,12.82-30.77,18.81-8.04,4.61-17.17,12.49-26.64,13.4-3.3.32-6.45-1.34-9.36-2.94-23.77-13.11-47.55-26.09-69.22-42.57-8.51-6.46-16.41-13.47-23.41-21.17-11.9-13.11-21.13-28.22-26.01-46.04-6.04-22-3.75-45.2-3.52-67.75.26-24.36.49-48.75-.61-73.1-.12-2.8.48-5.96,2.79-7.54,2.69-1.85,6.88-2.96,9.88-4.44,3.82-1.88,7.69-3.68,11.58-5.42,7.56-3.41,15.2-6.63,22.76-10.02,25.22-11.29,50.39-22.65,75.47-34.27,1.36-.63,2.74-1.27,4.21-1.61,4.78-1.14,9.68.91,14.16,2.91,32.06,14.34,64.42,28.16,96.14,43.24,7.2,3.42,14.58,6.43,21.91,9.57.74.31,1.51.65,2.04,1.27.48.56.7,1.27.88,1.99.91,3.67.34,7.21.31,10.92-.05,8.35-.1,16.69-.14,25.04-.06,16.44-.05,32.89.15,49.34Z"/>
    <g>
      <polygon class="cls-5" points="191.44 268.48 191.44 229.55 224.08 229.55 224.08 259.33 191.44 268.48"/>
      <rect class="cls-13" x="232.19" y="182.64" width="41.62" height="130.93"/>
      <rect class="cls-2" x="292.02" y="192.18" width="42.49" height="157.92"/>
      <rect class="cls-1" x="399.54" y="219.06" width="32.08" height="49.42"/>
      <g>
        <polygon class="cls-10" points="392.99 147.98 392.99 170.56 360.67 189.82 360.67 192.18 360.67 243.39 399.85 258.94 399.85 192.18 399.85 147.98 392.99 147.98"/>
        <polygon class="cls-3" points="352.72 253.74 352.72 354.82 399.85 322.42 399.54 271.08 352.72 253.74"/>
      </g>
      <path class="cls-12" d="m437.97,267.44c-20.52-4.26-40.95-9.94-60.72-16.9-4.37-1.54-9.51-3.41-14.5-5.65-13.78-6.19-26.55-15.27-36.91-26.26-2.21-2.35-5.81-5.48-7.91-9.1h.11v-40.03c17.03-2.42,30.13-17.06,30.13-34.76,0-19.39-15.72-35.12-35.12-35.12s-35.12,15.72-35.12,35.12c0,18.15,13.77,33.08,31.43,34.92v39.75c-.15.15-.27.32-.36.49-7.45,14.38-25.3,25.34-35.28,30.59-10.6,5.58-22.19,9.37-33.4,13.03l-8.33,2.72c-12.91,4.22-26.27,8.59-39.83,11.24-1.28.25-2.16.83-2.61,1.72-.95,1.85.22,4.4,1.35,6.87.5,1.09.97,2.12,1.16,2.91.2.82.81,1.31,1.65,1.31.23,0,.47-.04.73-.11,3.89-1.09,7.78-2.14,11.67-3.18,11.3-3.05,22.99-6.2,34.29-10.23,9.22-3.29,18.42-7.01,27.35-11.06,5.22-2.37,11.35-5.28,17.21-8.93,5.91-3.68,11.71-8.22,17.23-13.51,2.47-2.36,4.7-4.94,6.86-7.43,1.45-1.67,2.94-3.39,4.49-5.03.34-.37.47-.4.5-.41.05.01.17.09.44.41l.64.74c3.56,4.12,7.24,8.37,11.26,12.23,2.24,2.14,4.51,4.14,6.76,5.94.28.23.93.65,2.05,1.37,1.44.93,4.35,2.8,4.98,3.47v.25l.4.26c11.47,7.37,24.09,12.62,33.81,16.37,4.84,1.87,47.63,18.27,58.47,18.27h.02c.65,0,2.55-.01,3.07-1.31,1.05-2.62,1.96-5.34,2.85-7.97l.9-2.65-1.71-.35Z"/>
      <g>
        <rect class="cls-11" x="369.19" y="205.62" width="7.8" height="6.94"/>
        <rect class="cls-11" x="383.06" y="205.62" width="7.8" height="6.94"/>
        <rect class="cls-11" x="370.92" y="229.46" width="5.2" height="7.8"/>
        <rect class="cls-11" x="411.68" y="235.53" width="6.07" height="8.67"/>
      </g>
      <g>
        <rect class="cls-11" x="321.5" y="251.14" width="4.34" height="6.07"/>
        <rect class="cls-11" x="320.63" y="268.48" width="6.07" height="5.2"/>
        <rect class="cls-11" x="305.89" y="273.68" width="4.34" height="5.2"/>
        <rect class="cls-11" x="306.76" y="298.83" width="3.47" height="5.2"/>
      </g>
      <g>
        <rect class="cls-11" x="258.21" y="219.92" width="5.2" height="6.07"/>
        <rect class="cls-11" x="240.86" y="239" width="5.2" height="4.34"/>
        <rect class="cls-11" x="257.34" y="199.11" width="6.94" height="6.94"/>
        <rect class="cls-11" x="239.13" y="199.11" width="6.07" height="7.8"/>
      </g>
      <rect class="cls-11" x="209.65" y="242.47" width="5.2" height="7.8"/>
      <g>
        <rect class="cls-9" x="254.39" y="303.77" width="8.32" height="48.93"/>
        <ellipse class="cls-11" cx="258.55" cy="295.3" rx="9.54" ry="10.35"/>
      </g>
      <circle class="cls-11" cx="313.05" cy="134.73" r="13.87"/>
      <g>
        <rect class="cls-8" x="363.96" y="303.91" width="8.32" height="48.79"/>
        <ellipse class="cls-11" cx="368.12" cy="295.28" rx="9.54" ry="10.32"/>
      </g>
    </g>
    <path class="cls-6" d="m453.99,205.68c-.17-14.43-.22-30.06-.15-49.21.03-8.33.09-16.67.14-25.01,0-.83.05-1.71.1-2.64.14-3.06.3-6.53-.66-10.42-.36-1.45-1.03-3.6-2.72-5.56-1.85-2.15-4.02-3.09-5.2-3.59-1.74-.75-3.49-1.48-5.24-2.23-5.43-2.29-11.04-4.66-16.36-7.2-22.36-10.64-45.37-20.78-67.62-30.6-9.42-4.16-19.15-8.45-28.7-12.72-4.53-2.03-9.4-4.01-14.84-4.01-1.66,0-3.29.19-4.86.56-2.32.55-4.28,1.46-5.85,2.19-26.86,12.46-53.17,24.3-75.36,34.23-3.59,1.6-7.27,3.21-10.83,4.75-3.91,1.71-7.97,3.48-11.96,5.27-4.59,2.06-8.36,3.83-11.85,5.55-.81.41-1.95.84-3.15,1.31-2.5.96-5.32,2.06-7.81,3.76-4.45,3.05-6.83,8.54-6.55,15.07,1.11,24.74.84,50.18.6,72.63-.04,4.35-.17,8.85-.29,13.2-.53,18.69-1.08,38.01,4.12,56.94,4.9,17.85,14.31,34.53,27.96,49.57,7.02,7.74,15.06,15.03,24.57,22.26,21.56,16.38,45.27,29.46,68.21,42.11l2.07,1.14c2.93,1.61,7.36,4.06,12.71,4.06.56,0,1.12-.03,1.67-.08,9.11-.88,17.04-6.09,24.03-10.68,2.16-1.42,4.21-2.76,6.09-3.84,10.51-6.03,21-12.44,31.18-19.06,11.4-7.41,24.69-16.53,36.71-28.01,6.17-5.88,11.55-11.99,16-18.15,12.74-17.67,20.4-37.65,22.76-59.39,1.45-13.28,1.28-26.62,1.12-39.51l-.03-2.73Zm-8.67.1c.16,13.74.46,27.54-1.03,41.2-2.19,20.19-9.29,38.77-21.18,55.25-4.4,6.12-9.49,11.74-14.94,16.94-10.78,10.28-22.99,18.92-35.45,27.02-10.08,6.56-20.34,12.82-30.77,18.81-8.04,4.61-17.17,12.49-26.64,13.4-3.3.32-6.45-1.34-9.36-2.94-23.77-13.11-47.55-26.09-69.22-42.57-8.51-6.46-16.41-13.47-23.41-21.17-11.9-13.11-21.13-28.22-26.01-46.04-6.04-22-3.75-45.2-3.52-67.75.26-24.36.49-48.75-.61-73.1-.12-2.8.48-5.96,2.79-7.54,2.69-1.85,6.88-2.96,9.88-4.44,3.82-1.88,7.69-3.68,11.58-5.42,7.56-3.41,15.2-6.63,22.76-10.02,25.22-11.29,50.39-22.65,75.47-34.27,1.36-.63,2.74-1.27,4.21-1.61,4.78-1.14,9.68.91,14.16,2.91,32.06,14.34,64.42,28.16,96.14,43.24,7.2,3.42,14.58,6.43,21.91,9.57.74.31,1.51.65,2.04,1.27.48.56.7,1.27.88,1.99.91,3.67.34,7.21.31,10.92-.05,8.35-.1,16.69-.14,25.04-.06,16.44-.05,32.89.15,49.34Z"/>
  </g>
</svg>